<svg width="16" height="13" viewBox="0 0 16 13" fill="none" xmlns="http://www.w3.org/2000/svg">
<path d="M3.83057 0.00592483C3.82176 0.0150289 3.79807 0.0339804 3.79227 0.0367673C3.78944 0.0380679 3.78709 0.0406691 3.78709 0.0406691C3.78709 0.0415981 3.77416 0.0521885 3.75866 0.0642657C3.74295 0.0763425 3.72466 0.0908345 3.71775 0.0965945C3.70633 0.106256 3.69579 0.114059 3.66112 0.138771C3.64239 0.152148 3.60516 0.180947 3.57802 0.203242C3.54357 0.231484 3.5352 0.237801 3.53281 0.237801C3.53152 0.237801 3.52054 0.245976 3.5085 0.255824C3.49641 0.265857 3.47901 0.27942 3.46954 0.286109C3.44797 0.301344 3.41826 0.324197 3.38665 0.349466C3.37306 0.360428 3.35712 0.373248 3.3511 0.377893C3.33476 0.391085 3.29429 0.42137 3.27662 0.433819C3.25789 0.447196 3.21782 0.477666 3.20148 0.49123C3.18789 0.502379 3.15517 0.527088 3.13237 0.54344C3.12373 0.549569 3.11019 0.560162 3.10222 0.566848C3.09425 0.573538 3.0822 0.5832 3.07507 0.588216C3.0501 0.606425 3.01911 0.630395 2.99803 0.648043C2.98617 0.657892 2.97133 0.66978 2.96509 0.674426C2.95885 0.679072 2.94915 0.686502 2.94353 0.691148C2.93795 0.695794 2.92613 0.704525 2.91749 0.710659C2.88929 0.730539 2.8331 0.773087 2.81114 0.79111C2.801 0.799471 2.7894 0.808388 2.7743 0.819351C2.76505 0.826041 2.74977 0.83793 2.74007 0.845921C2.73042 0.853908 2.71856 0.8632 2.71382 0.866358C2.68539 0.885681 2.65568 0.908532 2.61521 0.94235C2.60206 0.953495 2.59002 0.962418 2.58874 0.962418C2.58745 0.962418 2.58356 0.965389 2.58055 0.968916C2.57731 0.972449 2.57173 0.97672 2.56784 0.978395C2.55987 0.98211 2.54247 0.994743 2.51918 1.01425C2.51014 1.02187 2.49854 1.03098 2.49314 1.03469C2.48774 1.03841 2.47915 1.04491 2.47397 1.04881C2.46861 1.0529 2.45892 1.06033 2.45245 1.06535C2.44577 1.07018 2.43155 1.08151 2.42079 1.09043C2.41004 1.09916 2.3941 1.11143 2.38551 1.11756C2.37687 1.12369 2.35987 1.1367 2.34783 1.14635C2.33596 1.15601 2.3179 1.16977 2.30798 1.17701C2.28389 1.19429 2.24834 1.22123 2.23997 1.22867C2.23607 1.23201 2.23155 1.23591 2.22961 1.2374C2.2277 1.23888 2.22186 1.24353 2.2169 1.24762C2.21176 1.2517 2.1999 1.26044 2.19064 1.26713C2.18139 1.27381 2.16656 1.28552 2.15726 1.29314C2.14823 1.30075 2.13702 1.30949 2.13229 1.31265C2.11657 1.32286 2.08363 1.34739 2.07008 1.35928C2.06534 1.36337 2.05826 1.36838 2.05436 1.37024C2.05051 1.37229 2.0475 1.37507 2.0475 1.37507C2.0475 1.37656 1.99343 1.41837 1.97081 1.43434C1.96288 1.43992 1.9504 1.44958 1.94305 1.45589C1.93574 1.46203 1.92348 1.47169 1.91595 1.47726C1.89204 1.49492 1.85972 1.52 1.84165 1.53523C1.83196 1.54322 1.82164 1.55121 1.81885 1.55307C1.8115 1.55716 1.79321 1.57109 1.76674 1.59227C1.75465 1.60193 1.73725 1.61531 1.72777 1.622C1.71852 1.62869 1.70063 1.64188 1.68814 1.65154C1.66702 1.66752 1.6591 1.67384 1.63842 1.69093C1.6343 1.69446 1.62744 1.69966 1.62332 1.70245C1.61407 1.70895 1.57728 1.73794 1.56842 1.74574C1.56479 1.7489 1.55766 1.7541 1.5527 1.75726C1.54389 1.76265 1.50559 1.79145 1.48704 1.8065C1.48213 1.8104 1.47544 1.81486 1.47221 1.81635C1.46897 1.81783 1.46619 1.81969 1.46619 1.82062C1.46619 1.82229 1.41775 1.86001 1.39083 1.87933C1.38219 1.88546 1.37081 1.89401 1.36541 1.89847C1.3454 1.91482 1.31179 1.94102 1.29931 1.94993C1.29222 1.95514 1.27478 1.9687 1.26056 1.98041C1.24635 1.99211 1.22997 2.0053 1.22395 2.00995C1.21815 2.01459 1.20783 2.02258 1.20114 2.02778C1.19446 2.03299 1.18303 2.04135 1.17573 2.04655C1.14301 2.06959 1.09027 2.10935 1.07628 2.12161C1.06809 2.12867 1.05215 2.14093 1.03019 2.1571C1.02311 2.1623 1.01447 2.16881 1.0108 2.17178C1.00739 2.17456 0.998533 2.18088 0.991227 2.18553C0.984098 2.19017 0.976792 2.19556 0.975065 2.19723C0.971833 2.20057 0.929416 2.2342 0.907676 2.25056C0.900813 2.25594 0.889168 2.26523 0.881862 2.27136C0.863355 2.28716 0.82417 2.31689 0.821779 2.31689C0.819432 2.31689 0.79747 2.33305 0.782151 2.34624C0.77573 2.35163 0.754389 2.36817 0.734598 2.38321C0.714762 2.39808 0.690453 2.41722 0.680314 2.42558C0.670219 2.43394 0.658574 2.44286 0.654501 2.44546C0.650427 2.44806 0.637898 2.45772 0.627138 2.46664C0.605177 2.48485 0.591186 2.49563 0.580426 2.50269C0.561697 2.51476 0.515205 2.55025 0.498424 2.56511C0.482042 2.5796 0.445869 2.60673 0.434667 2.61286C0.431213 2.61491 0.428422 2.61788 0.428422 2.61788C0.428422 2.61788 0.421959 2.62364 0.41399 2.62866C0.405843 2.63386 0.396987 2.64018 0.393976 2.64296C0.38884 2.64779 0.355677 2.67399 0.327694 2.69573C0.320122 2.70149 0.304846 2.71357 0.293866 2.72285C0.282664 2.73196 0.267388 2.74422 0.259639 2.74979C0.251891 2.75537 0.240246 2.7641 0.233782 2.7693C0.227362 2.77432 0.215717 2.78324 0.207747 2.78881C0.172459 2.81408 0.130262 2.84623 0.0977188 2.87242C0.0869595 2.88115 0.0710195 2.89323 0.0626512 2.89936C0.0540172 2.90549 0.0419743 2.91423 0.0359527 2.91887C0.0297096 2.92352 0.0191711 2.93095 0.0124853 2.9356C0.0023459 2.94228 0 2.94488 0 2.94934V2.95455L0.0146118 2.95324C0.0225816 2.9525 0.253839 2.95194 0.528533 2.95213C0.803271 2.95213 1.03236 2.95176 1.0375 2.95102C1.04719 2.9499 1.05171 2.94712 1.08403 2.92148C1.11737 2.89491 1.16023 2.86276 1.17165 2.8557C1.18241 2.84901 1.23559 2.80776 1.26725 2.78175C1.27929 2.77172 1.29435 2.76002 1.30059 2.75537C1.30683 2.75073 1.31653 2.7433 1.32215 2.73865C1.32751 2.734 1.33827 2.72583 1.34584 2.72063C1.3906 2.68885 1.42399 2.66359 1.45861 2.63553C1.48553 2.6136 1.50063 2.60227 1.51139 2.59651C1.51591 2.5941 1.5202 2.59112 1.52109 2.59001C1.52171 2.58908 1.53056 2.58221 1.54066 2.57515C1.55058 2.5679 1.56824 2.55415 1.57962 2.54467C1.6212 2.51067 1.71462 2.43877 1.73056 2.42892C1.73574 2.42576 1.75297 2.41276 1.76908 2.40012C1.78502 2.38767 1.7999 2.37634 1.8018 2.37541C1.80375 2.3743 1.81451 2.36538 1.82571 2.35535C1.83692 2.3455 1.84705 2.33732 1.84834 2.33732C1.8494 2.33732 1.85994 2.32952 1.87136 2.32005C1.89182 2.30351 1.90386 2.2944 1.93317 2.2736C1.9407 2.26839 1.9635 2.25111 1.98374 2.23569C2.02337 2.20503 2.02336 2.20503 2.03195 2.1976C2.04015 2.19036 2.06016 2.17549 2.06902 2.17011C2.07309 2.1675 2.08301 2.15989 2.09098 2.15301C2.09895 2.14632 2.11205 2.13611 2.12002 2.13053C2.13552 2.11994 2.18396 2.08278 2.20034 2.06903C2.20574 2.06457 2.21283 2.05974 2.21606 2.05826C2.21929 2.05677 2.23523 2.04487 2.25117 2.03187C2.26707 2.01868 2.28562 2.00456 2.29248 2.0001C2.30736 1.99062 2.35708 1.95179 2.38573 1.92745C2.39711 1.91779 2.40725 1.90999 2.40831 1.90999C2.40937 1.90999 2.41973 1.90218 2.43115 1.89271C2.44253 1.88342 2.45785 1.87134 2.46516 1.86632C2.47224 1.86112 2.48283 1.85369 2.4884 1.84942C2.49398 1.84533 2.50156 1.84013 2.50497 1.83771C2.50864 1.83548 2.51683 1.82917 2.52329 1.82378C2.54114 1.8091 2.57023 1.78699 2.57798 1.78216C2.58506 1.7777 2.61778 1.75169 2.64258 1.73069C2.65095 1.72363 2.66454 1.71341 2.67269 1.70802C2.68066 1.70282 2.69465 1.6926 2.70372 1.68573C2.71253 1.67886 2.72631 1.66826 2.73405 1.66213C2.75021 1.64987 2.76655 1.63705 2.78378 1.62367C2.80986 1.60323 2.83912 1.5815 2.84793 1.57592C2.85657 1.57072 2.87446 1.55697 2.90868 1.52947C2.91532 1.52427 2.92223 1.51981 2.92223 1.51981C2.92223 1.51981 2.92914 1.5148 2.936 1.50885C2.94291 1.5029 2.953 1.49473 2.95818 1.49101C2.96358 1.48729 2.97758 1.47633 2.9894 1.46686C3.01158 1.44902 3.02686 1.4375 3.05205 1.41948C3.071 1.40592 3.11191 1.37452 3.12356 1.36448C3.12869 1.36002 3.13454 1.35612 3.13644 1.35556C3.13839 1.35501 3.14246 1.35148 3.1453 1.34795C3.14809 1.34442 3.15389 1.33959 3.15818 1.33736C3.16252 1.33513 3.16726 1.33178 3.16876 1.32992C3.17027 1.32807 3.17673 1.32323 3.18276 1.31915C3.189 1.31506 3.19976 1.30744 3.20684 1.30224C3.21397 1.29704 3.22601 1.28831 3.23376 1.28292C3.24151 1.27753 3.25466 1.2675 3.26285 1.26081C3.29039 1.23851 3.30784 1.22476 3.32205 1.21417C3.3298 1.20841 3.3371 1.20284 3.33817 1.20191C3.3395 1.2008 3.34273 1.19819 3.34552 1.19596C3.34831 1.19373 3.35561 1.1876 3.36186 1.18259C3.37607 1.1707 3.3963 1.15583 3.406 1.14989C3.41375 1.14524 3.48007 1.0947 3.48565 1.08931C3.49167 1.08337 3.52444 1.05866 3.56123 1.03209C3.56965 1.02596 3.58599 1.01332 3.59763 1.00422C3.60905 0.99493 3.63575 0.974493 3.65661 0.958698C3.67773 0.942907 3.70527 0.921539 3.7182 0.911321C3.74551 0.889396 3.76106 0.87769 3.76792 0.873788C3.77071 0.872118 3.78191 0.86357 3.79245 0.854465C3.82025 0.831239 3.82521 0.828638 3.84328 0.828638H3.85815L3.87666 0.842946C3.88676 0.850937 3.9042 0.864501 3.9154 0.873231C3.94901 0.899802 3.95782 0.906305 3.96685 0.911508C3.97159 0.914109 3.97784 0.918751 3.98085 0.921539C3.98775 0.92823 4.02889 0.959816 4.04974 0.974493C4.05838 0.980623 4.07538 0.99363 4.08742 1.00329C4.09929 1.01295 4.11585 1.02559 4.12404 1.03116C4.13803 1.04082 4.14812 1.04862 4.1688 1.06572C4.17376 1.06981 4.19377 1.08579 4.21339 1.10121C4.23296 1.11663 4.25129 1.13149 4.2543 1.13428C4.25731 1.13707 4.26506 1.14283 4.27152 1.14691C4.28485 1.15546 4.30553 1.17051 4.31545 1.17887C4.31908 1.18203 4.32643 1.18667 4.33179 1.18946C4.33719 1.19225 4.34343 1.19689 4.34578 1.20005C4.34817 1.20321 4.3518 1.20637 4.35397 1.20692C4.35592 1.20748 4.36021 1.21101 4.36344 1.21473C4.3669 1.21844 4.37075 1.22235 4.37248 1.22328C4.37398 1.22402 4.38563 1.23294 4.39833 1.24279C4.42069 1.25988 4.43406 1.26991 4.46634 1.29277C4.47453 1.29853 4.48959 1.31023 4.49973 1.31859C4.50982 1.32714 4.52147 1.33624 4.52554 1.33903C4.53524 1.34572 4.54192 1.35074 4.5727 1.37582C4.59727 1.3957 4.62782 1.41892 4.64332 1.42914C4.64761 1.43211 4.65558 1.43787 4.66121 1.44215C4.66678 1.44661 4.67737 1.45422 4.68489 1.45943C4.6922 1.46444 4.70725 1.47596 4.71806 1.48469C4.72882 1.49361 4.75357 1.51331 4.77314 1.52873C4.79275 1.54396 4.81104 1.55883 4.81405 1.56162C4.81706 1.5644 4.82481 1.57016 4.83127 1.57425C4.84487 1.58298 4.8655 1.59803 4.8752 1.60639C4.87887 1.60955 4.88361 1.6129 4.88556 1.61383C4.88746 1.61475 4.8991 1.62349 4.91137 1.63333C4.9456 1.66083 4.97942 1.68684 4.99705 1.69911C5.0059 1.70524 5.0214 1.71694 5.03149 1.7253C5.04163 1.73348 5.0539 1.7424 5.05886 1.74518C5.06381 1.74797 5.07028 1.7528 5.07285 1.75596C5.07564 1.75912 5.07953 1.76228 5.08166 1.76302C5.08361 1.76377 5.09977 1.77602 5.11721 1.79033C5.16264 1.82768 5.17145 1.83437 5.20267 1.85611C5.21927 1.86762 5.24747 1.88881 5.26186 1.90032C5.27887 1.91408 5.28794 1.92132 5.33076 1.95439C5.34909 1.96851 5.36804 1.98375 5.37278 1.98802C5.37752 1.99229 5.38504 1.99787 5.38956 2.00029C5.39386 2.00289 5.40289 2.00902 5.40935 2.01403C5.41582 2.01924 5.42228 2.02332 5.42356 2.02332C5.42507 2.02332 5.43047 2.02704 5.43605 2.0315C5.44145 2.03596 5.45606 2.04804 5.46855 2.05826C5.49613 2.08092 5.53572 2.11158 5.55577 2.12551C5.56392 2.13109 5.57986 2.14317 5.59128 2.15245C5.60271 2.16156 5.61927 2.17438 5.62808 2.18088C5.65093 2.1976 5.65974 2.20448 5.69357 2.2316C5.71012 2.24498 5.72801 2.25892 5.73337 2.26263C5.73877 2.26635 5.74696 2.27229 5.75188 2.27601C5.75662 2.27954 5.76826 2.2879 5.77751 2.29459C5.78677 2.30128 5.80377 2.3141 5.81497 2.32302C5.8264 2.33193 5.83994 2.34271 5.84535 2.34661C5.87718 2.37058 5.90711 2.39399 5.925 2.40886C5.9362 2.41815 5.94891 2.42781 5.95298 2.43022C5.95706 2.43264 5.96937 2.44137 5.9799 2.44973C5.99066 2.45809 6.00142 2.46627 6.00421 2.46775C6.00705 2.46942 6.01865 2.47816 6.03007 2.48726C6.06195 2.51272 6.09423 2.53761 6.11446 2.55229C6.1246 2.55954 6.13899 2.57069 6.14656 2.57682C6.15409 2.58314 6.1668 2.59298 6.17494 2.59856C6.18314 2.60413 6.18982 2.61008 6.18982 2.61008C6.18982 2.61008 6.19349 2.61342 6.19779 2.61602C6.20231 2.61862 6.20983 2.62401 6.21457 2.6281C6.23029 2.64185 6.28754 2.68607 6.30587 2.69889C6.31597 2.70595 6.32845 2.71505 6.33385 2.71933C6.33943 2.72341 6.3459 2.72806 6.34851 2.72954C6.35086 2.73103 6.36206 2.73958 6.37326 2.74849C6.41718 2.7838 6.47833 2.83081 6.48953 2.83768C6.49467 2.84084 6.51039 2.8531 6.5246 2.86481C6.53881 2.87633 6.55537 2.88915 6.56121 2.89286C6.56724 2.89676 6.58039 2.90679 6.5907 2.91534C6.61891 2.93875 6.63206 2.94823 6.63892 2.95064C6.64322 2.95194 6.68457 2.9525 6.77649 2.95232C6.84884 2.95213 7.082 2.95194 7.29471 2.95176C7.68076 2.95139 7.68182 2.95139 7.68182 2.94767C7.68182 2.94414 7.67106 2.93578 7.63599 2.91181C7.63103 2.90828 7.62262 2.90197 7.61726 2.89751C7.61186 2.89305 7.59442 2.8793 7.57848 2.86666C7.56254 2.85403 7.54793 2.84233 7.5462 2.84065C7.54275 2.83731 7.53478 2.83136 7.4913 2.79903C7.47624 2.7877 7.45277 2.76968 7.43918 2.75853C7.42585 2.74757 7.41377 2.73865 7.4127 2.73865C7.41142 2.73865 7.40217 2.73159 7.3918 2.72285C7.38127 2.71412 7.37179 2.70706 7.37029 2.70706C7.369 2.70706 7.35802 2.69889 7.3462 2.68885C7.31817 2.66545 7.28395 2.63906 7.26632 2.62754C7.25858 2.62252 7.24304 2.61063 7.23188 2.60116C7.22068 2.59168 7.20708 2.58109 7.20172 2.57738C7.19052 2.56957 7.17675 2.55898 7.16427 2.54802C7.15413 2.5391 7.11733 2.51086 7.09426 2.49432C7.06132 2.47073 7.04994 2.46236 7.03786 2.45289C7.03099 2.44769 7.02346 2.44323 7.02346 2.44323C7.02258 2.44323 7.01895 2.43988 7.01527 2.4358C7.01182 2.43171 7.00797 2.42836 7.00686 2.42836C7.00474 2.42836 6.99956 2.42446 6.94983 2.38378C6.92291 2.36185 6.90308 2.3468 6.88652 2.33565C6.88284 2.33324 6.87124 2.32395 6.86048 2.31503C6.8499 2.3063 6.83741 2.29682 6.83312 2.29403C6.82882 2.29124 6.81807 2.28307 6.80943 2.27601C6.80084 2.26895 6.79287 2.263 6.79181 2.263C6.7907 2.263 6.78468 2.25854 6.77866 2.25316C6.75927 2.23662 6.70286 2.19314 6.68931 2.18478C6.68413 2.18144 6.6766 2.17624 6.67275 2.17308C6.66907 2.16992 6.66066 2.16342 6.65442 2.15859C6.64817 2.15375 6.63719 2.14521 6.63033 2.13963C6.6232 2.13387 6.61652 2.12923 6.61523 2.12923C6.61417 2.12923 6.60988 2.12607 6.60554 2.12217C6.60124 2.11827 6.58853 2.10805 6.57733 2.09932C6.56617 2.09077 6.55108 2.07869 6.54377 2.07256C6.53664 2.06643 6.52309 2.05602 6.51362 2.04934C6.50436 2.04265 6.48798 2.0302 6.47722 2.02147C6.46624 2.01273 6.44862 1.99899 6.43764 1.99081C6.42666 1.98263 6.41608 1.97335 6.41417 1.97037C6.41116 1.96517 6.41072 1.89494 6.41072 1.1209L6.4105 0.276819L6.40186 0.27589C6.39717 0.275333 6.08843 0.274961 5.71575 0.275333C5.16326 0.275704 5.03774 0.276262 5.03539 0.278305C5.033 0.280349 5.0326 0.336832 5.03216 0.577441C5.03194 0.74057 5.03171 0.875645 5.03149 0.877503C5.03149 0.879365 5.02892 0.882893 5.02591 0.885307C5.02118 0.889027 5.01794 0.889953 5.00825 0.889953H4.9962L4.97446 0.870817C4.95551 0.854282 4.93054 0.834772 4.90446 0.81638C4.90039 0.813404 4.89348 0.808019 4.88941 0.804299C4.88511 0.800584 4.87993 0.796869 4.87781 0.795756C4.87413 0.794081 4.84916 0.774201 4.80869 0.741314C4.79683 0.731652 4.77982 0.718645 4.77123 0.712516C4.76238 0.706387 4.74688 0.694494 4.73679 0.686133C4.72665 0.677585 4.71589 0.669411 4.71288 0.667553C4.70792 0.664765 4.69822 0.657705 4.67196 0.637455C4.66656 0.633366 4.65107 0.621477 4.63752 0.611071C4.62397 0.600666 4.60843 0.588403 4.60307 0.583574C4.59767 0.578928 4.58651 0.570193 4.57832 0.564251C4.54577 0.541208 4.53311 0.531734 4.51456 0.5165C4.5038 0.507765 4.49393 0.500335 4.49198 0.499778C4.49025 0.499221 4.47994 0.49123 4.46896 0.481942C4.44159 0.4589 4.40134 0.427501 4.37571 0.409293C4.36411 0.400932 4.34901 0.389413 4.34254 0.383653C4.33608 0.377893 4.32576 0.370275 4.31952 0.366931C4.3135 0.363401 4.30726 0.358942 4.30597 0.356898C4.30464 0.354854 4.30146 0.352067 4.2984 0.350767C4.29349 0.348352 4.26935 0.329771 4.22844 0.296328C4.21724 0.287038 4.1998 0.27366 4.1897 0.2666C4.17956 0.259354 4.16668 0.249321 4.16061 0.244304C4.15481 0.239102 4.14405 0.230741 4.13697 0.225724C4.12984 0.220708 4.11908 0.212718 4.11328 0.208073C4.10721 0.203429 4.09561 0.194696 4.08742 0.188565C4.07923 0.182433 4.07108 0.17593 4.06913 0.174258C4.06351 0.168684 4.06201 0.167755 4.03681 0.148432C4.02326 0.138027 4.00821 0.126508 4.00369 0.122792C3.99896 0.119076 3.99121 0.113688 3.98625 0.110529C3.97376 0.102726 3.95587 0.0893485 3.93263 0.070211C3.92187 0.0612928 3.91239 0.0538606 3.91151 0.0538606C3.90894 0.0538606 3.85984 0.0148431 3.85448 0.00852598C3.84523 -0.00206454 3.83876 -0.0026219 3.83057 0.00592483Z" fill="white"/>
<path d="M4.96687 1.77676C4.96099 1.77882 4.95302 1.78441 4.94844 1.78941C4.94359 1.79501 4.93622 1.79971 4.93001 1.80177C4.92443 1.80383 4.91809 1.80766 4.91603 1.81031C4.90924 1.81973 4.90054 1.82797 4.89435 1.8312C4.89111 1.83297 4.88504 1.83944 4.88122 1.84592C4.8774 1.8521 4.87222 1.85828 4.86973 1.85946C4.86722 1.86034 4.86249 1.86623 4.85924 1.87241C4.856 1.87859 4.851 1.88595 4.8479 1.88889C4.83787 1.89919 4.80455 1.96099 4.79764 1.98188C4.79527 1.98983 4.79263 1.99601 4.79203 1.99601C4.7913 1.99601 4.78908 2.00219 4.78687 2.00984C4.78466 2.01779 4.78069 2.02868 4.77802 2.03427C4.77538 2.03986 4.77153 2.05222 4.76947 2.06164C4.76741 2.07106 4.76401 2.08282 4.7621 2.08754C4.76019 2.09224 4.75725 2.10284 4.75561 2.11137C4.75385 2.11991 4.75046 2.13492 4.74794 2.14463C4.7453 2.15493 4.74248 2.172 4.7413 2.18524C4.74027 2.19789 4.73718 2.21703 4.73469 2.22792C4.72878 2.25293 4.72729 2.27765 4.72729 2.34917C4.72745 2.41921 4.73012 2.46688 4.73527 2.4863C4.73763 2.49543 4.73985 2.51132 4.74118 2.52987C4.74264 2.54988 4.74427 2.56076 4.74618 2.56518C4.75031 2.574 4.75325 2.58666 4.75576 2.60638C4.7571 2.6158 4.75943 2.62639 4.76107 2.62992C4.76268 2.63346 4.76638 2.6464 4.76932 2.65906C4.77241 2.67259 4.77626 2.68407 4.7789 2.68819C4.78126 2.69173 4.78363 2.69702 4.7842 2.69997C4.78466 2.70291 4.7876 2.71144 4.79084 2.7188C4.79394 2.72616 4.7966 2.7341 4.7966 2.7341C4.7966 2.73616 4.80588 2.75617 4.82344 2.79267C4.83405 2.81474 4.84672 2.83593 4.85172 2.84005C4.85424 2.84211 4.85794 2.84711 4.86 2.85094C4.86206 2.85506 4.8681 2.86242 4.87325 2.86742C4.87855 2.87242 4.88492 2.88008 4.88726 2.88478C4.88992 2.88949 4.89493 2.8945 4.89951 2.89656C4.90378 2.89862 4.91069 2.9048 4.91485 2.91039C4.92088 2.91892 4.92458 2.92127 4.93577 2.92481C4.94313 2.92687 4.95332 2.93217 4.95817 2.93599C4.97558 2.95012 5.00241 2.95659 5.0347 2.95394C5.06286 2.95188 5.07435 2.94806 5.09527 2.93334C5.1034 2.92775 5.11225 2.92304 5.11504 2.92304C5.11989 2.92304 5.12226 2.92069 5.13184 2.90715C5.1339 2.90421 5.14039 2.8992 5.1463 2.89626C5.15203 2.89302 5.15825 2.88802 5.15985 2.88508C5.16325 2.8789 5.17268 2.86918 5.17844 2.86565C5.1805 2.86448 5.1855 2.85741 5.18963 2.84976C5.1939 2.84241 5.2026 2.82828 5.20924 2.81857C5.22619 2.79384 5.24744 2.74882 5.25997 2.71115C5.26291 2.70232 5.26733 2.69113 5.2697 2.68673C5.27218 2.68201 5.27455 2.67407 5.27515 2.66818C5.27558 2.66259 5.27825 2.65288 5.28089 2.6467C5.2834 2.64022 5.28619 2.6314 5.2871 2.62698C5.28798 2.62227 5.28989 2.61197 5.29122 2.60432C5.29253 2.59667 5.29535 2.58666 5.29726 2.58195C5.30065 2.57372 5.30214 2.5643 5.30523 2.52898C5.30611 2.51868 5.3089 2.50308 5.31142 2.49426C5.31539 2.48012 5.31612 2.47424 5.31715 2.4454C5.31848 2.40596 5.31863 2.33004 5.31715 2.27706C5.31642 2.24352 5.31569 2.23704 5.3123 2.22409C5.31023 2.21585 5.30744 2.19995 5.30611 2.18877C5.30168 2.15169 5.3005 2.14492 5.29607 2.13197C5.29371 2.12491 5.29034 2.11167 5.28871 2.10196C5.2871 2.09224 5.2837 2.07988 5.28073 2.074C5.27794 2.06811 5.27573 2.06134 5.27573 2.05899C5.27573 2.04899 5.26069 2.00396 5.24978 1.9813C5.22649 1.93274 5.20882 1.89978 5.2013 1.89095C5.19642 1.88535 5.19038 1.87682 5.18772 1.87211C5.18508 1.8677 5.18004 1.86152 5.17653 1.85828C5.17313 1.85534 5.16783 1.84857 5.16485 1.84327C5.16191 1.83826 5.15631 1.83208 5.15233 1.82973C5.14851 1.82738 5.14218 1.82179 5.13848 1.81679C5.13481 1.81207 5.1255 1.80501 5.11783 1.80089C5.11016 1.79707 5.09943 1.7903 5.09367 1.78618C5.08806 1.78206 5.07905 1.77706 5.07375 1.77558C5.06004 1.77117 4.97985 1.77205 4.96687 1.77676Z" fill="white"/>
<path d="M2.60985 2.95592C2.59957 2.95696 2.59427 2.95843 2.58632 2.96226C2.5734 2.9686 2.57249 2.96875 2.56103 2.97052C2.55398 2.97141 2.54956 2.97317 2.54397 2.97701C2.5397 2.97981 2.53266 2.9832 2.52809 2.98453C2.52352 2.98585 2.51853 2.98821 2.51705 2.98983C2.51545 2.9916 2.51103 2.99455 2.50692 2.99661C2.50292 2.99868 2.49763 3.00207 2.49515 3.00428C2.49279 3.00649 2.4875 3.01033 2.48338 3.01254C2.46632 3.02227 2.43426 3.05441 2.42234 3.07372C2.41968 3.07815 2.41602 3.08345 2.41408 3.08551C2.41233 3.08758 2.4094 3.09215 2.40761 3.09584C2.40571 3.09952 2.40247 3.10453 2.40026 3.10719C2.39793 3.10969 2.39512 3.11545 2.39379 3.12002C2.39249 3.12444 2.38982 3.13004 2.38777 3.1324C2.38278 3.13844 2.38129 3.14287 2.37821 3.16085C2.37615 3.17235 2.37425 3.17884 2.37086 3.18474C2.36454 3.19609 2.3629 3.21319 2.36393 3.25875C2.36481 3.29767 2.36732 3.31654 2.37292 3.32642C2.37482 3.32981 2.37718 3.33674 2.37821 3.34205C2.37939 3.34794 2.38217 3.35531 2.38571 3.36121C2.3888 3.36652 2.39203 3.37404 2.39306 3.37817C2.39527 3.38745 2.39805 3.39306 2.40335 3.39925C2.40571 3.4019 2.40761 3.405 2.40761 3.40633C2.40761 3.4075 2.40997 3.41104 2.41278 3.41399C2.41572 3.41694 2.42189 3.42446 2.42661 3.4305C2.43704 3.44392 2.48175 3.488 2.48483 3.488C2.4878 3.488 2.49839 3.49508 2.49941 3.49758C2.49984 3.49876 2.50368 3.50142 2.50794 3.50363C2.51221 3.50569 2.51808 3.50923 2.52089 3.51144C2.52367 3.51351 2.53045 3.51631 2.53589 3.51778C2.54134 3.51911 2.54926 3.52265 2.55368 3.5256C2.55927 3.52928 2.56427 3.53135 2.57029 3.53223C2.58 3.53356 2.58943 3.5368 2.595 3.54034C2.60531 3.54712 2.69796 3.54727 2.7162 3.54049C2.71959 3.53916 2.72504 3.53709 2.72827 3.53592C2.73166 3.53474 2.73871 3.53311 2.744 3.53223C2.75047 3.53135 2.75752 3.52899 2.7649 3.52515C2.77107 3.52191 2.77945 3.51852 2.78357 3.51763C2.78844 3.51646 2.7927 3.51424 2.79533 3.51144C2.79754 3.50908 2.80314 3.5054 2.8077 3.50333C2.81209 3.50127 2.81741 3.49803 2.81947 3.49611C2.82153 3.49434 2.82549 3.49139 2.82842 3.48992C2.83756 3.48505 2.85093 3.47296 2.87461 3.4479C2.8783 3.44421 2.88257 3.43876 2.88432 3.43581C2.88592 3.43286 2.88801 3.4305 2.88874 3.4305C2.88946 3.4305 2.89228 3.42696 2.89506 3.42269C2.89769 3.41856 2.90153 3.4137 2.90329 3.41207C2.90507 3.41045 2.90873 3.4047 2.91139 3.39925C2.91403 3.39379 2.91772 3.38745 2.91932 3.38494C2.92271 3.38037 2.92404 3.37669 2.92682 3.36593C2.9277 3.36254 2.93051 3.35738 2.93287 3.35458C2.93653 3.35045 2.93771 3.34706 2.93962 3.33659C2.94079 3.32936 2.94373 3.3189 2.94609 3.3133C2.95214 3.29855 2.95332 3.29148 2.95435 3.26169C2.95549 3.22425 2.95199 3.19727 2.94285 3.17545C2.9414 3.17176 2.93977 3.16542 2.93919 3.16144C2.93816 3.15319 2.9336 3.14124 2.92948 3.13579C2.928 3.13387 2.92682 3.13092 2.92682 3.12916C2.92682 3.12753 2.92491 3.12296 2.92271 3.11913C2.9205 3.1153 2.91593 3.10719 2.91242 3.101C2.90903 3.09495 2.90462 3.08891 2.90271 3.08773C2.90081 3.0864 2.8983 3.08331 2.89727 3.08065C2.89403 3.07254 2.88726 3.06429 2.86124 3.03657C2.85256 3.02728 2.83886 3.01593 2.83078 3.01121C2.82682 3.009 2.82328 3.0062 2.82283 3.00502C2.8224 3.00384 2.81902 3.00118 2.8152 2.99942C2.81151 2.9975 2.80577 2.99381 2.80268 2.99131C2.7996 2.9888 2.79358 2.98571 2.78946 2.98453C2.78532 2.9832 2.7793 2.9804 2.77606 2.97804C2.76944 2.97332 2.76415 2.97155 2.75032 2.96904C2.74503 2.96816 2.7371 2.96536 2.73269 2.96286C2.72606 2.95917 2.72165 2.95784 2.7084 2.95637C2.69031 2.95416 2.6306 2.95401 2.60985 2.95592Z" fill="white"/>
<path d="M4.59367 2.95536C4.58584 2.95606 4.54162 2.95675 4.49538 2.95675C4.44367 2.95692 4.40841 2.95762 4.40359 2.95866C4.39945 2.9597 4.3911 2.96335 4.38512 2.96664C4.37698 2.97133 4.37151 2.97324 4.36186 2.97429C4.35106 2.97567 4.34753 2.97689 4.33922 2.98262C4.33392 2.98644 4.32592 2.9906 4.32144 2.99182C4.31713 2.99303 4.30913 2.99755 4.30383 3.00171C4.29832 3.00571 4.29333 3.00918 4.29251 3.00918C4.29169 3.00918 4.28686 3.013 4.28187 3.01786C4.27688 3.02255 4.27171 3.02654 4.27038 3.02654C4.26922 3.02654 4.2634 3.03088 4.25759 3.03626C4.2278 3.06334 4.20903 3.08504 4.20137 3.10084C4.19938 3.10501 4.19473 3.11143 4.19124 3.11543C4.18758 3.11924 4.18457 3.12341 4.18457 3.12463C4.18457 3.12567 4.18143 3.13175 4.17777 3.13782C4.17394 3.1439 4.16912 3.15449 4.16713 3.16126C4.16511 3.1682 4.16115 3.17706 4.15831 3.18122C4.15431 3.18712 4.15297 3.19147 4.15215 3.20015C4.15065 3.21733 4.14798 3.2281 4.14367 3.23608C4.14135 3.24007 4.13885 3.24754 4.13803 3.2524C4.13687 3.25813 4.13635 3.43816 4.13635 3.75326V4.24526L4.14217 4.2581C4.14535 4.26522 4.14798 4.27217 4.14798 4.27356C4.14798 4.27877 4.15349 4.2897 4.16029 4.29786C4.17342 4.31366 4.18806 4.32859 4.19305 4.33137C4.19589 4.33276 4.20089 4.33658 4.2042 4.3397C4.20868 4.34387 4.21317 4.34613 4.22035 4.34769C4.22582 4.3489 4.23481 4.35168 4.24011 4.35394C4.24842 4.35741 4.25294 4.3581 4.26806 4.3581C4.28468 4.3581 4.28769 4.35758 4.30632 4.35099C4.32028 4.34613 4.32927 4.34196 4.33491 4.33727C4.34938 4.32598 4.36669 4.30897 4.37134 4.30168C4.37366 4.29786 4.37797 4.29161 4.38081 4.28762C4.38365 4.2838 4.38697 4.27634 4.3883 4.27113C4.38946 4.26592 4.39261 4.25672 4.39528 4.25047L4.39993 4.23918L4.40027 3.84822C4.40044 3.50431 4.40075 3.45674 4.40311 3.4524C4.40793 3.44233 4.40591 3.44267 4.47195 3.44233L4.53296 3.44215L4.53929 3.44858L4.54579 3.45517L4.54463 3.46872C4.54394 3.47618 4.54312 3.99388 4.54278 4.61938L4.54213 5.75651L4.54562 5.77212C4.55027 5.79383 4.55242 5.79975 4.56025 5.81413C4.56405 5.82108 4.56706 5.82769 4.56706 5.82871C4.56706 5.82978 4.57021 5.83413 4.57421 5.83809C4.57804 5.8421 4.58652 5.85114 4.59285 5.85822C4.59931 5.86534 4.60748 5.87319 4.61114 5.87562C4.6148 5.87805 4.61877 5.88133 4.6201 5.88291C4.62127 5.88462 4.63074 5.88999 4.6409 5.89523C4.65536 5.90253 4.66234 5.90513 4.67332 5.90683C4.70591 5.91169 4.74982 5.90858 4.7633 5.9001C4.76743 5.89749 4.77492 5.89383 4.77992 5.89191C4.78508 5.88982 4.79387 5.88445 4.79972 5.87975C4.81401 5.86794 4.8358 5.84555 4.83713 5.84125C4.83778 5.83916 4.83994 5.83639 4.84213 5.83481C4.84445 5.8334 4.84842 5.82683 4.85143 5.82039C4.85427 5.81396 4.85841 5.80581 4.86056 5.80253C4.86275 5.7992 4.86607 5.78948 4.86805 5.78082C4.87137 5.7659 4.87154 5.76155 4.87123 5.66534C4.87089 5.6105 4.87055 5.30185 4.8702 4.97963C4.8699 4.65742 4.86938 4.38936 4.86921 4.38416C4.8689 4.3732 4.87171 4.36608 4.87838 4.36105C4.88269 4.35776 4.88518 4.35758 4.92574 4.35793C4.94921 4.3581 4.96901 4.35862 4.96983 4.35914C4.97051 4.35949 4.97581 4.35862 4.9818 4.35706C4.99527 4.35359 5.00324 4.3548 5.00974 4.36157L5.01439 4.36642V5.06693V5.76743L5.0202 5.7789C5.02338 5.78517 5.02721 5.79592 5.02868 5.8027C5.03101 5.8131 5.03269 5.81639 5.03949 5.8244C5.04401 5.82961 5.04766 5.83498 5.04766 5.83656C5.04766 5.83792 5.04866 5.83899 5.04999 5.8386C5.0543 5.83758 5.08973 5.80321 5.12417 5.76675C5.21528 5.66986 5.28911 5.56867 5.31357 5.50722C5.32088 5.48897 5.32837 5.47473 5.34069 5.45601L5.34865 5.44368L5.34797 4.46211C5.34766 3.92218 5.34681 3.4767 5.34616 3.47219C5.34465 3.46195 5.34848 3.45014 5.35481 3.44493C5.35881 3.44163 5.3608 3.44163 5.39787 3.44267C5.42581 3.44337 5.44144 3.44319 5.45324 3.44146C5.47256 3.43886 5.48001 3.4399 5.48703 3.4465C5.49185 3.45084 5.49233 3.45257 5.49301 3.46299C5.49332 3.46941 5.49284 3.47931 5.49185 3.48486C5.48935 3.49771 5.48918 3.73902 5.49168 3.74961C5.49366 3.75847 5.49366 3.99787 5.49151 4.0069C5.49 4.01349 5.48918 4.22842 5.49051 4.23102C5.49099 4.23172 5.49185 4.23536 5.49233 4.23918C5.49715 4.27286 5.49681 4.27182 5.50382 4.27825C5.51144 4.28536 5.51493 4.29283 5.51493 4.30238C5.51493 4.31331 5.51278 4.31679 5.498 4.33015C5.47372 4.35237 5.46391 4.36227 5.45857 4.3706C5.45573 4.37495 5.45224 4.37896 5.45091 4.37947C5.44961 4.38015 5.44742 4.38309 5.44626 4.38642C5.44493 4.38953 5.44161 4.39422 5.43863 4.39665C5.43528 4.39977 5.43179 4.40586 5.42848 4.41469C5.42581 4.42198 5.42215 4.42979 5.42034 4.43171C5.41633 4.43606 5.41384 4.44284 5.41168 4.45427C5.41086 4.45896 5.40837 4.4668 5.40618 4.47166C5.39903 4.48744 5.39804 4.49456 5.39787 4.52996L5.3977 4.56399L5.40286 4.57077C5.4057 4.57461 5.40953 4.58117 5.41151 4.58552C5.41599 4.59559 5.42663 4.60463 5.44376 4.61367C5.46172 4.62305 5.47752 4.62565 5.49068 4.62147C5.49581 4.61972 5.50033 4.61763 5.50098 4.61661C5.50149 4.61554 5.50597 4.61294 5.51079 4.6109C5.52358 4.6048 5.54404 4.58416 5.54722 4.57371C5.55105 4.56139 5.5532 4.54629 5.5532 4.53311C5.5532 4.52305 5.55419 4.51853 5.5597 4.50514C5.56319 4.49631 5.5665 4.48727 5.56698 4.48484C5.569 4.47648 5.58894 4.45879 5.60474 4.45132C5.61072 4.44855 5.61972 4.4442 5.62471 4.44177C5.64116 4.43346 5.66493 4.43465 5.68456 4.44493C5.68955 4.44753 5.69622 4.4503 5.69903 4.45098C5.70518 4.45222 5.72516 4.47026 5.73029 4.47891C5.73213 4.48207 5.73579 4.48744 5.73846 4.49073C5.74113 4.49422 5.74393 4.50045 5.74492 4.50446C5.74609 4.50932 5.74711 4.62825 5.74759 4.86539L5.74858 5.21886L5.75857 5.22441C5.79465 5.24419 5.81695 5.27528 5.82707 5.31989C5.83124 5.33827 5.83158 5.34262 5.83158 5.3763C5.83158 5.39959 5.83042 5.42198 5.82858 5.43792C5.81743 5.53673 5.78836 5.66257 5.75508 5.75617L5.74776 5.77664V5.80858V5.84052L5.75525 5.8572C5.76339 5.87506 5.77304 5.88756 5.78268 5.8928C5.78586 5.89451 5.79017 5.89783 5.79232 5.90027L5.79615 5.9044L5.8281 5.88777C5.84571 5.87856 5.86883 5.86743 5.87946 5.86329C5.89376 5.85754 5.89944 5.85459 5.90009 5.85199C5.9006 5.85007 5.90207 5.84607 5.90327 5.84329C5.90443 5.84035 5.90607 5.83583 5.90723 5.83323C5.90857 5.82961 5.90908 5.66086 5.90908 5.17699C5.90891 4.49648 5.90925 4.51904 5.90241 4.50134C5.90142 4.49836 5.89944 4.48761 5.8981 4.47721C5.89626 4.46211 5.89461 4.45635 5.89061 4.44906C5.88777 4.44386 5.88412 4.43448 5.88247 4.42808C5.87998 4.41904 5.87782 4.41503 5.87348 4.41107C5.87033 4.40808 5.86599 4.40151 5.86366 4.39631C5.86151 4.39111 5.85836 4.38569 5.85686 4.38433C5.85535 4.38292 5.85135 4.37789 5.84838 4.37303C5.8452 4.36817 5.84007 4.36227 5.83689 4.36001C5.83357 4.35776 5.83059 4.35463 5.83008 4.3529C5.82957 4.35133 5.82509 4.34647 5.82009 4.3423C5.8151 4.33814 5.81096 4.33345 5.81096 4.33345C5.81096 4.33345 5.80812 4.33068 5.80464 4.32877C5.80115 4.32685 5.79417 4.32199 5.78918 4.31783C5.78418 4.31366 5.77721 4.30932 5.77355 4.3081C5.76657 4.30602 5.74841 4.29092 5.74492 4.28449C5.74212 4.27946 5.74229 4.26522 5.74509 4.25949C5.74626 4.25689 5.74776 4.24613 5.74841 4.23571C5.7491 4.22512 5.74961 4.00533 5.74975 3.74701C5.74975 3.3998 5.74927 3.27098 5.74776 3.2531C5.74609 3.2307 5.74544 3.22758 5.73962 3.2149C5.73596 3.20692 5.73247 3.19546 5.73114 3.18799C5.72882 3.17376 5.72765 3.17046 5.7218 3.16317C5.71965 3.16039 5.71667 3.15379 5.71517 3.14859C5.71349 3.14286 5.71052 3.13695 5.70785 3.13435C5.70535 3.13192 5.7017 3.12602 5.69971 3.1215C5.69786 3.11681 5.69338 3.10935 5.6899 3.10501C5.68624 3.1005 5.68206 3.09442 5.68059 3.0913C5.67461 3.07897 5.62953 3.03279 5.61688 3.02585C5.61391 3.02428 5.60891 3.02029 5.60559 3.01699C5.60241 3.01369 5.59927 3.01092 5.59858 3.01092C5.59578 3.01092 5.58364 3.00328 5.57782 2.99772C5.5743 2.9946 5.56948 2.99147 5.56698 2.99078C5.56435 2.99008 5.55669 2.98661 5.54988 2.98296C5.5414 2.97845 5.5334 2.97567 5.52492 2.97446C5.51644 2.97324 5.50929 2.97064 5.50231 2.96682C5.49616 2.96317 5.48785 2.96022 5.4807 2.95901C5.46473 2.95623 5.35296 2.95484 5.20563 2.95519C5.02386 2.95588 4.86473 2.95571 4.72838 2.95484C4.662 2.95432 4.6015 2.95467 4.59367 2.95536Z" fill="white"/>
<path d="M2.57438 3.54662C2.5699 3.5474 2.55578 3.55204 2.54314 3.55708C2.5307 3.56192 2.51857 3.56598 2.51638 3.56598C2.51423 3.56598 2.50859 3.56908 2.50377 3.57296C2.49912 3.57683 2.49164 3.58109 2.48747 3.58245C2.48316 3.58399 2.4752 3.58903 2.4697 3.59348C2.46423 3.59813 2.45757 3.60297 2.4549 3.60433C2.45227 3.60568 2.44711 3.60975 2.44328 3.61323C2.43962 3.61672 2.43463 3.62079 2.43231 3.62214C2.42435 3.62698 2.39776 3.65603 2.3778 3.68178C2.37015 3.69166 2.35203 3.72322 2.35022 3.72981C2.34971 3.73213 2.34622 3.73755 2.34274 3.74201C2.33925 3.74626 2.3356 3.75324 2.33461 3.7573C2.33361 3.76137 2.33013 3.76815 2.32712 3.77221C2.32398 3.77647 2.31947 3.78441 2.31714 3.78983C2.31482 3.79506 2.31167 3.80068 2.31017 3.80223C2.30867 3.80378 2.3047 3.81114 2.30153 3.8185C2.29838 3.82604 2.29404 3.83418 2.29206 3.83669C2.29025 3.83921 2.28673 3.84541 2.2844 3.85044C2.2776 3.86594 2.26728 3.88375 2.26014 3.89304C2.25635 3.89789 2.25252 3.90486 2.25153 3.90835C2.2505 3.91183 2.24736 3.91822 2.24452 3.92229C2.24172 3.92635 2.23772 3.93449 2.23557 3.9401C2.23342 3.94591 2.22976 3.95308 2.2274 3.95637C2.22525 3.95946 2.22128 3.96702 2.21879 3.97302C2.21629 3.97922 2.21165 3.98677 2.20864 3.99006C2.20549 3.99335 2.20184 3.99916 2.20051 4.00323C2.199 4.0071 2.19599 4.01252 2.19401 4.01523C2.19186 4.01794 2.18837 4.02492 2.18622 4.03073C2.1842 4.03653 2.17939 4.04525 2.17556 4.05009C2.1719 4.05493 2.16777 4.06054 2.16643 4.06287C2.1651 4.0652 2.16144 4.06849 2.1583 4.07042C2.15297 4.07352 2.142 4.07371 1.99146 4.07352L1.83026 4.07332L1.8035 4.0803C1.7751 4.08746 1.76844 4.09017 1.76362 4.09637C1.76194 4.0985 1.75648 4.10218 1.75149 4.10431C1.7465 4.10644 1.73918 4.11167 1.73553 4.11573C1.73173 4.11999 1.72374 4.12851 1.71793 4.13471C1.71212 4.14091 1.70579 4.14981 1.70364 4.15466C1.70149 4.1595 1.69797 4.1653 1.69565 4.16763C1.69284 4.17034 1.69001 4.17751 1.687 4.18855C1.68454 4.19784 1.68153 4.20578 1.6802 4.20636C1.67904 4.20674 1.67671 4.21139 1.67504 4.21623C1.67254 4.22398 1.67206 4.23134 1.67206 4.26619V4.30705L1.67904 4.32332C1.68269 4.33222 1.68669 4.34288 1.68785 4.34711C1.68902 4.3512 1.69233 4.35777 1.69517 4.36167C1.69797 4.36552 1.70248 4.37194 1.70514 4.37598C1.71345 4.38897 1.74004 4.41822 1.74701 4.42169C1.75067 4.42364 1.75699 4.42788 1.76078 4.43116C1.76478 4.43468 1.77076 4.43777 1.77408 4.43853C1.77742 4.4391 1.78607 4.443 1.79338 4.44686L1.80668 4.45385L2.03517 4.45442C2.26099 4.4548 2.2638 4.4548 2.27145 4.45095C2.27576 4.44881 2.28109 4.44705 2.28358 4.44705C2.28973 4.44705 2.29671 4.45171 2.29886 4.45713C2.30105 4.46255 2.30252 4.59074 2.30053 4.59749C2.29989 4.59963 2.29722 4.60315 2.29472 4.60525C2.29038 4.60853 2.28557 4.60877 2.20464 4.60815C2.05694 4.60701 1.8954 4.60739 1.78423 4.60915L1.67705 4.61067L1.6654 4.61766C1.65911 4.62151 1.65047 4.62598 1.6463 4.62732C1.64216 4.6287 1.63601 4.63255 1.63266 4.63607C1.62935 4.63954 1.62371 4.6442 1.62022 4.64629C1.6124 4.65096 1.58167 4.68734 1.57685 4.69781C1.57484 4.70209 1.57251 4.70922 1.57152 4.71388C1.57053 4.71836 1.56769 4.72454 1.56503 4.72763C1.56253 4.73053 1.55973 4.73557 1.55874 4.73867C1.55772 4.74176 1.55556 4.74856 1.55406 4.7536C1.55259 4.75864 1.54958 4.76521 1.5476 4.76811C1.54545 4.77101 1.54193 4.77914 1.5396 4.78633C1.53728 4.79327 1.53315 4.8024 1.53048 4.80664C1.526 4.81325 1.5245 4.81748 1.52084 4.83394C1.52016 4.83627 1.51736 4.84131 1.51418 4.84497C1.51052 4.84963 1.50806 4.85544 1.50673 4.86205C1.50557 4.86766 1.50222 4.87618 1.49924 4.88103C1.49624 4.88602 1.49176 4.8963 1.48944 4.90405C1.48694 4.91199 1.48311 4.92013 1.48096 4.92265C1.47881 4.92498 1.47546 4.93273 1.47365 4.93986C1.47149 4.94762 1.46784 4.95594 1.46435 4.96079C1.46117 4.96503 1.45851 4.96969 1.45851 4.97107C1.45851 4.97606 1.45154 4.99528 1.44788 5.00046C1.44573 5.00336 1.44207 5.01231 1.43957 5.02025C1.43708 5.02819 1.43428 5.03552 1.43312 5.03671C1.42929 5.04018 1.42396 5.05198 1.4228 5.05954C1.42215 5.06363 1.41914 5.07038 1.41617 5.07447C1.41299 5.07871 1.40933 5.08684 1.40783 5.09226C1.40468 5.10349 1.3987 5.11704 1.39703 5.11704C1.39703 5.11704 1.39388 5.12347 1.39139 5.13098C1.38425 5.15286 1.38391 5.15386 1.38209 5.15386C1.37994 5.15386 1.37211 5.1736 1.37211 5.17883C1.37211 5.18097 1.36945 5.1862 1.36631 5.19063C1.36313 5.19491 1.35933 5.20361 1.35766 5.20961C1.35451 5.22164 1.34935 5.23325 1.3472 5.23325C1.3457 5.23325 1.33722 5.25765 1.33722 5.26169C1.33722 5.26307 1.33507 5.26673 1.3324 5.26982C1.3294 5.27353 1.32608 5.28067 1.32427 5.28823C1.32225 5.29617 1.3186 5.30393 1.31494 5.30897C1.31163 5.31358 1.30896 5.31824 1.30896 5.31962C1.30896 5.32462 1.30199 5.34383 1.29898 5.34712C1.29734 5.34883 1.29433 5.35777 1.29218 5.36685C1.28569 5.39573 1.27789 5.41447 1.26792 5.42612C1.2631 5.43192 1.2591 5.43754 1.2591 5.43887C1.2591 5.44239 1.2498 5.46503 1.24799 5.46579C1.24615 5.46679 1.2375 5.49 1.2375 5.4939C1.2375 5.49542 1.23617 5.49813 1.2347 5.50008C1.22954 5.50608 1.22605 5.51345 1.22404 5.52272C1.22305 5.52758 1.21956 5.53514 1.21659 5.53937C1.21341 5.54365 1.21009 5.55084 1.2091 5.55526C1.20678 5.56515 1.19981 5.5818 1.19779 5.5818C1.19697 5.5818 1.19598 5.58332 1.19547 5.58508C1.19116 5.60097 1.18566 5.61605 1.18351 5.61781C1.18118 5.61976 1.18118 5.62247 1.18351 5.64397C1.18484 5.65714 1.186 5.67127 1.186 5.67531C1.186 5.6794 1.1875 5.68578 1.18914 5.68987C1.19861 5.71132 1.25363 5.77468 1.30981 5.8289C1.33989 5.85772 1.39819 5.90905 1.40103 5.90905C1.4027 5.90905 1.4286 5.87789 1.4286 5.87613C1.4286 5.87518 1.43161 5.87033 1.43527 5.86548C1.43893 5.86063 1.4419 5.85501 1.4419 5.8533C1.4419 5.84864 1.44921 5.83118 1.45222 5.82809C1.45369 5.82676 1.45721 5.81786 1.46018 5.80816C1.46319 5.79846 1.46668 5.79013 1.46801 5.78956C1.47064 5.78842 1.47847 5.76906 1.47847 5.76383C1.47847 5.76188 1.48113 5.75665 1.48428 5.75218C1.48745 5.74775 1.49094 5.74057 1.49193 5.73615C1.49425 5.72625 1.49774 5.71774 1.50191 5.71251C1.50355 5.71037 1.50721 5.70128 1.51004 5.69215C1.51288 5.68307 1.51667 5.67436 1.51835 5.67279C1.52016 5.67127 1.52351 5.66276 1.52583 5.65381C1.52898 5.6424 1.5313 5.63698 1.53414 5.63484C1.53663 5.63293 1.53913 5.62846 1.54012 5.62361C1.54442 5.60544 1.54545 5.60273 1.55092 5.59593C1.55406 5.59226 1.55655 5.5876 1.55655 5.58584C1.55655 5.57909 1.56206 5.56496 1.5667 5.55935C1.57152 5.55355 1.57849 5.53162 1.57867 5.52177C1.57884 5.51906 1.57784 5.50203 1.57668 5.48401C1.57186 5.41428 1.57966 5.36276 1.59978 5.32814C1.61274 5.30588 1.62654 5.29113 1.64647 5.27796C1.65645 5.27158 1.67456 5.26383 1.68519 5.2615C1.69465 5.25936 1.7033 5.24756 1.70778 5.23091C1.70962 5.22354 1.71328 5.21484 1.71594 5.21156C1.71844 5.20808 1.72223 5.19976 1.72442 5.19296C1.72924 5.17764 1.73372 5.17436 1.74933 5.17455C1.75531 5.17455 1.9499 5.17517 2.18171 5.17574C2.41355 5.17631 2.60397 5.17726 2.60496 5.17788C2.60595 5.17864 2.61111 5.17826 2.61627 5.17707C2.62157 5.17593 2.64235 5.17417 2.66248 5.17303C2.69303 5.17146 2.70003 5.17051 2.70485 5.16742C2.71962 5.15809 2.72546 5.15557 2.73523 5.15424C2.74357 5.15305 2.74805 5.15096 2.75553 5.14535C2.76066 5.14125 2.76914 5.13659 2.7743 5.13507C2.78011 5.13331 2.78462 5.1306 2.78677 5.12751C2.78858 5.1248 2.79456 5.11995 2.80006 5.11685C2.8057 5.11376 2.81219 5.1091 2.81452 5.10658C2.81684 5.10406 2.82132 5.1004 2.8245 5.09864C2.83031 5.09516 2.83461 5.09074 2.85724 5.0642C2.88082 5.0369 2.88396 5.03262 2.88813 5.02296C2.89045 5.01754 2.8936 5.0125 2.89493 5.01193C2.89726 5.01074 2.90125 5.00222 2.90341 4.99371C2.90392 4.99138 2.90723 4.98653 2.91072 4.98305C2.91554 4.9782 2.91756 4.97435 2.91902 4.9666C2.92019 4.96098 2.92401 4.9509 2.9275 4.94434C2.93201 4.93563 2.93433 4.92807 2.93584 4.9176C2.937 4.90966 2.93915 4.90096 2.94066 4.89825C2.94961 4.88141 2.95043 4.87694 2.95262 4.83204C2.95511 4.77429 2.95511 3.94785 2.95262 3.88646L2.95077 3.84386L2.94414 3.82857C2.93946 3.81791 2.93683 3.80901 2.9355 3.79894C2.93416 3.78848 2.93249 3.78286 2.92952 3.7788C2.92736 3.7757 2.92319 3.7664 2.92053 3.75808C2.91786 3.74994 2.91339 3.74046 2.91089 3.73736C2.90823 3.73407 2.90457 3.72748 2.90276 3.72245C2.89944 3.71315 2.88994 3.69786 2.87798 3.68217C2.86404 3.66397 2.83328 3.62911 2.82614 3.62349C2.822 3.6202 2.81585 3.61478 2.8125 3.6113C2.80919 3.60781 2.80321 3.60394 2.79955 3.60277C2.79572 3.60161 2.78944 3.59735 2.78578 3.59329C2.78096 3.58825 2.77597 3.58516 2.76999 3.58341C2.765 3.58206 2.75717 3.57799 2.75253 3.57431C2.74788 3.57063 2.74074 3.56695 2.73657 3.56598C2.73243 3.56502 2.7188 3.55998 2.70649 3.55514L2.68408 3.54604L2.63339 3.54546C2.60547 3.54526 2.57906 3.54565 2.57438 3.54662Z" fill="white"/>
<path d="M0.00233183 4.14535C0.00386929 4.15003 0.018554 4.20444 0.0353071 4.2662C0.0520601 4.32848 0.0667469 4.37852 0.0682843 4.37886C0.0762898 4.38053 0.159312 4.41785 0.185873 4.43175C0.299804 4.491 0.407321 4.56937 0.500629 4.66127C0.516587 4.67681 0.537211 4.69823 0.546489 4.70863L0.563241 4.72738L0.569975 4.70444C0.596006 4.61406 0.597807 4.52817 0.575116 4.45486C0.529734 4.30922 0.382032 4.20561 0.151571 4.1574C0.107462 4.14836 0.067276 4.14267 0.0105488 4.13748L0 4.13647L0.00233183 4.14535Z" fill="white"/>
<path d="M9.83067 4.13808C9.83147 4.13938 9.92178 4.25852 10.0313 4.40303C10.1409 4.54757 10.2312 4.66669 10.232 4.66785C10.2328 4.66896 10.1777 4.75965 10.0929 4.89693C9.95608 5.1179 9.95217 5.12402 9.94629 5.12469C9.93964 5.12565 9.3588 5.15976 9.35195 5.1596C9.3486 5.1596 9.30452 5.10706 9.12583 4.89045C9.00372 4.74238 8.90322 4.62174 8.90241 4.62242C8.8989 4.62548 8.88379 4.68949 8.87734 4.7288C8.85365 4.87072 8.86086 5.00811 8.89773 5.12628C8.94847 5.28893 9.05293 5.41616 9.20989 5.50669C9.35803 5.59218 9.55772 5.64393 9.795 5.6583C9.81773 5.65977 9.84106 5.6614 9.84654 5.66203L9.85694 5.66318L10.8839 6.96773C11.4487 7.68519 11.9115 8.27248 11.9123 8.27284C11.9139 8.27331 12.4046 7.67276 12.4091 7.66514C12.4105 7.66271 12.3758 7.61586 12.23 7.42363C12.0552 7.19312 12.0489 7.18518 12.045 7.18728C12.0336 7.19344 12.0321 7.19391 12.0303 7.19244C12.0293 7.19149 11.696 6.76728 11.2896 6.24968L10.5506 5.30851L10.5596 5.29183C10.639 5.14455 10.6809 4.97499 10.6739 4.82982C10.6621 4.58505 10.5224 4.3969 10.2577 4.26902C10.1514 4.21778 10.0133 4.17349 9.86867 4.14422C9.85086 4.14067 9.83478 4.13727 9.83264 4.13679C9.8299 4.13614 9.8295 4.13647 9.83067 4.13808Z" fill="white"/>
<path d="M7.06942 4.13816C7.02181 4.14221 6.95149 4.15384 6.90155 4.16582C6.86316 4.17526 6.80268 4.19533 6.76816 4.21017C6.67623 4.24963 6.61496 4.29466 6.56756 4.3574C6.50936 4.43412 6.48877 4.52724 6.50576 4.63718C6.50937 4.66162 6.52329 4.72032 6.52689 4.72658C6.52843 4.72927 6.53256 4.72571 6.54776 4.70868C6.64763 4.59721 6.79289 4.48809 6.93348 4.41945C6.94916 4.41171 6.97648 4.39939 6.99396 4.39214L7.02589 4.37881L7.05756 4.26144C7.07509 4.19668 7.08976 4.14221 7.09055 4.14002C7.09129 4.13799 7.09082 4.13647 7.08976 4.13647C7.08849 4.13664 7.07948 4.13749 7.06942 4.13816Z" fill="white"/>
<path d="M3.42601 4.13914C3.42553 4.14039 3.42577 4.1454 3.42693 4.15022C3.42789 4.15523 3.42881 4.24643 3.42881 4.35318C3.42881 4.53665 3.42905 4.54737 3.43306 4.549C3.4375 4.55097 3.46687 4.57153 3.47464 4.57834C3.4772 4.58067 3.48329 4.5855 3.48802 4.58906C3.49271 4.59262 3.49836 4.59784 3.50024 4.60087C3.50207 4.60373 3.50913 4.61106 3.51569 4.61695C3.52207 4.62284 3.53076 4.63074 3.53472 4.6343C3.53897 4.63808 3.54414 4.64396 3.5467 4.6477C3.54907 4.6513 3.55423 4.65683 3.55824 4.65986C3.56196 4.6629 3.56785 4.67058 3.57114 4.67686C3.57442 4.6831 3.57959 4.69044 3.58287 4.69294C3.58616 4.69544 3.59132 4.70278 3.59485 4.70906C3.59813 4.71547 3.60354 4.72281 3.60659 4.72531C3.61272 4.73015 3.61929 4.74394 3.61929 4.75162C3.61929 4.75413 3.62349 4.76107 3.62866 4.76717C3.63643 4.77609 3.63875 4.7811 3.64136 4.79327C3.64324 4.80152 3.64841 4.81598 3.65334 4.82529C3.65991 4.83816 3.66251 4.84637 3.66391 4.85924C3.66696 4.88358 3.67072 4.90699 3.67352 4.91828C3.67492 4.92364 3.67705 4.93203 3.67802 4.93668C3.68033 4.94599 3.67681 5.02308 3.67328 5.04522C3.67212 5.05256 3.66951 5.06472 3.66768 5.07206C3.66555 5.07939 3.66391 5.09156 3.66391 5.0989C3.66391 5.11392 3.6599 5.12552 3.65121 5.1368C3.64725 5.14216 3.64464 5.1495 3.64252 5.16057C3.63972 5.17722 3.63667 5.18385 3.62726 5.19241C3.62421 5.19509 3.62117 5.20028 3.62045 5.20405C3.61789 5.21565 3.6146 5.22176 3.60659 5.22962C3.60238 5.23388 3.59746 5.24104 3.59582 5.24552C3.59181 5.25571 3.58452 5.267 3.58196 5.267C3.58075 5.267 3.57679 5.27253 3.57278 5.27934C3.56809 5.28738 3.56268 5.29344 3.55752 5.2963C3.55283 5.29915 3.54767 5.30434 3.5453 5.30899C3.54317 5.31347 3.53946 5.31795 3.53685 5.31883C3.53453 5.31993 3.53028 5.32384 3.52767 5.32779C3.52159 5.33688 3.51386 5.34532 3.50541 5.35208C3.5014 5.35516 3.48778 5.3664 3.47484 5.37694C3.44668 5.40005 3.4448 5.40145 3.42881 5.41235C3.42176 5.417 3.41051 5.42487 3.40345 5.42987C3.3964 5.43471 3.38892 5.43866 3.38892 5.43866C3.38771 5.43866 3.38187 5.44204 3.37554 5.44635C3.36941 5.45065 3.36047 5.45509 3.35603 5.45654C3.35159 5.45777 3.34357 5.46207 3.33797 5.46602C3.33232 5.46976 3.32386 5.47406 3.31918 5.47569C3.31445 5.47709 3.30648 5.48105 3.30131 5.48443C3.29638 5.48763 3.28629 5.49176 3.27924 5.49321C3.27219 5.49479 3.26113 5.49892 3.2548 5.50213C3.24847 5.50551 3.23862 5.50929 3.23345 5.51034C3.21467 5.51412 3.20409 5.5175 3.20008 5.52093C3.19564 5.52466 3.17613 5.52985 3.16676 5.52985C3.16391 5.52985 3.15217 5.53323 3.14092 5.53718C3.12189 5.54399 3.11721 5.54487 3.08383 5.54772C3.06389 5.54953 3.04322 5.5522 3.03805 5.55365C3.03288 5.55506 3.01714 5.55756 3.00284 5.55936C2.98005 5.56222 2.96643 5.5624 2.8908 5.56152L2.8044 5.56059L2.78865 5.55488C2.77503 5.55005 2.76871 5.549 2.74451 5.54755C2.70809 5.54557 2.70553 5.54505 2.68486 5.53683C2.6752 5.53288 2.66419 5.52985 2.66019 5.52985C2.64729 5.52985 2.62826 5.52484 2.6158 5.5186C2.60832 5.51465 2.59938 5.51179 2.59233 5.51109C2.58412 5.51017 2.57847 5.50824 2.57094 5.50323C2.56413 5.49857 2.555 5.49497 2.54442 5.49264C2.53457 5.49031 2.52612 5.48693 2.52259 5.48408C2.51931 5.48157 2.51037 5.47727 2.5026 5.47441C2.49487 5.47173 2.4855 5.46708 2.48173 5.46405C2.47797 5.46084 2.4714 5.45759 2.46715 5.45654C2.46295 5.45548 2.45657 5.45206 2.45329 5.44902C2.45 5.44599 2.44343 5.44169 2.43899 5.43936C2.42629 5.43277 2.38287 5.40308 2.36148 5.38643C2.33892 5.36908 2.31125 5.34422 2.31125 5.34172C2.31125 5.34084 2.30608 5.33583 2.29995 5.33082C2.29362 5.32564 2.2856 5.31707 2.28213 5.31167C2.2786 5.30614 2.27343 5.3006 2.27058 5.29915C2.26614 5.29682 2.22924 5.2963 2.02003 5.29559C1.88499 5.29507 1.77391 5.29489 1.77275 5.29524C1.77179 5.29559 1.78565 5.30759 1.80376 5.32208C1.84133 5.35248 1.85824 5.3671 1.88852 5.39574C1.91667 5.42254 1.95406 5.46528 1.96275 5.48087C1.98458 5.51983 2.00544 5.54737 2.04562 5.58941C2.10223 5.64897 2.2079 5.74157 2.2276 5.74925C2.23161 5.75088 2.23914 5.75466 2.24431 5.75786C2.24948 5.76089 2.25837 5.76502 2.26402 5.76678C2.26991 5.76876 2.27836 5.77271 2.28329 5.77574C2.28797 5.7786 2.29927 5.78413 2.30816 5.78791C2.31685 5.79164 2.3267 5.79577 2.33004 5.79718C2.33332 5.79845 2.34105 5.80095 2.34737 5.80275C2.35375 5.80434 2.36264 5.80829 2.36737 5.8115C2.3723 5.81492 2.3805 5.81813 2.38756 5.81936C2.39412 5.82063 2.4047 5.82437 2.41151 5.82779C2.41856 5.83153 2.42982 5.8353 2.43851 5.83671C2.44744 5.83833 2.4587 5.84207 2.46691 5.84637C2.47724 5.85155 2.48381 5.85353 2.49395 5.85441C2.5024 5.85516 2.5153 5.85836 2.52964 5.86355C2.54418 5.86873 2.55524 5.87141 2.56132 5.87141C2.5761 5.87141 2.59677 5.87589 2.60711 5.88107C2.61817 5.88661 2.62966 5.88858 2.66231 5.89017C2.68979 5.89161 2.698 5.89306 2.72336 5.90036C2.74147 5.90576 2.74403 5.90593 2.7985 5.90769C2.87037 5.90984 2.95986 5.90967 3.02796 5.90734C3.08316 5.90536 3.07987 5.90593 3.11788 5.89517C3.12305 5.89377 3.14256 5.89144 3.16135 5.88999C3.20525 5.88678 3.20409 5.88696 3.22404 5.87927C3.23814 5.87374 3.24471 5.87246 3.26045 5.87141C3.27127 5.87088 3.28301 5.86891 3.28697 5.86728C3.30575 5.85942 3.31937 5.85533 3.33299 5.85353C3.34357 5.85208 3.35134 5.84958 3.36047 5.84457C3.37013 5.83921 3.37622 5.83741 3.38631 5.83636C3.40089 5.83513 3.40582 5.8335 3.41543 5.8274C3.41896 5.82529 3.42857 5.82169 3.43707 5.81953C3.44528 5.8176 3.45397 5.81417 3.45629 5.81202C3.46146 5.80776 3.48213 5.7999 3.48846 5.7999C3.49106 5.7999 3.49763 5.79665 3.50377 5.79274C3.50961 5.78879 3.51714 5.78505 3.52043 5.78431C3.52936 5.78272 3.54274 5.77737 3.54646 5.77394C3.54834 5.77236 3.55563 5.76876 3.56269 5.7659C3.56998 5.76322 3.57795 5.75909 3.58056 5.75694C3.58312 5.75483 3.58944 5.75141 3.59461 5.74943C3.59978 5.74732 3.60755 5.74337 3.61175 5.74069C3.616 5.73783 3.62349 5.73388 3.62866 5.73195C3.63382 5.72997 3.64228 5.72479 3.64769 5.72031C3.65285 5.716 3.65966 5.71192 3.66227 5.71117C3.66507 5.71064 3.67164 5.70709 3.67681 5.70348C3.68198 5.69975 3.69091 5.69474 3.6968 5.69206C3.7069 5.68776 3.77852 5.63733 3.78929 5.62697C3.79238 5.62429 3.80716 5.61229 3.82218 5.60048C3.8372 5.58871 3.85343 5.57491 3.85787 5.56973C3.86236 5.56455 3.86705 5.55989 3.8682 5.55936C3.86961 5.55866 3.87337 5.55418 3.87666 5.54917C3.87994 5.54417 3.88632 5.53718 3.89076 5.53362C3.90554 5.52146 3.91872 5.50802 3.92572 5.49747C3.92973 5.49176 3.9363 5.48443 3.94031 5.48122C3.94456 5.47802 3.94949 5.47173 3.95156 5.46743C3.95345 5.46299 3.9577 5.45706 3.9605 5.45403C3.96354 5.451 3.96943 5.44367 3.97388 5.43778C3.97813 5.43185 3.98469 5.42434 3.98822 5.42131C3.99198 5.4181 3.99551 5.41235 3.99643 5.40879C3.99855 5.39965 4.00372 5.39232 4.01169 5.38661C4.01546 5.38393 4.0185 5.38019 4.0185 5.37839C4.0185 5.37123 4.02579 5.35656 4.0326 5.35015C4.03661 5.34637 4.04197 5.33763 4.04482 5.33065C4.04738 5.32366 4.05351 5.31242 4.05796 5.30543C4.0624 5.29862 4.06781 5.28611 4.07018 5.27737C4.07322 5.26643 4.07674 5.25949 4.08191 5.25373C4.08756 5.24732 4.08969 5.24266 4.09109 5.23247C4.09225 5.22549 4.09766 5.20959 4.10307 5.19725C4.11128 5.17827 4.11292 5.17203 4.11384 5.15613C4.11528 5.13127 4.119 5.11642 4.12605 5.10426C4.13146 5.09547 4.13243 5.09086 4.13427 5.06314C4.13663 5.02379 4.13711 4.94063 4.13499 4.90308C4.13311 4.87 4.13055 4.85674 4.12277 4.83728C4.11973 4.82942 4.11596 4.81492 4.11456 4.80508C4.11176 4.784 4.10471 4.75949 4.09669 4.74354C4.09389 4.73731 4.09061 4.72764 4.08969 4.72211C4.08872 4.71547 4.08544 4.70779 4.08027 4.7008C4.07559 4.69421 4.07109 4.6842 4.06902 4.67616C4.06713 4.66865 4.06197 4.65666 4.05747 4.6495C4.05303 4.64234 4.04714 4.63092 4.04434 4.62411C4.04129 4.61713 4.03661 4.60909 4.03352 4.60606C4.02792 4.60013 4.0185 4.58317 4.0185 4.57852C4.0185 4.57689 4.0143 4.57153 4.00913 4.56617C4.00396 4.56099 3.9988 4.55365 3.99739 4.5497C3.99595 4.54579 3.99174 4.54008 3.98798 4.53683C3.98445 4.53362 3.97861 4.52611 3.97508 4.5204C3.9718 4.51447 3.96706 4.50806 3.96475 4.50608C3.96214 4.50411 3.95697 4.49769 3.95301 4.49176C3.94876 4.48588 3.94243 4.47854 3.93891 4.47569C3.93514 4.47266 3.92973 4.46673 3.92693 4.46229C3.92389 4.45781 3.91848 4.45153 3.91471 4.44815C3.9107 4.44476 3.90578 4.43883 3.90346 4.43475C3.90133 4.43062 3.89148 4.42113 3.88158 4.41362C3.87197 4.40593 3.86115 4.39609 3.85787 4.39166C3.85459 4.38718 3.84753 4.37931 3.84193 4.37431C3.8257 4.35946 3.72283 4.28184 3.70405 4.27004C3.69444 4.26413 3.68106 4.25555 3.67425 4.25072C3.6672 4.24607 3.66039 4.24232 3.65923 4.24232C3.65778 4.24232 3.65237 4.23928 3.64677 4.23535C3.64136 4.23159 3.63291 4.22712 3.62822 4.22569C3.62349 4.22408 3.61504 4.21979 3.60944 4.21603C3.60379 4.2121 3.59485 4.20762 3.58944 4.20584C3.58403 4.20405 3.57722 4.20047 3.57418 4.19815C3.57114 4.19583 3.56177 4.19082 3.55283 4.18742C3.54414 4.18384 3.53593 4.17955 3.53472 4.17776C3.53332 4.17598 3.52651 4.17329 3.51946 4.17186C3.51173 4.17007 3.50256 4.16614 3.49623 4.16203C3.48942 4.15755 3.48237 4.15451 3.47604 4.1538C3.46967 4.15291 3.46242 4.15004 3.45441 4.14468C3.442 4.13663 3.42857 4.13395 3.42601 4.13914Z" fill="white"/>
<path d="M15.0173 4.14857C14.8912 4.30353 14.4059 4.90462 14.4053 4.90675C14.4049 4.90821 14.4114 4.93905 14.4196 4.97512C14.4281 5.01123 14.435 5.04225 14.435 5.04425C14.435 5.0462 14.1306 5.41638 13.7588 5.86703L13.0823 6.6864L12.2021 7.85627C11.718 8.49977 11.3211 9.0269 11.3203 9.02779C11.3195 9.02868 11.31 9.02491 11.2989 9.0195C11.1544 8.94661 11.0171 8.92206 10.9291 8.9533C10.9109 8.95977 10.8945 8.96828 10.8794 8.97945C10.8588 8.99425 10.7719 9.08172 10.7022 9.15784C10.641 9.22462 10.5087 9.37524 10.4994 9.38858C10.4974 9.39163 10.4974 9.39598 10.4996 9.41131C10.5027 9.43457 10.5033 9.49284 10.5004 9.51792C10.4893 9.61607 10.455 9.69907 10.3972 9.76762C10.3477 9.82642 10.2815 9.87423 10.2005 9.9092C10.1749 9.92041 10.1159 9.94168 10.111 9.94168C10.1086 9.94168 9.45339 10.7912 9.45459 10.7925C9.45459 10.7925 9.46589 10.7948 9.47864 10.7968C9.6705 10.8272 9.8848 10.8781 10.0662 10.9366C10.0833 10.9422 10.1034 10.9485 10.1106 10.9508C10.2276 10.9884 10.42 11.0674 10.5045 11.1123C10.5526 11.1379 10.6125 11.1762 10.6572 11.2093L10.6814 11.2274L10.7204 11.1758C10.8824 10.9615 11.0458 10.7419 11.0726 10.7021C11.0918 10.6739 11.0935 10.6667 11.1003 10.5857C11.1088 10.4848 11.1191 10.4306 11.1409 10.3725C11.1981 10.2197 11.3253 10.1109 11.5235 10.0454C11.5368 10.0411 11.5453 10.0371 11.5481 10.0341C11.5604 10.0209 11.6303 9.94168 11.6606 9.90649C11.7224 9.83453 11.7707 9.77338 11.7929 9.73873C11.8127 9.70789 11.821 9.67164 11.8228 9.60974C11.8268 9.46435 11.7679 9.33447 11.6553 9.24102L11.6339 9.22334L11.8434 8.95348C11.9797 8.77756 12.2882 8.37348 12.7297 7.79242L13.4065 6.90109L14.027 6.04113C14.3681 5.5681 14.6489 5.18082 14.6507 5.18024C14.6525 5.17988 14.6856 5.17612 14.724 5.17178L14.7939 5.1642L15.0462 4.79149C15.1849 4.58655 15.3132 4.39716 15.3312 4.37062L15.3637 4.32227L15.1972 4.22935C15.1057 4.17831 15.03 4.13647 15.029 4.13647C15.028 4.13647 15.0227 4.14188 15.0173 4.14857Z" fill="white"/>
<path d="M0.016162 4.13753L0 4.13857L0.000663846 4.15536C0.0026122 4.21242 0.0129299 4.37935 0.0204576 4.4795C0.0486644 4.84977 0.0859495 5.09285 0.129832 5.19321C0.162378 5.26742 0.236238 5.41807 0.301464 5.543C0.425494 5.78057 0.56241 6.01094 0.676344 6.17401C0.769555 6.30718 0.851607 6.40576 0.929099 6.47749C0.956907 6.50309 1.11233 6.62941 1.1679 6.67163C1.33692 6.79968 1.5036 6.91241 1.67518 7.01486C2.13336 7.28831 2.60211 7.47134 3.0532 7.55314C3.07839 7.55774 3.87527 7.67945 3.89595 7.68192C3.90436 7.68297 3.978 7.53014 4.02171 7.42079C4.12895 7.15389 4.16168 6.93432 4.11687 6.7831C4.09619 6.71276 4.02538 6.56935 3.95303 6.45185C3.86216 6.30366 3.7674 6.18707 3.67977 6.11534C3.6335 6.0772 3.63562 6.07841 3.44747 6.00105C3.11285 5.86362 3.01552 5.82774 2.89388 5.79649C2.6932 5.74508 2.54207 5.68502 2.43331 5.61381C2.31017 5.53311 2.13358 5.36366 2.08319 5.278C2.07761 5.26828 2.06902 5.25362 2.06446 5.24533C2.02722 5.17924 1.86834 5.03883 1.78305 4.99661C1.74493 4.97751 1.68466 4.96653 1.62891 4.96849C1.57635 4.97027 1.54123 4.9812 1.51241 5.00489C1.48677 5.02589 1.47579 5.04798 1.47149 5.08686C1.46224 5.17308 1.51112 5.36986 1.5744 5.50147C1.60026 5.55497 1.61682 5.57797 1.64525 5.59932C1.67496 5.62158 1.70963 5.65799 1.82051 5.78235C2.013 5.99805 2.08017 6.07082 2.16307 6.15227C2.21497 6.2033 2.2333 6.21991 2.30694 6.28314C2.39134 6.3556 2.41458 6.37626 2.45054 6.41036C2.48092 6.4393 2.50912 6.47042 2.50673 6.47237C2.50673 6.47237 2.4822 6.45944 2.45333 6.44286C2.35622 6.3865 2.27421 6.34041 2.19088 6.29481C2.09589 6.24287 2.05781 6.22343 2.01561 6.20507C1.97966 6.18954 1.96004 6.17821 1.92989 6.15543C1.8922 6.12719 1.87197 6.10861 1.76215 6.00317C1.74258 5.98425 1.71588 5.95935 1.70295 5.94789C1.66097 5.9104 1.63405 5.87807 1.60283 5.82722C1.58516 5.7984 1.5628 5.75427 1.55439 5.73253L1.55071 5.72247L1.52144 5.70672C1.45555 5.67122 1.39289 5.6451 1.32745 5.62566C1.28999 5.61451 1.2508 5.59685 1.19244 5.56487C1.06305 5.4937 0.908241 5.37815 0.891857 5.34036C0.889909 5.3361 0.888005 5.32569 0.887341 5.31723C0.884108 5.27922 0.865599 5.17482 0.845983 5.08721C0.824684 4.99149 0.800994 4.91073 0.78399 4.87715C0.756005 4.82134 0.680417 4.67368 0.664033 4.64344C0.636712 4.59206 0.599029 4.52988 0.578129 4.50141C0.536815 4.44487 0.475885 4.38573 0.369522 4.29825C0.289197 4.23256 0.229995 4.18873 0.195101 4.16951C0.1475 4.14334 0.0898008 4.13293 0.016162 4.13753Z" fill="white"/>
<path d="M7.01189 4.13778C6.97546 4.14114 6.93928 4.15285 6.90977 4.17074C6.8512 4.20636 6.69999 4.33933 6.62595 4.42032C6.55452 4.49834 6.52306 4.55203 6.42785 4.75676C6.40864 4.7979 6.38687 4.84432 6.37954 4.85995C6.3554 4.91046 6.3388 4.96789 6.31523 5.08153C6.29622 5.17314 6.27465 5.30502 6.27465 5.33054C6.27465 5.34721 6.2602 5.3662 6.21925 5.40394C6.14917 5.46865 6.03756 5.54789 5.94948 5.59592C5.92217 5.61081 5.89286 5.62339 5.86201 5.63366C5.81093 5.65052 5.74581 5.68065 5.69257 5.71199L5.66566 5.7278L5.66229 5.7379C5.65459 5.75971 5.634 5.804 5.61776 5.83291C5.58849 5.88503 5.56513 5.91533 5.52239 5.95735C5.50851 5.97097 5.48576 5.99405 5.47192 6.00872C5.39435 6.0901 5.38046 6.10447 5.35832 6.12554C5.31001 6.17148 5.28331 6.19081 5.23858 6.21206C5.19877 6.23104 5.16336 6.25072 5.07728 6.3021C5.00067 6.34786 4.92525 6.3941 4.83599 6.45066C4.8095 6.46729 4.78691 6.48027 4.78691 6.48027C4.78393 6.47779 4.81857 6.43808 4.85976 6.39658C4.89041 6.36558 4.8942 6.36201 4.9706 6.29039C5.03551 6.22961 5.05371 6.21154 5.09685 6.1656C5.17048 6.08692 5.24509 5.99936 5.39886 5.81092C5.51702 5.6661 5.55007 5.628 5.57799 5.60497C5.58788 5.59696 5.59977 5.58512 5.60453 5.57872C5.64865 5.51968 5.70743 5.34882 5.7292 5.21624C5.74129 5.14213 5.74267 5.09163 5.73335 5.05897C5.72126 5.01717 5.68683 4.98757 5.63636 4.97585C5.58333 4.96362 5.49801 4.97446 5.4521 4.99945C5.37273 5.04234 5.22331 5.18733 5.19205 5.25168C5.1794 5.27772 5.16275 5.30572 5.14773 5.32614C5.07487 5.42519 4.94841 5.55159 4.85423 5.61895C4.75504 5.68988 4.61376 5.75118 4.43402 5.80117C4.34993 5.82459 4.27569 5.85241 4.13005 5.91516C4.03603 5.95573 3.77456 6.07343 3.76211 6.08087C3.7144 6.10961 3.65327 6.17113 3.5923 6.25142C3.56837 6.28316 3.54541 6.31577 3.54541 6.31808C3.54541 6.31912 3.5529 6.33171 3.56202 6.3459C3.63565 6.46163 3.70472 6.59866 3.75458 6.72823C3.77143 6.77221 3.78409 6.82646 3.78865 6.87536C3.79141 6.90283 3.79141 6.9711 3.78885 7.00297C3.77615 7.1558 3.72373 7.34899 3.64041 7.54893C3.62376 7.58864 3.59568 7.65177 3.5818 7.68047C3.58102 7.68173 3.582 7.68225 3.5844 7.68173C3.58636 7.68138 3.73756 7.65617 3.92044 7.62604C4.10331 7.59574 4.26718 7.56809 4.2846 7.56473C4.82749 7.45732 5.39671 7.17566 5.93304 6.74878C6.03459 6.66815 6.19528 6.52847 6.24518 6.47744C6.41043 6.30868 6.63389 5.93588 6.8575 5.45554C6.91351 5.33532 6.97249 5.19869 6.98319 5.16465C7.02039 5.04587 7.05324 4.78053 7.07701 4.40704C7.08491 4.28491 7.09223 4.14079 7.09065 4.13939C7.08768 4.13635 7.0372 4.13548 7.01189 4.13778Z" fill="white"/>
<path d="M0.729697 4.29285C0.653136 4.37917 0.590421 4.45158 0.590946 4.45374C0.59147 4.45716 1.06625 5.2667 1.09027 5.3049L1.09887 5.31829L1.11575 5.29899C1.23909 5.15871 1.18917 4.82707 0.971441 4.3428C0.9469 4.28799 0.873487 4.13812 0.870445 4.13648C0.870445 4.13648 0.806678 4.20652 0.729697 4.29285Z" fill="white"/>
<path d="M0 8.56818V12.4091H0.705382H1.41072V10.1967V7.98427H2.02626C2.40528 7.98427 2.65969 7.98495 2.68883 7.98597C3.20889 8.00527 3.59614 8.13095 3.95684 8.39772C4.05012 8.46671 4.16084 8.56161 4.25246 8.65075C4.34309 8.73886 4.44377 8.8496 4.54589 8.97314C4.56779 8.99957 4.58445 9.02044 4.64735 9.09934L4.66 9.11513L4.68273 9.11829C4.7374 9.12538 4.97429 9.16034 5.04806 9.17216C5.06955 9.17562 5.10452 9.18117 5.12543 9.1845C5.14655 9.18779 5.1773 9.19283 5.19374 9.1956C5.21044 9.19838 5.24921 9.20499 5.28016 9.2102C5.4339 9.23611 5.65215 9.27641 5.78457 9.30335C5.79783 9.30596 5.82498 9.31155 5.84486 9.31552C5.89751 9.32615 6.11717 9.37341 6.15131 9.38139C6.16739 9.38506 6.19636 9.39181 6.21561 9.39633C6.30244 9.41635 6.47726 9.45943 6.49375 9.46498C6.49697 9.46604 6.49999 9.46639 6.49999 9.46639C6.49999 9.46639 6.46743 9.41981 6.27695 9.15547C6.07295 8.87269 5.90396 8.64865 5.79684 8.51956C5.57801 8.25535 5.37641 8.06209 5.15878 7.90793C5.00446 7.79848 4.82039 7.7008 4.6166 7.62016L4.58185 7.60641V7.59215V7.57773L4.58846 7.57619C4.59189 7.57529 4.60796 7.57166 4.62404 7.56782L4.65318 7.56103L4.64012 7.55984C4.62805 7.5586 4.62425 7.55933 4.58507 7.56906C4.53742 7.58088 4.4641 7.59685 4.41567 7.60607C4.39777 7.60953 4.22432 7.63771 4.03 7.66878C3.83588 7.69991 3.67152 7.72701 3.66466 7.72893C3.65804 7.73086 3.6504 7.73205 3.64738 7.73171C3.64457 7.7312 3.63813 7.73154 3.63292 7.73243C3.62226 7.73448 3.60961 7.73222 3.60056 7.72667C3.59634 7.72407 3.51836 7.71105 3.24328 7.66691C3.04974 7.63595 2.87691 7.60782 2.85901 7.60432C2.53286 7.54212 2.20711 7.42617 1.87996 7.25567C1.63059 7.12585 1.37919 6.96371 1.14445 6.78176C1.0291 6.69207 0.879207 6.56451 0.832176 6.51568C0.668972 6.34637 0.473037 6.03528 0.26086 5.60842C0.193909 5.47373 0.114147 5.30101 0.0944341 5.24782C0.0645128 5.16649 0.0379799 5.01212 0.0148777 4.78463C0.0108689 4.74501 0.0090503 4.73267 0.00661196 4.73041C0.00483487 4.7287 0.00260308 4.72729 0.00161121 4.72729C0.000784658 4.72729 0 6.4557 0 8.56818Z" fill="white"/>
<path d="M12.7074 8.50253C12.602 8.62877 12.4911 8.76082 12.4613 8.79575C12.4125 8.85308 12.4073 8.85966 12.4094 8.86247C12.4108 8.8642 12.8276 9.40695 13.3357 10.0686C13.8437 10.7303 14.2621 11.2753 14.2656 11.2796L14.2717 11.2875L14.2634 11.3047C14.2101 11.4125 14.1763 11.5193 14.1621 11.6257C14.158 11.6556 14.1588 11.753 14.1631 11.7815C14.1814 11.9005 14.2286 11.9972 14.3126 12.0876C14.3697 12.149 14.445 12.2055 14.5344 12.2541C14.6472 12.3152 14.7892 12.3661 14.9295 12.3958C14.9609 12.4024 15.0012 12.4098 15.0024 12.409C15.0024 12.409 14.9131 12.2857 14.8033 12.1358L14.6038 11.8631L14.7485 11.652C14.8282 11.5359 14.8944 11.4399 14.8944 11.4399C14.8952 11.4392 15.0245 11.4352 15.182 11.4308C15.3395 11.4264 15.4765 11.4223 15.4867 11.4219L15.505 11.4209L15.7093 11.6772C15.8215 11.8182 15.9146 11.9334 15.9146 11.9334C15.9163 11.9334 15.9298 11.8749 15.9375 11.8331C15.9662 11.678 15.9585 11.5365 15.9153 11.4189C15.8594 11.2671 15.7492 11.1509 15.5788 11.0641C15.5293 11.0389 15.4514 11.0087 15.3901 10.9908C15.2647 10.9544 15.1363 10.9345 14.9894 10.9287L14.9444 10.927L14.2297 9.99892C13.8368 9.48841 13.5151 9.06971 13.5151 9.06971C13.5151 9.06971 13.5176 9.06736 13.5207 9.06582C13.524 9.0644 13.5265 9.06251 13.5265 9.06174C13.5265 9.06174 13.3991 8.90072 13.2436 8.70537C13.0878 8.51003 12.9471 8.33288 12.9308 8.31157C12.9144 8.2901 12.9001 8.27271 12.9001 8.27271C12.9001 8.27271 12.8128 8.37609 12.7074 8.50253Z" fill="white"/>
<path d="M4.73117 9.4576C4.73345 9.45919 4.74777 9.46922 4.76315 9.47974C4.88832 9.56553 5.01678 9.66288 5.12084 9.75049C5.38757 9.97542 5.53671 10.1686 5.55984 10.3189C5.56254 10.3366 5.56254 10.3775 5.55963 10.3939C5.55188 10.4408 5.52668 10.4844 5.48733 10.5198C5.48017 10.5263 5.4642 10.5387 5.4519 10.5473C5.39882 10.5852 5.3759 10.604 5.36503 10.6188C5.35214 10.636 5.36115 10.641 5.389 10.6319C5.40889 10.6255 5.42793 10.616 5.45721 10.5977C5.56683 10.5293 5.64979 10.4268 5.67949 10.323C5.68931 10.2887 5.69179 10.2696 5.69179 10.2301C5.69179 10.1927 5.69015 10.1773 5.68257 10.1466C5.68034 10.1376 5.67928 10.1298 5.67928 10.1298C5.67928 10.1298 5.75857 10.2143 5.85505 10.3181L6.03002 10.5068L6.35986 10.5062C6.54136 10.506 6.69809 10.5062 6.70854 10.5068L6.72737 10.5077L6.72387 10.5113C6.71612 10.5193 6.69602 10.5354 6.67841 10.5476C6.62082 10.5879 6.59748 10.6142 6.61922 10.6142C6.64728 10.6142 6.72594 10.5655 6.77059 10.5206L6.78391 10.5073L6.98158 10.5081C7.09037 10.5085 7.21086 10.5092 7.24916 10.5097L7.31922 10.5105L7.32474 10.5069C7.33582 10.4998 7.33397 10.4998 7.39645 10.5076C7.42451 10.511 7.55153 10.5125 7.62795 10.5102C7.65724 10.5093 7.68184 10.5081 7.68184 10.5081C7.68184 10.5081 7.53923 10.3603 7.3643 10.18L7.04613 9.85221L7.0318 9.84865C7.02401 9.84668 7.01006 9.84324 7.00105 9.84101C6.93242 9.82402 6.81589 9.79716 6.72244 9.77674C6.5647 9.74221 6.40166 9.70994 6.22155 9.67764C6.14373 9.66369 6.06954 9.65143 5.9921 9.63984C5.91774 9.62864 5.87085 9.62165 5.82821 9.61547C5.80281 9.61178 5.77252 9.60728 5.76064 9.60557C5.73767 9.60214 5.67806 9.59346 5.61924 9.58502C5.46686 9.56314 5.44798 9.56039 5.40518 9.55404C5.34497 9.54511 5.2667 9.5322 5.17675 9.51663C5.12514 9.50754 5.09337 9.50268 5.09337 9.50268C5.09337 9.50268 5.10302 9.51333 5.11553 9.52598C5.15935 9.57026 5.25275 9.66803 5.27306 9.6912L5.28001 9.69913L5.24744 9.6791C5.15362 9.62191 5.0434 9.56459 4.91966 9.50873C4.85512 9.47961 4.80903 9.46038 4.80166 9.45957C4.79778 9.45906 4.78405 9.45815 4.77115 9.45734C4.75822 9.45669 4.74305 9.45563 4.73732 9.45524L4.72729 9.45459L4.73117 9.4576Z" fill="white"/>
<path d="M7.12115 10.0637C7.32962 10.1776 7.49682 10.3217 7.59597 10.4733C7.62569 10.5186 7.64402 10.5533 7.66541 10.6048L7.67863 10.6363L7.67702 10.5976C7.67618 10.5762 7.67702 10.5207 7.67863 10.4741L7.68185 10.3895L7.65969 10.3659C7.59086 10.2927 7.48982 10.2147 7.3815 10.1509C7.33101 10.1211 7.25752 10.0835 7.24374 10.0802C7.22241 10.0754 7.14059 10.0561 7.11948 10.0513C7.08115 10.0421 7.08116 10.0419 7.12115 10.0637Z" fill="#1F294C"/>
<path d="M5.91463 10.6415C5.91771 10.6443 5.93786 10.6616 5.95974 10.6802C6.02832 10.7387 6.09421 10.7998 6.15781 10.8639C6.1972 10.9035 6.30109 11.0217 6.33143 11.0613C6.49992 11.2813 6.58983 11.4879 6.60729 11.6965C6.61076 11.7367 6.60883 11.8287 6.60385 11.8657C6.58461 12.0062 6.53602 12.1281 6.44998 12.2515C6.43114 12.2784 6.36544 12.3544 6.34431 12.3737L6.32993 12.3866L6.35103 12.3881C6.47262 12.3964 6.94362 12.4102 7.076 12.4091C7.10539 12.4089 7.09136 12.4082 7.03278 12.4072C6.8526 12.4039 6.47052 12.3901 6.46764 12.387C6.46764 12.387 6.47341 12.3809 6.48107 12.3743C6.50454 12.3536 6.54044 12.315 6.56482 12.2844C6.67452 12.1465 6.73674 11.9946 6.75136 11.8276C6.75384 11.7987 6.75384 11.7304 6.75136 11.6993C6.73484 11.4944 6.64454 11.288 6.47684 11.0714C6.44457 11.0297 6.3549 10.928 6.31243 10.8849C6.23714 10.8087 6.14703 10.7271 6.06213 10.6577L6.03851 10.6384L5.97377 10.6375L5.90906 10.6365L5.91463 10.6415Z" fill="white"/>
<path d="M9.18454 11.486C8.92236 11.7822 8.91561 11.79 8.8904 11.8219C8.85512 11.8668 8.85512 11.8658 8.88814 11.8411C8.99654 11.7596 9.11438 11.7118 9.26551 11.6881C9.3224 11.6791 9.34464 11.6775 9.4074 11.6775C9.47016 11.6775 9.4924 11.6791 9.54929 11.6881C9.70491 11.7125 9.82409 11.7619 9.93383 11.8471C10.0409 11.9305 10.1036 12.0208 10.136 12.1374C10.1468 12.1771 10.1506 12.2008 10.1522 12.2408C10.1542 12.2921 10.1486 12.3334 10.1329 12.3869C10.1293 12.399 10.1268 12.4091 10.1268 12.4091C10.1268 12.4091 10.1596 12.3718 10.1994 12.326C10.2393 12.2802 10.3537 12.1483 10.454 12.033C10.5543 11.9179 10.6364 11.8226 10.6364 11.8226C10.6364 11.8201 10.6026 11.7698 10.5885 11.751C10.4893 11.6197 10.3514 11.5067 10.181 11.4175C10.0137 11.3298 9.82659 11.2709 9.62957 11.2439C9.5646 11.235 9.51872 11.2313 9.4364 11.2282L9.41392 11.2273L9.18454 11.486Z" fill="white"/>
<path d="M9.19431 11.234C9.02217 11.2649 8.86932 11.3255 8.73499 11.4163C8.70037 11.4398 8.64469 11.4842 8.6147 11.5128C8.47697 11.6435 8.39641 11.7938 8.37219 11.9648C8.36752 11.9979 8.36686 12.0935 8.37114 12.1287C8.37962 12.1979 8.40152 12.2744 8.43129 12.3387C8.47421 12.4308 8.5403 12.5199 8.62152 12.595C8.66615 12.6364 8.7363 12.6883 8.79134 12.7207C8.8128 12.7333 8.87294 12.7653 8.88483 12.7703C8.89082 12.7728 8.68228 12.773 6.34729 12.7732H3.8031L3.82115 12.7642C3.90639 12.7219 3.99014 12.6602 4.05391 12.593C4.14977 12.4915 4.21118 12.3668 4.22478 12.2455C4.22605 12.2339 4.22797 12.2194 4.22902 12.2132C4.23182 12.1986 4.23182 12.1527 4.22902 12.1356C4.22797 12.128 4.225 12.1085 4.22268 12.0922C4.18207 11.806 3.91404 11.5657 3.55867 11.4968C3.29724 11.4462 3.03008 11.4891 2.81454 11.6163C2.76204 11.6472 2.69765 11.6963 2.6581 11.7354C2.55271 11.84 2.49042 11.9554 2.46769 12.0892C2.46214 12.1221 2.46214 12.2277 2.46769 12.2606C2.47552 12.3067 2.4885 12.3517 2.5055 12.3933C2.5667 12.5421 2.69639 12.6752 2.86301 12.7606L2.88596 12.7723L2.03386 12.7732L1.18176 12.774L1.40539 12.8167L1.62897 12.8592L1.86785 12.8565L2.10677 12.8536L2.19966 12.8785C2.25089 12.8921 2.29106 12.9037 2.29106 12.9037C2.29018 12.9039 2.2226 12.9052 2.14078 12.9066C2.05895 12.9081 1.97201 12.9096 1.94736 12.9103L1.90273 12.9115L2.13527 12.9556L2.36777 13L7.68397 12.9997L12.9999 12.9992L12.7098 12.9439C12.5502 12.9135 12.4176 12.8883 12.4152 12.888C12.4129 12.8876 12.4201 12.8899 12.4312 12.8932L12.4514 12.8988L12.441 12.899C12.4354 12.8992 12.3457 12.9007 12.242 12.9026L12.0533 12.9061L11.9123 12.8807C11.8348 12.8668 11.7704 12.8545 11.7704 12.8545C11.7704 12.8545 11.7853 12.8538 11.8044 12.8536C11.8788 12.8535 12.2038 12.8493 12.2048 12.8486C12.2048 12.8486 12.1175 12.831 12.0097 12.8105L11.8137 12.7732H10.8871H9.96034L9.96777 12.7694C10.0169 12.7456 10.0755 12.7121 10.1155 12.6851C10.1418 12.6673 10.1933 12.6268 10.2194 12.6034C10.3389 12.4964 10.4216 12.3671 10.4596 12.2277C10.4745 12.1735 10.4843 12.1032 10.4843 12.0505C10.4843 12.001 10.4749 11.93 10.4615 11.8805L10.456 11.8591L10.4502 11.8654C10.4352 11.882 10.2356 12.1161 10.2331 12.1205C10.2313 12.1231 10.2285 12.1332 10.2273 12.143C10.2194 12.1959 10.1967 12.2603 10.1665 12.3155C10.0823 12.4686 9.92209 12.5915 9.72526 12.654C9.63321 12.6831 9.54268 12.7005 9.45342 12.7061C9.41876 12.7083 9.33628 12.7073 9.30463 12.7043C9.11314 12.6861 8.94096 12.6194 8.81026 12.5122C8.70186 12.4236 8.62873 12.3136 8.59792 12.1927C8.58581 12.1446 8.58323 12.1231 8.58305 12.0673C8.58305 12.0031 8.58773 11.9702 8.60557 11.9131C8.65426 11.7561 8.77494 11.6203 8.94481 11.5316C8.9601 11.5235 8.97711 11.5146 8.9824 11.5119C8.99114 11.5075 9.0077 11.4893 9.11335 11.3676C9.18006 11.2911 9.23448 11.2278 9.23448 11.2278C9.23448 11.2268 9.23408 11.2268 9.19431 11.234ZM3.43095 11.6498C3.69129 11.6783 3.90259 11.8158 3.9859 12.0107C4.02756 12.1079 4.03245 12.2166 3.99949 12.3164C3.95058 12.4656 3.82137 12.5917 3.6471 12.6605C3.57887 12.6875 3.49446 12.7088 3.42221 12.7177C3.28723 12.7342 3.15102 12.7182 3.02666 12.6715C2.83665 12.6001 2.69892 12.4613 2.65534 12.2979C2.63878 12.2361 2.63685 12.1638 2.65005 12.1001C2.67978 11.9556 2.78757 11.8238 2.94313 11.7418C3.03856 11.6914 3.1529 11.6578 3.25772 11.649C3.27005 11.6481 3.28299 11.6469 3.28639 11.6465C3.30296 11.6447 3.40691 11.6471 3.43095 11.6498ZM9.10334 12.848C9.14373 12.858 9.16755 12.8629 9.21725 12.8715C9.23557 12.8747 9.26 12.8797 9.27167 12.8831L9.29296 12.8888L9.28251 12.8889C9.27701 12.8891 9.18731 12.8906 9.08359 12.8925L8.89484 12.896L8.75392 12.8706C8.67633 12.8567 8.61195 12.8444 8.61195 12.8444C8.61195 12.8444 8.62917 12.8437 8.65124 12.8436C8.67336 12.8434 8.76603 12.8424 8.85721 12.8414C8.94839 12.8402 9.03301 12.839 9.0449 12.839C9.06615 12.8387 9.06829 12.839 9.10334 12.848ZM6.15536 12.8701C6.20637 12.8839 6.24715 12.8952 6.24566 12.8953C6.24418 12.8957 6.1547 12.8974 6.04695 12.8992L5.85095 12.9027L5.71007 12.8773C5.63271 12.8634 5.56828 12.8511 5.56828 12.8511C5.56828 12.8511 5.5855 12.8505 5.60761 12.8503C5.62973 12.8501 5.7224 12.8491 5.81358 12.8481C5.90476 12.8469 5.99804 12.8458 6.02081 12.8456L6.06225 12.8454L6.15536 12.8701ZM10.8611 12.8701C10.9121 12.8839 10.9529 12.8952 10.9514 12.8953C10.95 12.8957 10.8605 12.8974 10.7527 12.8992L10.5567 12.9027L10.4158 12.8773C10.3384 12.8634 10.2741 12.8511 10.2741 12.8511C10.2741 12.8511 10.2913 12.8505 10.3134 12.8503C10.3355 12.8501 10.4281 12.8491 10.5193 12.8481C10.6105 12.8469 10.7038 12.8458 10.7265 12.8456L10.768 12.8454L10.8611 12.8701ZM7.73244 12.8735C7.78345 12.8872 7.82423 12.8985 7.82275 12.8987C7.82126 12.899 7.73178 12.9007 7.62404 12.9026L7.42808 12.9061L7.28716 12.8807C7.20979 12.8668 7.14536 12.8545 7.14536 12.8545C7.14536 12.8545 7.16258 12.8538 7.1847 12.8536C7.20682 12.8535 7.29949 12.8525 7.39067 12.8515C7.48185 12.8503 7.57513 12.8491 7.5979 12.8489L7.63934 12.8488L7.73244 12.8735ZM4.82056 12.8752C4.87157 12.8889 4.91235 12.9002 4.91086 12.9004C4.90938 12.9007 4.8199 12.9024 4.71216 12.9043L4.5162 12.9078L4.37528 12.8824C4.29791 12.8684 4.2337 12.8565 4.2337 12.8565C4.2337 12.8565 4.28366 12.8553 4.34529 12.8547C4.40692 12.854 4.49959 12.8528 4.55104 12.8521C4.60248 12.8516 4.66329 12.851 4.68602 12.8508L4.72745 12.8505L4.82056 12.8752ZM3.16693 12.8597C3.22389 12.8686 3.28661 12.874 3.33719 12.874H3.36503L3.42028 12.8891C3.46919 12.9024 3.47431 12.904 3.46513 12.904C3.45962 12.9043 3.36993 12.9057 3.2662 12.9076L3.07746 12.9111L2.93653 12.8858C2.85895 12.8718 2.79456 12.8596 2.79456 12.8596C2.79456 12.8596 2.81519 12.8587 2.84133 12.8587C2.86747 12.8585 2.92827 12.8579 2.97609 12.8574C3.14377 12.8552 3.13804 12.855 3.16693 12.8597Z" fill="white"/>
<path d="M3.50205 11.8185C3.41972 11.8227 3.35229 11.8318 3.28895 11.8472C3.02783 11.9106 2.89749 12.0577 2.97846 12.1971C3.00587 12.2443 3.05642 12.2867 3.12823 12.3226C3.21987 12.3685 3.3292 12.3962 3.4586 12.4064C3.50454 12.4099 3.58641 12.4099 3.63235 12.4064C3.7618 12.3962 3.87108 12.3685 3.96277 12.3226C4.0302 12.2889 4.07619 12.2518 4.10591 12.2074C4.14179 12.1538 4.14616 12.0963 4.11823 12.041C4.06039 11.9256 3.86878 11.839 3.63235 11.8211C3.60381 11.819 3.52443 11.8174 3.50205 11.8185Z" fill="white"/>
<path d="M9.40306 11.2285C9.28598 11.2396 9.17735 11.2832 9.08509 11.3564C9.05913 11.3768 9.01003 11.4263 8.99036 11.4519C8.94759 11.5073 8.91703 11.5633 8.89582 11.6255C8.83012 11.8187 8.86621 12.0273 8.99342 12.1877C9.01384 12.2135 9.05932 12.2589 9.08489 12.2792C9.19698 12.3681 9.33299 12.4136 9.47277 12.4088C9.60301 12.4044 9.72162 12.3606 9.82436 12.2792C9.84977 12.2589 9.89541 12.2133 9.91563 12.1879C10.0044 12.0757 10.0499 11.9396 10.0451 11.7997C10.0407 11.6696 9.99681 11.5502 9.91583 11.4481C9.89541 11.4223 9.84993 11.3768 9.82416 11.3564C9.73823 11.2881 9.63969 11.2461 9.53007 11.2312C9.50352 11.2276 9.42941 11.226 9.40306 11.2285Z" fill="white"/>
</svg>
