<svg width="101" height="44" viewBox="0 0 101 44" fill="none" xmlns="http://www.w3.org/2000/svg">
<g clip-path="url(#clip0_6_2)">
<path d="M41.0357 0.0132263C41.0158 0.0331747 40.9623 0.0747001 40.9492 0.0808067C40.9428 0.0836565 40.9375 0.089356 40.9375 0.089356C40.9375 0.0913915 40.9083 0.114597 40.8733 0.14106C40.8378 0.167522 40.7965 0.199276 40.7809 0.211897C40.7551 0.233066 40.7313 0.250165 40.653 0.304311C40.6107 0.333623 40.5266 0.396725 40.4653 0.445578C40.3875 0.507459 40.3686 0.521301 40.3632 0.521301C40.3603 0.521301 40.3355 0.539214 40.3083 0.560791C40.281 0.582775 40.2417 0.612494 40.2203 0.62715C40.1716 0.660533 40.1045 0.710608 40.0331 0.765975C40.0024 0.789995 39.9664 0.818085 39.9528 0.828263C39.9159 0.857168 39.8245 0.923527 39.7846 0.950804C39.7423 0.980116 39.6518 1.04688 39.6149 1.0766C39.5842 1.10103 39.5103 1.15517 39.4588 1.191C39.4393 1.20443 39.4087 1.22764 39.3907 1.24229C39.3727 1.25695 39.3455 1.27812 39.3294 1.28911C39.273 1.32901 39.203 1.38153 39.1554 1.4202C39.1286 1.44178 39.0951 1.46783 39.081 1.47801C39.0669 1.48819 39.045 1.50447 39.0323 1.51465C39.0197 1.52483 38.993 1.54396 38.9735 1.5574C38.9098 1.60096 38.7829 1.69419 38.7333 1.73368C38.7104 1.752 38.6842 1.77154 38.6501 1.79556C38.6292 1.81022 38.5947 1.83627 38.5728 1.85378C38.551 1.87128 38.5242 1.89164 38.5135 1.89856C38.4493 1.9409 38.3822 1.99097 38.2908 2.06507C38.2611 2.08949 38.2339 2.10904 38.231 2.10904C38.2281 2.10904 38.2193 2.11555 38.2125 2.12328C38.2052 2.13102 38.1926 2.14038 38.1838 2.14405C38.1658 2.15219 38.1265 2.17987 38.0739 2.22262C38.0535 2.23931 38.0273 2.25926 38.0151 2.2674C38.0029 2.27554 37.9835 2.28979 37.9718 2.29834C37.9597 2.3073 37.9378 2.32358 37.9232 2.33457C37.9081 2.34516 37.876 2.36999 37.8517 2.38953C37.8274 2.40867 37.7914 2.43554 37.772 2.44897C37.7525 2.46241 37.7141 2.49091 37.6869 2.51207C37.6601 2.53324 37.6193 2.56337 37.5969 2.57925C37.5425 2.61711 37.4622 2.67614 37.4433 2.69243C37.4345 2.69975 37.4243 2.7083 37.4199 2.71156C37.4156 2.71482 37.4024 2.72499 37.3912 2.73395C37.3796 2.74291 37.3528 2.76204 37.3319 2.7767C37.311 2.79135 37.2775 2.817 37.2565 2.83369C37.2361 2.85038 37.2108 2.86952 37.2001 2.87644C37.1646 2.89883 37.0902 2.95257 37.0596 2.97862C37.0489 2.98758 37.0329 2.99857 37.0241 3.00264C37.0154 3.00712 37.0086 3.01323 37.0086 3.01323C37.0086 3.01649 36.8865 3.10809 36.8354 3.1431C36.8175 3.15531 36.7893 3.17648 36.7727 3.19032C36.7562 3.20376 36.7285 3.22493 36.7115 3.23714C36.6575 3.27582 36.5845 3.33078 36.5437 3.36416C36.5218 3.38166 36.4985 3.39917 36.4922 3.40324C36.4756 3.4122 36.4343 3.44273 36.3745 3.48914C36.3472 3.51031 36.3079 3.53962 36.2865 3.55428C36.2656 3.56894 36.2252 3.59784 36.197 3.61901C36.1493 3.65402 36.1314 3.66786 36.0847 3.70532C36.0754 3.71305 36.0599 3.72445 36.0506 3.73056C36.0297 3.74481 35.9466 3.80832 35.9266 3.82542C35.9184 3.83234 35.9023 3.84374 35.8911 3.85066C35.8712 3.86246 35.7847 3.92557 35.7428 3.95854C35.7317 3.96709 35.7166 3.97686 35.7093 3.98012C35.702 3.98337 35.6957 3.98745 35.6957 3.98948C35.6957 3.99315 35.5863 4.07579 35.5255 4.11813C35.506 4.13156 35.4803 4.15029 35.4681 4.16006C35.4229 4.19589 35.347 4.25329 35.3188 4.27283C35.3028 4.28423 35.2634 4.31395 35.2313 4.3396C35.1992 4.36525 35.1622 4.39415 35.1486 4.40433C35.1355 4.41451 35.1122 4.43201 35.0971 4.44341C35.082 4.45481 35.0562 4.47313 35.0397 4.48453C34.9658 4.53501 34.8467 4.62213 34.8151 4.649C34.7966 4.66447 34.7606 4.69134 34.711 4.72676C34.695 4.73816 34.6755 4.75241 34.6672 4.75892C34.6595 4.76503 34.6395 4.77887 34.623 4.78905C34.6069 4.79923 34.5904 4.81103 34.5865 4.8147C34.5792 4.82202 34.4834 4.89571 34.4343 4.93154C34.4188 4.94334 34.3925 4.9637 34.376 4.97713C34.3342 5.01174 34.2457 5.07688 34.2403 5.07688C34.235 5.07688 34.1854 5.11229 34.1508 5.1412C34.1363 5.15301 34.0881 5.18924 34.0434 5.22221C33.9986 5.25478 33.9437 5.29672 33.9208 5.31504C33.898 5.33336 33.8717 5.3529 33.8625 5.3586C33.8533 5.3643 33.825 5.38547 33.8007 5.40501C33.7511 5.4449 33.7195 5.46852 33.6952 5.48399C33.6529 5.51045 33.5479 5.58821 33.51 5.62078C33.473 5.65253 33.3913 5.71197 33.366 5.7254C33.3582 5.72988 33.3519 5.7364 33.3519 5.7364C33.3519 5.7364 33.3373 5.74902 33.3193 5.76001C33.3009 5.77141 33.2809 5.78525 33.2741 5.79136C33.2625 5.80194 33.1876 5.85934 33.1244 5.90698C33.1073 5.9196 33.0728 5.94606 33.048 5.96641C33.0227 5.98636 32.9882 6.01323 32.9707 6.02544C32.9532 6.03766 32.9269 6.05679 32.9123 6.06819C32.8978 6.07918 32.8715 6.09872 32.8535 6.11094C32.7738 6.16631 32.6785 6.23674 32.605 6.29414C32.5807 6.31327 32.5447 6.33973 32.5258 6.35317C32.5063 6.3666 32.4791 6.38574 32.4655 6.39592C32.4514 6.40609 32.4276 6.42238 32.4125 6.43256C32.3896 6.44721 32.3843 6.45291 32.3843 6.46268V6.47408L32.4173 6.47123C32.4353 6.4696 32.9576 6.46838 33.578 6.46879C34.1985 6.46879 34.7159 6.46797 34.7275 6.46635C34.7494 6.4639 34.7596 6.4578 34.8326 6.40162C34.9079 6.3434 35.0047 6.27297 35.0305 6.2575C35.0548 6.24284 35.1749 6.15246 35.2464 6.09547C35.2736 6.07348 35.3076 6.04784 35.3217 6.03766C35.3358 6.02748 35.3577 6.0112 35.3704 6.00102C35.3825 5.99084 35.4068 5.97293 35.4239 5.96153C35.525 5.89191 35.6004 5.83655 35.6786 5.77507C35.7394 5.72703 35.7735 5.7022 35.7978 5.68958C35.808 5.68429 35.8177 5.67777 35.8197 5.67533C35.8211 5.67329 35.8411 5.65823 35.8639 5.64276C35.8863 5.62688 35.9262 5.59676 35.9519 5.57599C36.0458 5.50149 36.2568 5.34394 36.2928 5.32236C36.3045 5.31544 36.3434 5.28694 36.3798 5.25926C36.4158 5.23198 36.4494 5.20715 36.4537 5.20512C36.4581 5.20267 36.4824 5.18313 36.5077 5.16115C36.533 5.13957 36.5559 5.12166 36.5588 5.12166C36.5612 5.12166 36.585 5.10456 36.6108 5.0838C36.657 5.04756 36.6842 5.02761 36.7504 4.98202C36.7674 4.97062 36.8189 4.93276 36.8646 4.89897C36.9541 4.83179 36.9541 4.83179 36.9735 4.81551C36.992 4.79963 37.0372 4.76706 37.0572 4.75526C37.0664 4.74956 37.0888 4.73287 37.1068 4.7178C37.1248 4.70315 37.1544 4.68076 37.1724 4.66854C37.2074 4.64534 37.3168 4.56392 37.3538 4.53379C37.366 4.52402 37.382 4.51343 37.3893 4.51018C37.3966 4.50692 37.4326 4.48086 37.4686 4.45237C37.5045 4.42346 37.5464 4.39252 37.5619 4.38275C37.5955 4.36199 37.7078 4.2769 37.7725 4.22357C37.7982 4.2024 37.8211 4.1853 37.8235 4.1853C37.8259 4.1853 37.8493 4.1682 37.8751 4.14744C37.9008 4.12709 37.9354 4.10062 37.9519 4.08963C37.9679 4.07823 37.9918 4.06195 38.0044 4.05258C38.017 4.04363 38.0341 4.03223 38.0418 4.02694C38.0501 4.02205 38.0686 4.00821 38.0832 3.9964C38.1235 3.96424 38.1892 3.91579 38.2067 3.90521C38.2227 3.89544 38.2966 3.83844 38.3526 3.79244C38.3715 3.77697 38.4022 3.75458 38.4206 3.74277C38.4386 3.73137 38.4702 3.70898 38.4907 3.69392C38.5106 3.67886 38.5417 3.65565 38.5592 3.64222C38.5957 3.61535 38.6326 3.58726 38.6715 3.55794C38.7304 3.51316 38.7965 3.46553 38.8164 3.45332C38.8359 3.44192 38.8763 3.41179 38.9536 3.35154C38.9686 3.34014 38.9842 3.33037 38.9842 3.33037C38.9842 3.33037 38.9998 3.31938 39.0153 3.30635C39.0309 3.29332 39.0537 3.27541 39.0654 3.26727C39.0776 3.25912 39.1092 3.2351 39.1359 3.21434C39.186 3.17526 39.2205 3.15002 39.2774 3.11053C39.3202 3.08081 39.4126 3.01201 39.4389 2.99002C39.4505 2.98025 39.4637 2.9717 39.468 2.97048C39.4724 2.96926 39.4816 2.96153 39.488 2.95379C39.4943 2.94606 39.5074 2.93547 39.5171 2.93059C39.5269 2.9257 39.5376 2.91837 39.541 2.9143C39.5444 2.91023 39.559 2.89964 39.5726 2.89069C39.5867 2.88173 39.611 2.86504 39.627 2.85364C39.6431 2.84224 39.6703 2.82311 39.6878 2.8113C39.7053 2.7995 39.735 2.77751 39.7535 2.76286C39.8157 2.714 39.8551 2.68388 39.8872 2.66067C39.9047 2.64805 39.9212 2.63584 39.9236 2.6338C39.9266 2.63136 39.9339 2.62566 39.9402 2.62077C39.9465 2.61589 39.963 2.60245 39.9771 2.59146C40.0092 2.56541 40.0549 2.53284 40.0768 2.51981C40.0943 2.50963 40.2441 2.3989 40.2567 2.38709C40.2703 2.37406 40.3443 2.31992 40.4274 2.2617C40.4464 2.24827 40.4833 2.22058 40.5096 2.20063C40.5354 2.18028 40.5957 2.1355 40.6428 2.10089C40.6905 2.06629 40.7527 2.01947 40.7819 1.99708C40.8436 1.94904 40.8787 1.92339 40.8942 1.91484C40.9005 1.91118 40.9258 1.89245 40.9496 1.8725C41.0124 1.82161 41.0236 1.81591 41.0644 1.81591H41.098L41.1398 1.84726C41.1626 1.86477 41.202 1.89449 41.2273 1.91362C41.3032 1.97184 41.3231 1.98609 41.3435 1.99749C41.3542 2.00319 41.3683 2.01336 41.3751 2.01947C41.3907 2.03413 41.4836 2.10334 41.5307 2.1355C41.5502 2.14893 41.5886 2.17743 41.6158 2.1986C41.6426 2.21977 41.68 2.24745 41.6985 2.25967C41.7301 2.28084 41.7529 2.29793 41.7996 2.33539C41.8108 2.34435 41.856 2.37936 41.9003 2.41315C41.9445 2.44694 41.9859 2.47951 41.9927 2.48561C41.9995 2.49172 42.017 2.50434 42.0316 2.5133C42.0617 2.53202 42.1084 2.565 42.1308 2.58332C42.139 2.59024 42.1556 2.60042 42.1677 2.60652C42.1799 2.61263 42.194 2.62281 42.1993 2.62973C42.2047 2.63665 42.2129 2.64357 42.2178 2.64479C42.2222 2.64601 42.2319 2.65375 42.2392 2.66189C42.247 2.67003 42.2557 2.67858 42.2596 2.68062C42.263 2.68225 42.2893 2.70179 42.318 2.72337C42.3685 2.76082 42.3987 2.7828 42.4716 2.83288C42.4901 2.8455 42.5241 2.87115 42.547 2.88947C42.5698 2.90819 42.5961 2.92814 42.6053 2.93425C42.6272 2.94891 42.6423 2.9599 42.7118 3.01486C42.7673 3.05842 42.8363 3.10931 42.8713 3.1317C42.881 3.13821 42.899 3.15083 42.9117 3.1602C42.9243 3.16997 42.9482 3.18666 42.9652 3.19806C42.9817 3.20905 43.0157 3.23429 43.0401 3.25342C43.0644 3.27297 43.1203 3.31612 43.1645 3.34991C43.2088 3.38329 43.2501 3.41586 43.2569 3.42197C43.2637 3.42808 43.2812 3.4407 43.2958 3.44965C43.3265 3.46879 43.3731 3.50176 43.395 3.52008C43.4033 3.527 43.414 3.53433 43.4184 3.53637C43.4227 3.5384 43.449 3.55754 43.4767 3.57911C43.554 3.63937 43.6304 3.69636 43.6702 3.72323C43.6902 3.73667 43.7252 3.76231 43.748 3.78063C43.7709 3.79855 43.7986 3.81809 43.8098 3.82419C43.821 3.8303 43.8356 3.84089 43.8414 3.84781C43.8477 3.85473 43.8565 3.86165 43.8613 3.86328C43.8657 3.86491 43.9022 3.89177 43.9416 3.92312C44.0442 4.00495 44.0641 4.01961 44.1346 4.06724C44.1721 4.09248 44.2358 4.13889 44.2683 4.16413C44.3067 4.19426 44.3272 4.21014 44.4239 4.2826C44.4653 4.31354 44.5081 4.34693 44.5188 4.35629C44.5295 4.36565 44.5465 4.37787 44.5567 4.38316C44.5664 4.38886 44.5868 4.40229 44.6014 4.41328C44.616 4.42468 44.6306 4.43364 44.6335 4.43364C44.6369 4.43364 44.6491 4.44178 44.6617 4.45155C44.6739 4.46132 44.7069 4.48779 44.7351 4.51018C44.7974 4.55984 44.8868 4.62702 44.9321 4.65755C44.9505 4.66976 44.9865 4.69623 45.0123 4.71658C45.0381 4.73653 45.0755 4.76462 45.0954 4.77887C45.147 4.81551 45.1669 4.83057 45.2433 4.89001C45.2807 4.91932 45.3211 4.94986 45.3332 4.958C45.3454 4.96614 45.3639 4.97917 45.375 4.98731C45.3857 4.99505 45.412 5.01337 45.4329 5.02802C45.4538 5.04268 45.4922 5.07077 45.5175 5.09031C45.5433 5.10985 45.5739 5.13346 45.5861 5.14201C45.658 5.19453 45.7256 5.24583 45.766 5.2784C45.7913 5.29875 45.82 5.31992 45.8292 5.32521C45.8384 5.33051 45.8662 5.34964 45.89 5.36796C45.9143 5.38628 45.9386 5.40419 45.9449 5.40745C45.9513 5.41111 45.9775 5.43025 46.0033 5.4502C46.0753 5.50597 46.1482 5.56052 46.1939 5.59269C46.2168 5.60856 46.2493 5.63299 46.2664 5.64642C46.2834 5.66027 46.3121 5.68184 46.3305 5.69406C46.349 5.70627 46.3641 5.7193 46.3641 5.7193C46.3641 5.7193 46.3724 5.72662 46.3821 5.73232C46.3923 5.73802 46.4093 5.74983 46.42 5.75879C46.4555 5.78891 46.5848 5.88581 46.6262 5.9139C46.649 5.92937 46.6772 5.94931 46.6894 5.95868C46.702 5.96763 46.7166 5.97781 46.7225 5.98107C46.7278 5.98433 46.7531 6.00305 46.7784 6.02259C46.8776 6.09995 47.0157 6.20295 47.041 6.21801C47.0526 6.22493 47.0881 6.2518 47.1202 6.27745C47.1523 6.30269 47.1897 6.33078 47.2029 6.33892C47.2165 6.34747 47.2462 6.36945 47.2695 6.38818C47.3332 6.43948 47.3629 6.46024 47.3784 6.46553C47.3881 6.46838 47.4815 6.4696 47.6891 6.4692C47.8525 6.46879 48.3791 6.46838 48.8595 6.46797C49.7314 6.46716 49.7338 6.46716 49.7338 6.45902C49.7338 6.45128 49.7095 6.43296 49.6303 6.38045C49.6191 6.37271 49.6001 6.35887 49.588 6.3491C49.5758 6.33933 49.5364 6.3092 49.5004 6.28152C49.4644 6.25383 49.4314 6.22819 49.4275 6.22452C49.4197 6.21719 49.4017 6.20417 49.3035 6.13333C49.2695 6.1085 49.2165 6.06901 49.1858 6.04458C49.1557 6.02056 49.1284 6.00102 49.126 6.00102C49.1231 6.00102 49.1022 5.98555 49.0788 5.96641C49.055 5.94728 49.0336 5.93181 49.0302 5.93181C49.0273 5.93181 49.0025 5.9139 48.9758 5.89191C48.9125 5.84062 48.8352 5.78281 48.7954 5.75757C48.7779 5.74657 48.7428 5.72052 48.7176 5.69976C48.6923 5.67899 48.6616 5.65579 48.6495 5.64765C48.6242 5.63055 48.5931 5.60734 48.5649 5.58332C48.542 5.56378 48.4589 5.5019 48.4068 5.46567C48.3324 5.41396 48.3067 5.39564 48.2794 5.37488C48.2639 5.36348 48.2469 5.35371 48.2469 5.35371C48.2449 5.35371 48.2367 5.34638 48.2284 5.33743C48.2206 5.32847 48.2119 5.32114 48.2094 5.32114C48.2046 5.32114 48.1929 5.31259 48.0806 5.22344C48.0198 5.1754 47.975 5.14242 47.9376 5.11799C47.9293 5.1127 47.9031 5.09235 47.8788 5.0728C47.8549 5.05367 47.8267 5.03291 47.817 5.0268C47.8073 5.02069 47.783 5.00278 47.7635 4.98731C47.7441 4.97184 47.7261 4.95881 47.7237 4.95881C47.7212 4.95881 47.7076 4.94904 47.694 4.93724C47.6502 4.901 47.5228 4.80574 47.4922 4.78742C47.4805 4.78009 47.4635 4.76869 47.4548 4.76177C47.4465 4.75485 47.4275 4.7406 47.4134 4.73002C47.3993 4.71943 47.3745 4.7007 47.359 4.68849C47.3429 4.67587 47.3278 4.66569 47.3249 4.66569C47.3225 4.66569 47.3128 4.65877 47.303 4.65022C47.2933 4.64167 47.2646 4.61928 47.2393 4.60015C47.2141 4.58142 47.18 4.55496 47.1635 4.54152C47.1474 4.52809 47.1168 4.50529 47.0954 4.49064C47.0745 4.47598 47.0375 4.4487 47.0132 4.42957C46.9884 4.41043 46.9486 4.38031 46.9238 4.3624C46.899 4.34448 46.8751 4.32413 46.8708 4.31761C46.864 4.30621 46.863 4.15233 46.863 2.4563L46.8625 0.606795L46.843 0.604759C46.8324 0.603538 46.1351 0.602723 45.2934 0.603538C44.0456 0.604352 43.7621 0.605574 43.7568 0.610052C43.7514 0.61453 43.7505 0.738292 43.7495 1.2655C43.749 1.62294 43.7485 1.91891 43.748 1.92298C43.748 1.92706 43.7422 1.93479 43.7354 1.94008C43.7247 1.94823 43.7174 1.95026 43.6955 1.95026H43.6683L43.6192 1.90833C43.5764 1.8721 43.52 1.82935 43.4611 1.78905C43.4519 1.78253 43.4363 1.77073 43.4271 1.76258C43.4174 1.75444 43.4057 1.7463 43.4009 1.74386C43.3926 1.74019 43.3362 1.69663 43.2448 1.62457C43.218 1.6034 43.1796 1.5749 43.1602 1.56147C43.1402 1.54804 43.1052 1.52198 43.0824 1.50366C43.0595 1.48493 43.0352 1.46702 43.0284 1.46295C43.0172 1.45684 42.9953 1.44137 42.936 1.397C42.9238 1.38804 42.8888 1.36199 42.8582 1.33919C42.8276 1.31639 42.7925 1.28952 42.7804 1.27894C42.7682 1.26876 42.743 1.24962 42.7245 1.2366C42.651 1.18611 42.6224 1.16535 42.5805 1.13197C42.5562 1.11283 42.5339 1.09655 42.5295 1.09533C42.5256 1.09411 42.5023 1.0766 42.4775 1.05625C42.4157 1.00576 42.3248 0.936962 42.2669 0.897065C42.2407 0.878745 42.2066 0.853504 42.192 0.840884C42.1774 0.828263 42.1541 0.811571 42.14 0.804243C42.1264 0.796508 42.1123 0.786738 42.1094 0.782259C42.1064 0.777781 42.0992 0.771675 42.0923 0.768825C42.0812 0.763533 42.0267 0.722821 41.9343 0.649541C41.909 0.629186 41.8696 0.599874 41.8468 0.584403C41.8239 0.568526 41.7948 0.546542 41.7811 0.53555C41.768 0.524151 41.7437 0.505831 41.7277 0.494839C41.7116 0.483847 41.6873 0.466341 41.6742 0.456163C41.6605 0.445986 41.6343 0.426851 41.6158 0.413417C41.5973 0.399982 41.5789 0.385733 41.5745 0.382069C41.5618 0.369856 41.5584 0.36782 41.5015 0.325481C41.4709 0.302682 41.4369 0.277441 41.4267 0.269299C41.416 0.261157 41.3985 0.249351 41.3873 0.24243C41.3591 0.225332 41.3187 0.19602 41.2662 0.154087C41.2419 0.134546 41.2205 0.118261 41.2185 0.118261C41.2127 0.118261 41.1018 0.0327676 41.0897 0.0189258C41.0688 -0.00427955 41.0542 -0.00550082 41.0357 0.0132263Z" fill="white"/>
<path d="M43.5216 4.71264C43.5022 4.71549 43.4759 4.72322 43.4608 4.73014C43.4448 4.73788 43.4205 4.74439 43.4 4.74724C43.3816 4.75009 43.3607 4.75538 43.3539 4.75905C43.3315 4.77208 43.3028 4.78348 43.2824 4.78795C43.2717 4.7904 43.2517 4.79935 43.2391 4.80831C43.2265 4.81686 43.2094 4.82541 43.2012 4.82704C43.1929 4.82826 43.1773 4.8364 43.1666 4.84495C43.1559 4.8535 43.1394 4.86368 43.1292 4.86775C43.0961 4.882 42.9862 4.96749 42.9634 4.99639C42.9556 5.00739 42.9469 5.01594 42.9449 5.01594C42.9425 5.01594 42.9352 5.02449 42.9279 5.03507C42.9206 5.04606 42.9075 5.06113 42.8987 5.06886C42.89 5.0766 42.8773 5.09369 42.8705 5.10672C42.8637 5.11975 42.8525 5.13603 42.8462 5.14255C42.8399 5.14906 42.8302 5.16372 42.8248 5.17552C42.819 5.18733 42.8078 5.20809 42.7995 5.22153C42.7908 5.23578 42.7815 5.25939 42.7776 5.27771C42.7742 5.29521 42.764 5.32168 42.7558 5.33674C42.7363 5.37134 42.7314 5.40554 42.7314 5.50447C42.7319 5.60136 42.7407 5.66731 42.7577 5.69418C42.7655 5.7068 42.7728 5.72879 42.7772 5.75444C42.782 5.78212 42.7874 5.79718 42.7937 5.80329C42.8073 5.8155 42.817 5.83301 42.8253 5.86028C42.8297 5.87331 42.8374 5.88797 42.8428 5.89285C42.8481 5.89774 42.8603 5.91565 42.87 5.93316C42.8802 5.95188 42.8929 5.96776 42.9016 5.97346C42.9094 5.97835 42.9172 5.98567 42.9191 5.98975C42.9206 5.99382 42.9303 6.00562 42.941 6.0158C42.9512 6.02598 42.96 6.03697 42.96 6.03697C42.96 6.03982 42.9906 6.0675 43.0485 6.11799C43.0835 6.14852 43.1253 6.17783 43.1418 6.18353C43.1501 6.18638 43.1623 6.1933 43.1691 6.19859C43.1759 6.20429 43.1958 6.21447 43.2128 6.22139C43.2303 6.22831 43.2513 6.2389 43.259 6.24541C43.2678 6.25193 43.2843 6.25885 43.2994 6.2617C43.3135 6.26455 43.3363 6.2731 43.35 6.28083C43.3699 6.29264 43.3821 6.29589 43.419 6.30078C43.4433 6.30363 43.4769 6.31096 43.4929 6.31625C43.5503 6.33579 43.6388 6.34475 43.7453 6.34108C43.8382 6.33823 43.8761 6.33294 43.9451 6.31258C43.9719 6.30485 44.0011 6.29834 44.0103 6.29834C44.0263 6.29834 44.0341 6.29508 44.0657 6.27635C44.0725 6.27228 44.0939 6.26536 44.1134 6.26129C44.1323 6.25681 44.1528 6.24989 44.1581 6.24582C44.1693 6.23727 44.2004 6.22383 44.2194 6.21895C44.2262 6.21732 44.2427 6.20755 44.2563 6.19697C44.2704 6.18679 44.2991 6.16725 44.321 6.15381C44.3769 6.11961 44.447 6.05733 44.4883 6.00522C44.498 5.993 44.5126 5.97753 44.5204 5.97143C44.5286 5.96491 44.5364 5.95392 44.5384 5.94578C44.5398 5.93804 44.5486 5.92461 44.5573 5.91606C44.5656 5.9071 44.5748 5.89489 44.5778 5.88878C44.5807 5.88227 44.587 5.86802 44.5914 5.85743C44.5957 5.84685 44.605 5.83301 44.6113 5.82649C44.6225 5.8151 44.6274 5.80207 44.6376 5.75321C44.6405 5.73897 44.6497 5.71739 44.658 5.70518C44.6711 5.68563 44.6735 5.67749 44.6769 5.63759C44.6813 5.58304 44.6818 5.47801 44.6769 5.40473C44.6745 5.35832 44.6721 5.34936 44.6609 5.33145C44.6541 5.32005 44.6449 5.29806 44.6405 5.28259C44.6259 5.2313 44.622 5.22193 44.6074 5.20402C44.5996 5.19425 44.5885 5.17593 44.5831 5.1625C44.5778 5.14906 44.5666 5.13196 44.5568 5.12382C44.5476 5.11568 44.5403 5.10631 44.5403 5.10306C44.5403 5.08922 44.4907 5.02693 44.4547 4.99558C44.3779 4.92841 44.3196 4.88281 44.2948 4.8706C44.2787 4.86286 44.2588 4.85106 44.25 4.84454C44.2413 4.83844 44.2247 4.82989 44.2131 4.82541C44.2019 4.82134 44.1844 4.81197 44.1746 4.80465C44.1649 4.79772 44.1464 4.78917 44.1333 4.78592C44.1207 4.78266 44.0998 4.77493 44.0876 4.76801C44.0755 4.76149 44.0448 4.75172 44.0195 4.74602C43.9942 4.74073 43.9588 4.73137 43.9398 4.72567C43.9213 4.71997 43.8916 4.71305 43.8741 4.71101C43.8289 4.7049 43.5644 4.70612 43.5216 4.71264Z" fill="white"/>
<path d="M38.2021 6.33474C38.1681 6.33759 38.1506 6.34166 38.1243 6.35225C38.0816 6.36975 38.0786 6.37016 38.0407 6.37505C38.0174 6.37749 38.0028 6.38237 37.9843 6.39296C37.9702 6.40069 37.9469 6.41006 37.9318 6.41372C37.9167 6.41738 37.9002 6.4239 37.8953 6.42838C37.89 6.43326 37.8754 6.4414 37.8618 6.4471C37.8486 6.4528 37.8311 6.46217 37.8229 6.46827C37.8151 6.47438 37.7976 6.48497 37.784 6.49107C37.7276 6.51794 37.6216 6.60669 37.5822 6.66002C37.5734 6.67224 37.5613 6.68689 37.5549 6.69259C37.5491 6.69829 37.5394 6.71091 37.5335 6.72109C37.5272 6.73127 37.5165 6.74511 37.5092 6.75244C37.5015 6.75936 37.4922 6.77524 37.4878 6.78786C37.4835 6.80007 37.4747 6.81554 37.4679 6.82205C37.4514 6.83874 37.4465 6.85096 37.4363 6.90063C37.4295 6.93238 37.4232 6.95029 37.412 6.96658C37.3911 6.99793 37.3857 7.04515 37.3891 7.17095C37.392 7.27843 37.4003 7.33054 37.4188 7.35781C37.4251 7.36718 37.4329 7.38631 37.4363 7.40097C37.4402 7.41725 37.4494 7.43761 37.4611 7.45389C37.4713 7.46855 37.482 7.48931 37.4854 7.50071C37.4927 7.52636 37.5019 7.54183 37.5194 7.55892C37.5272 7.56625 37.5335 7.5748 37.5335 7.57847C37.5335 7.58172 37.5413 7.59149 37.5506 7.59964C37.5603 7.60778 37.5807 7.62854 37.5963 7.64523C37.6308 7.68228 37.7786 7.80401 37.7888 7.80401C37.7986 7.80401 37.8336 7.82355 37.837 7.83047C37.8384 7.83372 37.8511 7.84105 37.8652 7.84716C37.8793 7.85286 37.8987 7.86263 37.908 7.86874C37.9172 7.87444 37.9396 7.88217 37.9576 7.88624C37.9756 7.88991 38.0018 7.89968 38.0164 7.90782C38.0349 7.918 38.0514 7.9237 38.0713 7.92614C38.1034 7.9298 38.1346 7.93876 38.153 7.94853C38.1871 7.96726 38.4934 7.96766 38.5537 7.94894C38.5649 7.94527 38.5829 7.93957 38.5936 7.93632C38.6048 7.93306 38.6281 7.92858 38.6456 7.92614C38.667 7.9237 38.6903 7.91718 38.7147 7.9066C38.7351 7.89764 38.7628 7.88828 38.7764 7.88583C38.7925 7.88258 38.8066 7.87647 38.8153 7.86874C38.8226 7.86222 38.8411 7.85204 38.8562 7.84635C38.8707 7.84065 38.8883 7.83169 38.8951 7.8264C38.9019 7.82151 38.915 7.81337 38.9247 7.8093C38.9549 7.79586 38.9991 7.76248 39.0774 7.69327C39.0896 7.68309 39.1037 7.66803 39.1095 7.65989C39.1148 7.65175 39.1217 7.64523 39.1241 7.64523C39.1265 7.64523 39.1358 7.63546 39.145 7.62366C39.1537 7.61226 39.1664 7.59882 39.1722 7.59434C39.1781 7.58987 39.1902 7.57399 39.199 7.55892C39.2077 7.54386 39.2199 7.52636 39.2252 7.51943C39.2364 7.50681 39.2408 7.49664 39.25 7.46692C39.2529 7.45755 39.2622 7.44331 39.27 7.43557C39.2821 7.42417 39.286 7.41481 39.2923 7.3859C39.2962 7.36595 39.3059 7.33705 39.3137 7.32158C39.3337 7.28087 39.3376 7.26133 39.341 7.17909C39.3448 7.07568 39.3332 7.00118 39.303 6.94093C39.2982 6.93075 39.2928 6.91325 39.2909 6.90225C39.2875 6.87946 39.2724 6.84648 39.2588 6.83142C39.2539 6.82612 39.25 6.81798 39.25 6.8131C39.25 6.80862 39.2437 6.796 39.2364 6.78541C39.2291 6.77483 39.214 6.75244 39.2024 6.73534C39.1912 6.71865 39.1766 6.70196 39.1703 6.6987C39.164 6.69503 39.1557 6.68649 39.1523 6.67916C39.1416 6.65677 39.1192 6.63397 39.0332 6.55743C39.0045 6.53178 38.9592 6.50044 38.9325 6.48741C38.9194 6.4813 38.9077 6.47357 38.9062 6.47031C38.9048 6.46705 38.8936 6.45972 38.881 6.45484C38.8688 6.44955 38.8498 6.43937 38.8396 6.43245C38.8294 6.42553 38.8095 6.41698 38.7959 6.41372C38.7822 6.41006 38.7623 6.40232 38.7516 6.39581C38.7297 6.38278 38.7122 6.37789 38.6665 6.37097C38.649 6.36853 38.6228 6.3608 38.6082 6.35388C38.5863 6.3437 38.5717 6.34003 38.5279 6.33596C38.4681 6.32986 38.2707 6.32945 38.2021 6.33474Z" fill="white"/>
<path d="M42.7122 6.69297C42.6893 6.6946 42.56 6.69623 42.4248 6.69623C42.2736 6.69663 42.1705 6.69826 42.1564 6.70071C42.1443 6.70315 42.1199 6.7117 42.1024 6.71943C42.0786 6.73042 42.0626 6.7349 42.0344 6.73735C42.0028 6.7406 41.9925 6.74345 41.9682 6.75689C41.9527 6.76584 41.9293 6.77561 41.9162 6.77846C41.9036 6.78131 41.8802 6.7919 41.8647 6.80167C41.8486 6.81103 41.834 6.81918 41.8316 6.81918C41.8292 6.81918 41.8151 6.82813 41.8005 6.83953C41.7859 6.85052 41.7708 6.85989 41.7669 6.85989C41.7635 6.85989 41.7465 6.87006 41.7295 6.88268C41.6424 6.94619 41.5875 6.99708 41.5651 7.03413C41.5593 7.0439 41.5457 7.05896 41.5355 7.06833C41.5248 7.07728 41.516 7.08705 41.516 7.0899C41.516 7.09235 41.5068 7.1066 41.4961 7.12084C41.4849 7.13509 41.4708 7.15993 41.465 7.1758C41.4591 7.19209 41.4475 7.21285 41.4392 7.22262C41.4275 7.23646 41.4236 7.24664 41.4212 7.267C41.4168 7.3073 41.409 7.33254 41.3964 7.35127C41.3896 7.36063 41.3823 7.37814 41.3799 7.38954C41.3765 7.40297 41.375 7.82515 41.375 8.56405V9.71781L41.392 9.74793C41.4013 9.76462 41.409 9.78091 41.409 9.78417C41.409 9.79638 41.4251 9.82203 41.445 9.84116C41.4834 9.87821 41.5262 9.91322 41.5408 9.91973C41.5491 9.92299 41.5637 9.93195 41.5734 9.93928C41.5865 9.94905 41.5996 9.95434 41.6206 9.958C41.6366 9.96085 41.6629 9.96737 41.6784 9.97266C41.7027 9.9808 41.7159 9.98243 41.7601 9.98243C41.8087 9.98243 41.8175 9.98121 41.872 9.96574C41.9128 9.95434 41.9391 9.94457 41.9556 9.93358C41.9979 9.90711 42.0485 9.86722 42.0621 9.85012C42.0689 9.84116 42.0815 9.82651 42.0898 9.81714C42.0981 9.80819 42.1078 9.79068 42.1117 9.77847C42.1151 9.76625 42.1243 9.74468 42.1321 9.73002L42.1457 9.70356L42.1467 8.78674C42.1472 7.98026 42.1481 7.86871 42.155 7.85853C42.1691 7.83492 42.1632 7.83573 42.3563 7.83492L42.5347 7.83451L42.5532 7.84957L42.5722 7.86504L42.5688 7.8968C42.5668 7.9143 42.5644 9.12831 42.5634 10.5951L42.5615 13.2617L42.5717 13.2983C42.5853 13.3492 42.5916 13.3631 42.6145 13.3968C42.6256 13.4131 42.6344 13.4286 42.6344 13.431C42.6344 13.4335 42.6436 13.4437 42.6553 13.453C42.6665 13.4624 42.6913 13.4836 42.7098 13.5002C42.7287 13.5169 42.7526 13.5353 42.7633 13.541C42.774 13.5467 42.7856 13.5544 42.7895 13.5581C42.7929 13.5621 42.8206 13.5747 42.8503 13.587C42.8926 13.6041 42.913 13.6102 42.9451 13.6142C43.0404 13.6256 43.1688 13.6183 43.2082 13.5984C43.2203 13.5923 43.2422 13.5837 43.2568 13.5792C43.2719 13.5743 43.2976 13.5617 43.3147 13.5507C43.3565 13.523 43.4202 13.4705 43.4241 13.4604C43.426 13.4555 43.4323 13.449 43.4387 13.4453C43.4455 13.442 43.4571 13.4266 43.4659 13.4115C43.4742 13.3964 43.4863 13.3773 43.4926 13.3696C43.499 13.3618 43.5087 13.339 43.5145 13.3187C43.5242 13.2837 43.5247 13.2735 43.5238 13.0479C43.5228 12.9193 43.5218 12.1955 43.5208 11.4399C43.5199 10.6843 43.5184 10.0557 43.5179 10.0435C43.517 10.0178 43.5252 10.0011 43.5447 9.98935C43.5573 9.98162 43.5646 9.98121 43.6832 9.98202C43.7518 9.98243 43.8097 9.98365 43.8121 9.98487C43.8141 9.98569 43.8296 9.98365 43.8471 9.97999C43.8865 9.97184 43.9098 9.97469 43.9288 9.99057L43.9424 10.0019V11.6446V13.2873L43.9594 13.3142C43.9687 13.3289 43.9799 13.3541 43.9842 13.37C43.991 13.3944 43.9959 13.4021 44.0158 13.4209C44.029 13.4331 44.0397 13.4457 44.0397 13.4494C44.0397 13.4526 44.0426 13.4551 44.0465 13.4542C44.0591 13.4518 44.1627 13.3712 44.2634 13.2857C44.5298 13.0585 44.7457 12.8212 44.8172 12.6771C44.8386 12.6343 44.8605 12.6009 44.8965 12.557L44.9198 12.5281L44.9178 10.2263C44.9169 8.96017 44.9144 7.91553 44.9125 7.90494C44.9081 7.88092 44.9193 7.85324 44.9378 7.84102C44.9495 7.83329 44.9553 7.83329 45.0637 7.83573C45.1454 7.83736 45.1911 7.83695 45.2256 7.83288C45.2821 7.82678 45.3039 7.82922 45.3244 7.84469C45.3385 7.85487 45.3399 7.85894 45.3419 7.88336C45.3428 7.89843 45.3414 7.92163 45.3385 7.93466C45.3312 7.96479 45.3307 8.53067 45.338 8.5555C45.3438 8.57627 45.3438 9.13767 45.3375 9.15884C45.3331 9.17431 45.3307 9.67832 45.3346 9.68442C45.336 9.68605 45.3385 9.6946 45.3399 9.70356C45.354 9.78254 45.353 9.7801 45.3735 9.79516C45.3958 9.81185 45.406 9.82936 45.406 9.85175C45.406 9.87739 45.3997 9.88554 45.3565 9.91688C45.2855 9.96899 45.2568 9.9922 45.2412 10.0117C45.2329 10.0219 45.2227 10.0313 45.2188 10.0325C45.215 10.0341 45.2086 10.041 45.2052 10.0488C45.2013 10.0561 45.1916 10.0671 45.1829 10.0728C45.1731 10.0801 45.1629 10.0944 45.1532 10.1151C45.1454 10.1322 45.1347 10.1505 45.1294 10.155C45.1177 10.1652 45.1104 10.1811 45.1041 10.2079C45.1017 10.2189 45.0944 10.2373 45.088 10.2487C45.0671 10.2857 45.0642 10.3024 45.0637 10.3854L45.0632 10.4652L45.0783 10.4811C45.0866 10.4901 45.0978 10.5055 45.1036 10.5157C45.1167 10.5393 45.1478 10.5605 45.1979 10.5817C45.2504 10.6037 45.2966 10.6098 45.3351 10.6C45.3501 10.5959 45.3633 10.591 45.3652 10.5886C45.3667 10.5861 45.3798 10.58 45.3939 10.5752C45.4313 10.5609 45.4911 10.5125 45.5004 10.488C45.5116 10.4591 45.5179 10.4237 45.5179 10.3928C45.5179 10.3692 45.5208 10.3586 45.5369 10.3272C45.5471 10.3065 45.5568 10.2853 45.5582 10.2796C45.5641 10.26 45.6224 10.2185 45.6686 10.201C45.6861 10.1945 45.7124 10.1843 45.727 10.1786C45.7751 10.1591 45.8446 10.1619 45.902 10.186C45.9166 10.1921 45.9361 10.1986 45.9443 10.2002C45.9623 10.2031 46.0207 10.2454 46.0357 10.2657C46.0411 10.2731 46.0518 10.2857 46.0596 10.2934C46.0674 10.3016 46.0756 10.3162 46.0785 10.3256C46.0819 10.337 46.0849 10.6159 46.0863 11.172L46.0892 12.0009L46.1184 12.0139C46.2239 12.0603 46.2891 12.1332 46.3187 12.2378C46.3309 12.2809 46.3319 12.2911 46.3319 12.3701C46.3319 12.4247 46.3285 12.4772 46.3231 12.5146C46.2905 12.7463 46.2055 13.0414 46.1082 13.2609L46.0868 13.3089V13.3838V13.4587L46.1087 13.4978C46.1325 13.5397 46.1607 13.569 46.1889 13.5813C46.1982 13.5853 46.2108 13.5931 46.2171 13.5988L46.2283 13.6085L46.3217 13.5695C46.3732 13.5479 46.4408 13.5218 46.4719 13.5121C46.5137 13.4986 46.5303 13.4917 46.5322 13.4856C46.5337 13.4811 46.538 13.4717 46.5415 13.4652C46.5449 13.4583 46.5497 13.4477 46.5531 13.4416C46.557 13.4331 46.5585 13.0374 46.5585 11.9027C46.558 10.3069 46.559 10.3598 46.539 10.3183C46.5361 10.3113 46.5303 10.2861 46.5264 10.2617C46.521 10.2263 46.5162 10.2128 46.5045 10.1957C46.4962 10.1835 46.4855 10.1615 46.4807 10.1465C46.4734 10.1253 46.4671 10.1159 46.4544 10.1066C46.4452 10.0996 46.4325 10.0842 46.4257 10.072C46.4194 10.0598 46.4102 10.0471 46.4058 10.0439C46.4014 10.0406 46.3897 10.0288 46.381 10.0174C46.3717 10.006 46.3567 9.9922 46.3474 9.98691C46.3377 9.98162 46.329 9.97429 46.3275 9.97022C46.326 9.96655 46.3129 9.95515 46.2983 9.94538C46.2837 9.93561 46.2716 9.92462 46.2716 9.92462C46.2716 9.92462 46.2633 9.91811 46.2531 9.91363C46.2429 9.90915 46.2225 9.89775 46.2079 9.88798C46.1933 9.87821 46.1729 9.86803 46.1622 9.86518C46.1418 9.8603 46.0887 9.82488 46.0785 9.80981C46.0703 9.79801 46.0708 9.76462 46.079 9.75119C46.0824 9.74508 46.0868 9.71984 46.0887 9.69542C46.0907 9.67058 46.0922 9.15518 46.0926 8.5494C46.0926 7.73518 46.0912 7.4331 46.0868 7.39117C46.0819 7.33865 46.08 7.33132 46.063 7.3016C46.0523 7.28287 46.0421 7.25601 46.0382 7.2385C46.0314 7.20512 46.028 7.19738 46.0109 7.18028C46.0046 7.17377 45.9959 7.1583 45.9915 7.14609C45.9866 7.13265 45.9779 7.11881 45.9701 7.1127C45.9628 7.107 45.9521 7.09316 45.9463 7.08258C45.9409 7.07158 45.9278 7.05408 45.9176 7.0439C45.9069 7.03332 45.8947 7.01907 45.8904 7.01174C45.8729 6.98283 45.7411 6.87454 45.7041 6.85826C45.6954 6.85459 45.6808 6.84523 45.6711 6.8375C45.6618 6.82976 45.6526 6.82325 45.6506 6.82325C45.6424 6.82325 45.6069 6.80533 45.5899 6.79231C45.5796 6.78498 45.5655 6.77765 45.5582 6.77602C45.5505 6.77439 45.5281 6.76625 45.5082 6.7577C45.4834 6.74712 45.46 6.7406 45.4352 6.73775C45.4104 6.7349 45.3895 6.7288 45.3691 6.71984C45.3511 6.71129 45.3268 6.70437 45.3059 6.70152C45.2592 6.69501 44.9324 6.69175 44.5016 6.69256C43.9701 6.69419 43.5048 6.69378 43.1061 6.69175C42.912 6.69053 42.7351 6.69134 42.7122 6.69297Z" fill="white"/>
<path d="M38.1878 8.36631C38.1747 8.36794 38.1334 8.37771 38.0964 8.3883C38.06 8.39847 38.0245 8.40702 38.0181 8.40702C38.0118 8.40702 37.9953 8.41354 37.9812 8.42168C37.9676 8.42982 37.9457 8.43878 37.9335 8.44163C37.9209 8.44488 37.8976 8.45547 37.8815 8.46483C37.8655 8.4746 37.846 8.48478 37.8382 8.48763C37.8305 8.49048 37.8154 8.49903 37.8042 8.50636C37.7935 8.51369 37.7789 8.52224 37.7721 8.52508C37.7488 8.53526 37.671 8.59633 37.6126 8.65048C37.5902 8.67124 37.5372 8.7376 37.5319 8.75144C37.5304 8.75632 37.5202 8.76772 37.51 8.77709C37.4998 8.78604 37.4891 8.8007 37.4862 8.80925C37.4833 8.8178 37.4731 8.83205 37.4643 8.8406C37.4551 8.84955 37.4419 8.86624 37.4351 8.87764C37.4283 8.88864 37.4191 8.90044 37.4147 8.9037C37.4103 8.90696 37.3987 8.92243 37.3894 8.9379C37.3802 8.95377 37.3675 8.97087 37.3617 8.97616C37.3564 8.98146 37.3461 8.99448 37.3393 9.00507C37.3194 9.03764 37.2892 9.07509 37.2683 9.09463C37.2572 9.10481 37.246 9.11947 37.2431 9.1268C37.2401 9.13412 37.2309 9.14756 37.2226 9.15611C37.2144 9.16466 37.2027 9.18176 37.1964 9.19356C37.1901 9.20577 37.1794 9.22084 37.1725 9.22776C37.1662 9.23427 37.1546 9.25015 37.1473 9.26277C37.14 9.2758 37.1264 9.29168 37.1176 9.2986C37.1084 9.30552 37.0977 9.31773 37.0938 9.32628C37.0894 9.33442 37.0806 9.34582 37.0748 9.35152C37.0685 9.35722 37.0583 9.37188 37.052 9.38409C37.0461 9.3963 37.032 9.41462 37.0208 9.4248C37.0101 9.43498 36.998 9.44678 36.9941 9.45167C36.9902 9.45656 36.9795 9.46348 36.9703 9.46755C36.9547 9.47406 36.9226 9.47447 36.4821 9.47406L36.0104 9.47365L35.9321 9.48831C35.849 9.50337 35.8295 9.50907 35.8154 9.5221C35.8105 9.52658 35.7945 9.53431 35.7799 9.53879C35.7653 9.54327 35.7439 9.55426 35.7332 9.56281C35.7221 9.57177 35.6987 9.58968 35.6817 9.60271C35.6647 9.61574 35.6462 9.63446 35.6399 9.64464C35.6336 9.65482 35.6233 9.66703 35.6165 9.67192C35.6083 9.67762 35.6 9.69268 35.5912 9.71589C35.584 9.73543 35.5752 9.75212 35.5713 9.75334C35.5679 9.75415 35.5611 9.76392 35.5562 9.7741C35.5489 9.79039 35.5475 9.80586 35.5475 9.87914V9.96504L35.5679 9.99923C35.5786 10.018 35.5903 10.0404 35.5937 10.0493C35.5971 10.0579 35.6068 10.0717 35.6151 10.0799C35.6233 10.088 35.6365 10.1015 35.6443 10.11C35.6686 10.1373 35.7464 10.1988 35.7668 10.2061C35.7775 10.2102 35.796 10.2191 35.8071 10.226C35.8188 10.2334 35.8363 10.2399 35.846 10.2415C35.8558 10.2427 35.8811 10.2509 35.9025 10.259L35.9414 10.2737L36.61 10.2749C37.2708 10.2757 37.279 10.2757 37.3014 10.2676C37.314 10.2631 37.3296 10.2594 37.3369 10.2594C37.3549 10.2594 37.3753 10.2692 37.3816 10.2806C37.388 10.292 37.3923 10.5615 37.3865 10.5757C37.3846 10.5802 37.3768 10.5876 37.3695 10.592C37.3568 10.5989 37.3427 10.5994 37.1059 10.5981C36.6737 10.5957 36.201 10.5965 35.8757 10.6002L35.5621 10.6034L35.528 10.6181C35.5096 10.6262 35.4843 10.6356 35.4721 10.6384C35.46 10.6413 35.442 10.6494 35.4322 10.6568C35.4225 10.6641 35.406 10.6739 35.3958 10.6783C35.3729 10.6881 35.283 10.7646 35.2689 10.7866C35.263 10.7956 35.2562 10.8106 35.2533 10.8204C35.2504 10.8298 35.2421 10.8428 35.2343 10.8493C35.227 10.8554 35.2188 10.866 35.2159 10.8725C35.2129 10.879 35.2066 10.8933 35.2022 10.9039C35.1979 10.9145 35.1891 10.9283 35.1833 10.9344C35.177 10.9405 35.1667 10.9576 35.1599 10.9727C35.1531 10.9873 35.141 11.0065 35.1332 11.0154C35.1201 11.0293 35.1157 11.0382 35.105 11.0728C35.103 11.0777 35.0948 11.0883 35.0855 11.096C35.0748 11.1058 35.0676 11.118 35.0637 11.1319C35.0603 11.1437 35.0505 11.1616 35.0418 11.1718C35.033 11.1823 35.0199 11.2039 35.0131 11.2202C35.0058 11.2369 34.9946 11.254 34.9883 11.2593C34.982 11.2642 34.9722 11.2805 34.9669 11.2955C34.9606 11.3118 34.9499 11.3293 34.9397 11.3395C34.9304 11.3484 34.9226 11.3582 34.9226 11.3611C34.9226 11.3716 34.9022 11.412 34.8915 11.4229C34.8852 11.429 34.8745 11.4478 34.8672 11.4645C34.8599 11.4812 34.8517 11.4966 34.8483 11.4991C34.8371 11.5064 34.8215 11.5312 34.8181 11.5471C34.8162 11.5557 34.8074 11.5699 34.7987 11.5785C34.7894 11.5874 34.7787 11.6045 34.7743 11.6159C34.7651 11.6395 34.7476 11.668 34.7427 11.668C34.7427 11.668 34.7335 11.6815 34.7262 11.6973C34.7053 11.7433 34.7043 11.7454 34.699 11.7454C34.6927 11.7454 34.6698 11.7869 34.6698 11.7979C34.6698 11.8024 34.662 11.8134 34.6528 11.8227C34.6435 11.8317 34.6324 11.85 34.6275 11.8626C34.6183 11.8879 34.6032 11.9123 34.5969 11.9123C34.5925 11.9123 34.5677 11.9636 34.5677 11.9721C34.5677 11.975 34.5614 11.9827 34.5536 11.9892C34.5448 11.997 34.5351 12.012 34.5298 12.0279C34.5239 12.0446 34.5132 12.0609 34.5025 12.0715C34.4928 12.0812 34.485 12.091 34.485 12.0939C34.485 12.1044 34.4646 12.1448 34.4558 12.1517C34.451 12.1553 34.4422 12.1741 34.4359 12.1932C34.4169 12.2539 34.3941 12.2933 34.3649 12.3178C34.3508 12.33 34.3391 12.3418 34.3391 12.3446C34.3391 12.352 34.3119 12.3996 34.3066 12.4012C34.3012 12.4033 34.2759 12.4521 34.2759 12.4603C34.2759 12.4635 34.272 12.4692 34.2677 12.4733C34.2526 12.4859 34.2424 12.5014 34.2365 12.5209C34.2336 12.5311 34.2234 12.547 34.2147 12.5559C34.2054 12.5649 34.1957 12.58 34.1928 12.5893C34.186 12.6101 34.1656 12.6451 34.1597 12.6451C34.1573 12.6451 34.1544 12.6483 34.1529 12.652C34.1403 12.6854 34.1242 12.7171 34.1179 12.7208C34.1111 12.7249 34.1111 12.7306 34.1179 12.7758C34.1218 12.8035 34.1252 12.8332 34.1252 12.8417C34.1252 12.8503 34.1296 12.8637 34.1344 12.8723C34.1621 12.9174 34.3231 13.0506 34.4875 13.1646C34.5755 13.2252 34.7461 13.3331 34.7544 13.3331C34.7593 13.3331 34.8351 13.2676 34.8351 13.2639C34.8351 13.2619 34.8439 13.2517 34.8546 13.2415C34.8653 13.2313 34.874 13.2195 34.874 13.2159C34.874 13.2061 34.8954 13.1694 34.9042 13.1629C34.9085 13.1601 34.9188 13.1414 34.9275 13.121C34.9363 13.1006 34.9465 13.0831 34.9504 13.0819C34.9581 13.0795 34.981 13.0388 34.981 13.0278C34.981 13.0237 34.9888 13.0127 34.998 13.0033C35.0073 12.994 35.0175 12.9789 35.0204 12.9696C35.0272 12.9488 35.0374 12.9309 35.0496 12.9199C35.0544 12.9154 35.0651 12.8963 35.0734 12.8771C35.0817 12.858 35.0928 12.8397 35.0977 12.8364C35.103 12.8332 35.1128 12.8153 35.1196 12.7965C35.1288 12.7725 35.1356 12.7611 35.1439 12.7566C35.1512 12.7526 35.1585 12.7432 35.1614 12.733C35.174 12.6948 35.177 12.6891 35.193 12.6748C35.2022 12.6671 35.2095 12.6573 35.2095 12.6536C35.2095 12.6394 35.2256 12.6097 35.2392 12.5979C35.2533 12.5857 35.2737 12.5396 35.2742 12.5189C35.2747 12.5132 35.2718 12.4774 35.2684 12.4395C35.2543 12.2929 35.2771 12.1846 35.336 12.1118C35.3739 12.065 35.4143 12.034 35.4726 12.0063C35.5018 11.9929 35.5548 11.9766 35.5859 11.9717C35.6136 11.9672 35.6389 11.9424 35.652 11.9074C35.6574 11.8919 35.6681 11.8736 35.6759 11.8667C35.6832 11.8594 35.6943 11.8419 35.7007 11.8276C35.7148 11.7954 35.7279 11.7885 35.7736 11.7889C35.7911 11.7889 36.3605 11.7902 37.0388 11.7914C37.7172 11.7926 38.2744 11.7946 38.2773 11.7959C38.2802 11.7975 38.2953 11.7967 38.3104 11.7942C38.3259 11.7918 38.3867 11.7881 38.4456 11.7857C38.535 11.7824 38.5555 11.7804 38.5696 11.7739C38.6128 11.7543 38.6299 11.749 38.6585 11.7462C38.6829 11.7437 38.696 11.7393 38.7179 11.7275C38.7329 11.7189 38.7577 11.7091 38.7728 11.7059C38.7898 11.7022 38.803 11.6965 38.8093 11.69C38.8146 11.6843 38.8321 11.6741 38.8482 11.6676C38.8647 11.6611 38.8837 11.6513 38.8905 11.646C38.8973 11.6407 38.9104 11.633 38.9197 11.6293C38.9367 11.622 38.9493 11.6127 39.0155 11.5569C39.0845 11.4995 39.0937 11.4905 39.1059 11.4702C39.1127 11.4588 39.1219 11.4482 39.1258 11.447C39.1326 11.4445 39.1443 11.4266 39.1506 11.4087C39.1521 11.4038 39.1618 11.3936 39.172 11.3863C39.1861 11.3761 39.192 11.368 39.1963 11.3517C39.1997 11.3399 39.2109 11.3187 39.2211 11.3049C39.2343 11.2866 39.2411 11.2707 39.2455 11.2487C39.2489 11.232 39.2552 11.2137 39.2596 11.208C39.2858 11.1726 39.2882 11.1632 39.2946 11.0688C39.3019 10.9474 39.3019 9.20985 39.2946 9.08079L39.2892 8.99123L39.2698 8.95907C39.2561 8.93667 39.2484 8.91795 39.2445 8.89678C39.2406 8.87479 39.2357 8.86299 39.227 8.85444C39.2207 8.84792 39.2085 8.82838 39.2007 8.81088C39.1929 8.79378 39.1798 8.77383 39.1725 8.76732C39.1647 8.7604 39.154 8.74655 39.1487 8.73597C39.139 8.71643 39.1112 8.68427 39.0762 8.65129C39.0354 8.61302 38.9454 8.53974 38.9245 8.52793C38.9124 8.52101 38.8944 8.50961 38.8846 8.50229C38.8749 8.49496 38.8574 8.48682 38.8467 8.48437C38.8355 8.48193 38.8171 8.47297 38.8064 8.46443C38.7923 8.45384 38.7777 8.44733 38.7602 8.44366C38.7456 8.44081 38.7227 8.43226 38.7091 8.42453C38.6955 8.41679 38.6746 8.40906 38.6624 8.40702C38.6503 8.40499 38.6104 8.3944 38.5744 8.38422L38.5088 8.36509L38.3605 8.36387C38.2788 8.36346 38.2015 8.36428 38.1878 8.36631Z" fill="white"/>
<path d="M32.4678 9.36484C32.4707 9.37624 32.4984 9.50855 32.53 9.65877C32.5616 9.81022 32.5893 9.93194 32.5922 9.93276C32.6073 9.93683 32.7639 10.0276 32.814 10.0614C33.0289 10.2055 33.2317 10.3961 33.4077 10.6196C33.4378 10.6574 33.4767 10.7095 33.4942 10.7348L33.5258 10.7804L33.5385 10.7246C33.5876 10.5048 33.591 10.2959 33.5482 10.1176C33.4626 9.7634 33.184 9.5114 32.7493 9.39415C32.6661 9.37217 32.5903 9.35832 32.4833 9.3457L32.4634 9.34326L32.4678 9.36484Z" fill="white"/>
<path d="M55.2121 9.34755C55.2141 9.35081 55.4382 9.65085 55.71 10.0148C55.9819 10.3788 56.206 10.6788 56.208 10.6817C56.2099 10.6845 56.0733 10.9129 55.8627 11.2586C55.5233 11.8151 55.5136 11.8305 55.499 11.8322C55.4825 11.8346 54.0412 11.9205 54.0242 11.9201C54.0159 11.9201 53.9065 11.7878 53.4631 11.2423C53.1601 10.8694 52.9107 10.5656 52.9087 10.5673C52.9 10.575 52.8625 10.7362 52.8465 10.8352C52.7877 11.1926 52.8056 11.5386 52.8971 11.8362C53.023 12.2458 53.2822 12.5662 53.6717 12.7942C54.0393 13.0095 54.5348 13.1398 55.1236 13.176C55.18 13.1797 55.2379 13.1838 55.2515 13.1854L55.2773 13.1883L57.8257 16.4736C59.2271 18.2804 60.3756 19.7594 60.3776 19.7603C60.3815 19.7615 61.5991 18.2491 61.6102 18.2299C61.6137 18.2238 61.5276 18.1058 61.1658 17.6217C60.7321 17.0412 60.7165 17.0212 60.7068 17.0265C60.6786 17.042 60.6747 17.0432 60.6703 17.0395C60.6679 17.0371 59.8408 15.9688 58.8323 14.6653L56.9986 12.2951L57.021 12.2531C57.2179 11.8822 57.322 11.4552 57.3045 11.0896C57.2753 10.4732 56.9286 9.99934 56.2717 9.67731C56.0081 9.54826 55.6653 9.43671 55.3064 9.36302C55.2622 9.35406 55.2223 9.34551 55.217 9.34429C55.2102 9.34266 55.2092 9.34348 55.2121 9.34755Z" fill="white"/>
<path d="M49.0992 9.35588C49.0093 9.36565 48.8765 9.39374 48.7822 9.42264C48.7097 9.44544 48.5955 9.49389 48.5303 9.52971C48.3567 9.62498 48.241 9.73368 48.1515 9.88512C48.0416 10.0703 48.0027 10.2951 48.0348 10.5605C48.0416 10.6195 48.0679 10.7612 48.0747 10.7763C48.0776 10.7828 48.0854 10.7742 48.1141 10.7331C48.3027 10.464 48.577 10.2006 48.8425 10.0349C48.8721 10.0162 48.9237 9.98649 48.9567 9.96899L49.017 9.93682L49.0768 9.65348C49.1099 9.49714 49.1376 9.36565 49.1391 9.36036C49.1405 9.35547 49.1396 9.35181 49.1376 9.35181C49.1352 9.35221 49.1182 9.35425 49.0992 9.35588Z" fill="white"/>
<path d="M39.8076 9.58834C39.8066 9.59119 39.8071 9.60259 39.8095 9.61358C39.8115 9.62498 39.8134 9.8326 39.8134 10.0756C39.8134 10.4933 39.8139 10.5177 39.8222 10.5214C39.8314 10.5259 39.8922 10.5727 39.9083 10.5882C39.9136 10.5935 39.9262 10.6045 39.936 10.6126C39.9457 10.6207 39.9574 10.6326 39.9613 10.6395C39.9651 10.646 39.9797 10.6627 39.9933 10.6761C40.0065 10.6895 40.0245 10.7075 40.0327 10.7156C40.0415 10.7242 40.0522 10.7376 40.0575 10.7461C40.0624 10.7543 40.0731 10.7669 40.0814 10.7738C40.0891 10.7807 40.1013 10.7982 40.1081 10.8125C40.1149 10.8267 40.1256 10.8434 40.1324 10.8491C40.1392 10.8548 40.1499 10.8715 40.1572 10.8858C40.164 10.9004 40.1752 10.9171 40.1815 10.9228C40.1942 10.9338 40.2078 10.9652 40.2078 10.9827C40.2078 10.9884 40.2165 11.0042 40.2272 11.0181C40.2433 11.0384 40.2481 11.0498 40.2535 11.0775C40.2574 11.0963 40.2681 11.1292 40.2783 11.1504C40.2919 11.1797 40.2973 11.1984 40.3002 11.2277C40.3065 11.2831 40.3143 11.3364 40.3201 11.3621C40.323 11.3743 40.3274 11.3934 40.3294 11.404C40.3342 11.4252 40.3269 11.6007 40.3196 11.6511C40.3172 11.6678 40.3118 11.6955 40.308 11.7122C40.3036 11.7289 40.3002 11.7566 40.3002 11.7733C40.3002 11.8075 40.2919 11.8339 40.2739 11.8596C40.2657 11.8718 40.2603 11.8885 40.2559 11.9137C40.2501 11.9516 40.2438 11.9667 40.2243 11.9862C40.218 11.9923 40.2117 12.0041 40.2102 12.0127C40.2049 12.0391 40.1981 12.053 40.1815 12.0709C40.1728 12.0806 40.1626 12.0969 40.1592 12.1071C40.1509 12.1303 40.1358 12.156 40.1305 12.156C40.128 12.156 40.1198 12.1686 40.1115 12.1841C40.1018 12.2024 40.0906 12.2162 40.0799 12.2227C40.0702 12.2292 40.0595 12.241 40.0546 12.2516C40.0502 12.2618 40.0425 12.272 40.0371 12.274C40.0323 12.2765 40.0235 12.2854 40.0181 12.2944C40.0055 12.3151 39.9895 12.3343 39.972 12.3497C39.9637 12.3567 39.9355 12.3823 39.9087 12.4063C39.8504 12.4589 39.8465 12.4621 39.8134 12.4869C39.7988 12.4975 39.7755 12.5154 39.7609 12.5268C39.7463 12.5378 39.7308 12.5468 39.7308 12.5468C39.7283 12.5468 39.7162 12.5545 39.7031 12.5643C39.6904 12.5741 39.6719 12.5842 39.6627 12.5875C39.6535 12.5903 39.6369 12.6001 39.6253 12.6091C39.6136 12.6176 39.5961 12.6274 39.5864 12.6311C39.5766 12.6343 39.5601 12.6433 39.5494 12.651C39.5392 12.6583 39.5183 12.6677 39.5037 12.671C39.4891 12.6746 39.4662 12.684 39.4531 12.6913C39.44 12.699 39.4196 12.7076 39.4089 12.71C39.37 12.7186 39.3481 12.7263 39.3398 12.7341C39.3306 12.7426 39.2902 12.7544 39.2708 12.7544C39.2649 12.7544 39.2406 12.7621 39.2173 12.7711C39.1779 12.7866 39.1682 12.7886 39.0991 12.7951C39.0578 12.7992 39.015 12.8053 39.0043 12.8086C38.9936 12.8118 38.961 12.8175 38.9314 12.8216C38.8842 12.8281 38.856 12.8285 38.6994 12.8265L38.5205 12.8244L38.4879 12.8114C38.4597 12.8004 38.4466 12.798 38.3965 12.7947C38.3211 12.7902 38.3158 12.789 38.273 12.7703C38.253 12.7613 38.2302 12.7544 38.2219 12.7544C38.1952 12.7544 38.1558 12.743 38.13 12.7288C38.1145 12.7198 38.096 12.7133 38.0814 12.7117C38.0644 12.7096 38.0527 12.7052 38.0371 12.6938C38.023 12.6832 38.0041 12.675 37.9822 12.6697C37.9618 12.6644 37.9443 12.6567 37.937 12.6502C37.9302 12.6445 37.9117 12.6347 37.8956 12.6282C37.8796 12.6221 37.8602 12.6115 37.8524 12.6046C37.8446 12.5973 37.831 12.5899 37.8222 12.5875C37.8135 12.5851 37.8003 12.5773 37.7935 12.5704C37.7867 12.5635 37.7731 12.5537 37.7639 12.5484C37.7376 12.5334 37.6477 12.4658 37.6034 12.4279C37.5567 12.3884 37.4994 12.3318 37.4994 12.3261C37.4994 12.3241 37.4887 12.3127 37.476 12.3013C37.4629 12.2895 37.4463 12.27 37.4391 12.2577C37.4318 12.2451 37.4211 12.2325 37.4152 12.2292C37.406 12.2239 37.3296 12.2227 36.8964 12.2211C36.6168 12.2199 36.3868 12.2195 36.3844 12.2203C36.3824 12.2211 36.4111 12.2484 36.4486 12.2814C36.5264 12.3506 36.5614 12.3839 36.6241 12.4491C36.6824 12.5101 36.7598 12.6074 36.7778 12.6429C36.823 12.7316 36.8662 12.7943 36.9494 12.89C37.0666 13.0256 37.2854 13.2364 37.3262 13.2539C37.3345 13.2576 37.3501 13.2662 37.3608 13.2735C37.3715 13.2804 37.3899 13.2898 37.4016 13.2938C37.4138 13.2983 37.4313 13.3073 37.4415 13.3142C37.4512 13.3207 37.4746 13.3333 37.493 13.3419C37.511 13.3504 37.5314 13.3598 37.5383 13.363C37.5451 13.3659 37.5611 13.3716 37.5742 13.3757C37.5874 13.3793 37.6058 13.3883 37.6156 13.3956C37.6258 13.4034 37.6428 13.4107 37.6574 13.4135C37.671 13.4164 37.6929 13.4249 37.707 13.4327C37.7216 13.4412 37.7449 13.4498 37.7629 13.453C37.7814 13.4567 37.8047 13.4652 37.8217 13.475C37.8431 13.4868 37.8567 13.4913 37.8777 13.4933C37.8952 13.495 37.9219 13.5023 37.9516 13.5141C37.9817 13.5259 38.0046 13.532 38.0172 13.532C38.0478 13.532 38.0906 13.5422 38.112 13.554C38.1349 13.5666 38.1587 13.5711 38.2263 13.5747C38.2832 13.578 38.3002 13.5813 38.3527 13.5979C38.3902 13.6102 38.3955 13.6106 38.5083 13.6146C38.6571 13.6195 38.8424 13.6191 38.9834 13.6138C39.0977 13.6093 39.0909 13.6106 39.1696 13.5861C39.1803 13.5829 39.2207 13.5776 39.2596 13.5743C39.3505 13.567 39.3481 13.5674 39.3894 13.5499C39.4186 13.5373 39.4322 13.5344 39.4648 13.532C39.4872 13.5308 39.5115 13.5263 39.5197 13.5226C39.5586 13.5047 39.5868 13.4954 39.615 13.4913C39.6369 13.488 39.653 13.4823 39.6719 13.4709C39.6919 13.4587 39.7045 13.4546 39.7254 13.4522C39.7556 13.4494 39.7658 13.4457 39.7857 13.4318C39.793 13.427 39.8129 13.4188 39.8305 13.4139C39.8475 13.4095 39.8655 13.4017 39.8703 13.3968C39.881 13.3871 39.9238 13.3692 39.9369 13.3692C39.9423 13.3692 39.9559 13.3618 39.9686 13.3529C39.9807 13.3439 39.9963 13.3354 40.0031 13.3337C40.0216 13.3301 40.0493 13.3179 40.057 13.3101C40.0609 13.3065 40.076 13.2983 40.0906 13.2918C40.1057 13.2857 40.1222 13.2763 40.1276 13.2714C40.1329 13.2666 40.146 13.2588 40.1567 13.2543C40.1674 13.2495 40.1835 13.2405 40.1922 13.2344C40.201 13.2279 40.2165 13.2189 40.2272 13.2145C40.2379 13.21 40.2554 13.1982 40.2666 13.188C40.2773 13.1782 40.2914 13.1689 40.2968 13.1672C40.3026 13.166 40.3162 13.1579 40.3269 13.1497C40.3376 13.1412 40.3561 13.1298 40.3683 13.1237C40.3892 13.1139 40.5375 12.9991 40.5598 12.9755C40.5662 12.9694 40.5968 12.9421 40.6279 12.9152C40.659 12.8884 40.6926 12.857 40.7018 12.8452C40.7111 12.8334 40.7208 12.8228 40.7232 12.8216C40.7261 12.82 40.7339 12.8098 40.7407 12.7984C40.7475 12.787 40.7607 12.7711 40.7699 12.763C40.8005 12.7353 40.8278 12.7047 40.8423 12.6807C40.8506 12.6677 40.8642 12.651 40.8725 12.6437C40.8813 12.6364 40.8915 12.6221 40.8958 12.6123C40.8997 12.6022 40.9085 12.5887 40.9143 12.5818C40.9206 12.5749 40.9328 12.5582 40.942 12.5448C40.9508 12.5313 40.9644 12.5142 40.9717 12.5073C40.9795 12.5 40.9868 12.4869 40.9887 12.4788C40.9931 12.458 41.0038 12.4413 41.0203 12.4283C41.0281 12.4222 41.0344 12.4137 41.0344 12.4096C41.0344 12.3933 41.0495 12.3599 41.0636 12.3453C41.0719 12.3367 41.083 12.3168 41.0889 12.3009C41.0942 12.285 41.1069 12.2594 41.1161 12.2435C41.1253 12.228 41.1365 12.1995 41.1414 12.1796C41.1477 12.1547 41.155 12.1389 41.1657 12.1258C41.1774 12.1112 41.1818 12.1006 41.1847 12.0774C41.1871 12.0615 41.1983 12.0253 41.2095 11.9972C41.2265 11.954 41.2299 11.9398 41.2318 11.9036C41.2348 11.847 41.2425 11.8132 41.2571 11.7855C41.2683 11.7655 41.2703 11.755 41.2741 11.6919C41.279 11.6023 41.28 11.413 41.2756 11.3275C41.2717 11.2522 41.2664 11.222 41.2503 11.1777C41.244 11.1598 41.2362 11.1268 41.2333 11.1044C41.2275 11.0564 41.2129 11.0006 41.1963 10.9643C41.1905 10.9501 41.1837 10.9281 41.1818 10.9155C41.1798 10.9004 41.173 10.8829 41.1623 10.867C41.1526 10.852 41.1433 10.8292 41.139 10.8109C41.1351 10.7938 41.1244 10.7665 41.1151 10.7502C41.1059 10.7339 41.0937 10.7079 41.0879 10.6924C41.0816 10.6765 41.0719 10.6582 41.0655 10.6513C41.0539 10.6378 41.0344 10.5992 41.0344 10.5886C41.0344 10.5849 41.0257 10.5727 41.015 10.5605C41.0043 10.5487 40.9936 10.532 40.9907 10.523C40.9877 10.5141 40.979 10.5011 40.9712 10.4937C40.9639 10.4864 40.9518 10.4693 40.9445 10.4563C40.9377 10.4428 40.9279 10.4282 40.9231 10.4237C40.9177 10.4192 40.907 10.4046 40.8988 10.3911C40.89 10.3777 40.8769 10.361 40.8696 10.3545C40.8618 10.3476 40.8506 10.3341 40.8448 10.324C40.8385 10.3138 40.8273 10.2995 40.8195 10.2918C40.8112 10.2841 40.801 10.2706 40.7962 10.2613C40.7918 10.2519 40.7714 10.2303 40.7509 10.2132C40.731 10.1957 40.7086 10.1733 40.7018 10.1632C40.695 10.153 40.6804 10.1351 40.6688 10.1237C40.6352 10.0899 40.4222 9.91322 40.3833 9.88635C40.3634 9.87291 40.3357 9.85336 40.3216 9.84237C40.307 9.83178 40.2929 9.82323 40.2905 9.82323C40.2875 9.82323 40.2763 9.81631 40.2647 9.80736C40.2535 9.79881 40.236 9.78863 40.2263 9.78537C40.2165 9.78171 40.199 9.77194 40.1874 9.76339C40.1757 9.75443 40.1572 9.74425 40.146 9.74018C40.1348 9.73611 40.1207 9.72797 40.1144 9.72268C40.1081 9.71739 40.0887 9.70599 40.0702 9.69825C40.0522 9.69011 40.0352 9.68034 40.0327 9.67627C40.0298 9.6722 40.0157 9.6661 40.0011 9.66284C39.9851 9.65877 39.9661 9.6498 39.953 9.64044C39.9389 9.63026 39.9243 9.62334 39.9112 9.62171C39.898 9.61968 39.883 9.61317 39.8664 9.60096C39.8407 9.58264 39.8129 9.57653 39.8076 9.58834Z" fill="white"/>
<path d="M68.3538 10.0666C68.0504 10.4163 66.882 11.7728 66.8805 11.7776C66.8795 11.7809 66.8951 11.8505 66.915 11.9319C66.9354 12.0134 66.952 12.0834 66.952 12.0879C66.952 12.0923 66.2192 12.9277 65.324 13.9447L63.6955 15.7938L61.5764 18.4339C60.4109 19.8861 59.4554 21.0757 59.4534 21.0777C59.4515 21.0797 59.4287 21.0712 59.4019 21.059C59.0542 20.8945 58.7236 20.8391 58.5116 20.9096C58.4678 20.9242 58.4284 20.9434 58.392 20.9686C58.3424 21.002 58.1333 21.1994 57.9655 21.3712C57.8182 21.5219 57.4997 21.8618 57.4773 21.8919C57.4724 21.8988 57.4724 21.9086 57.4778 21.9432C57.4851 21.9957 57.4866 22.1272 57.4797 22.1838C57.453 22.4053 57.3703 22.5926 57.2313 22.7473C57.1121 22.88 56.9526 22.9879 56.7577 23.0668C56.6959 23.0921 56.5539 23.1401 56.5422 23.1401C56.5364 23.1401 54.959 25.0572 54.9619 25.0601C54.9619 25.0601 54.9891 25.0654 55.0198 25.0698C55.4817 25.1386 55.9976 25.2534 56.4343 25.3853C56.4756 25.398 56.5238 25.4122 56.5413 25.4175C56.8228 25.5022 57.2862 25.6805 57.4895 25.7819C57.6052 25.8397 57.7496 25.926 57.8571 26.0009L57.9154 26.0416L58.0093 25.9252C58.3992 25.4415 58.7926 24.9461 58.8573 24.8561C58.9035 24.7926 58.9074 24.7763 58.9239 24.5935C58.9443 24.3659 58.9691 24.2434 59.0217 24.1123C59.1593 23.7675 59.4656 23.522 59.9426 23.3742C59.9747 23.3644 59.9951 23.3555 60.0019 23.3486C60.0316 23.3188 60.1998 23.1401 60.2728 23.0607C60.4216 22.8983 60.5378 22.7603 60.5913 22.6821C60.6389 22.6125 60.6589 22.5307 60.6633 22.391C60.673 22.0629 60.531 21.7698 60.2601 21.5589L60.2086 21.519L60.7128 20.91C61.0411 20.513 61.7836 19.6011 62.8465 18.2898L64.476 16.2783L65.9697 14.3376C66.791 13.2701 67.4669 12.3961 67.4713 12.3948C67.4757 12.394 67.5554 12.3855 67.6478 12.3757L67.8161 12.3586L68.4234 11.5175C68.7574 11.055 69.0662 10.6276 69.1095 10.5677L69.1878 10.4586L68.7871 10.2489C68.5668 10.1337 68.3845 10.0393 68.3821 10.0393C68.3796 10.0393 68.367 10.0515 68.3538 10.0666Z" fill="white"/>
<path d="M32.0682 10.1164L32.0317 10.1188L32.0332 10.1575C32.0376 10.289 32.0609 10.6737 32.0779 10.9045C32.1416 11.7578 32.2258 12.318 32.3249 12.5493C32.3984 12.7203 32.5652 13.0675 32.7125 13.3554C32.9926 13.9029 33.3018 14.4338 33.5591 14.8096C33.7696 15.1165 33.9549 15.3437 34.1299 15.509C34.1927 15.568 34.5437 15.8591 34.6692 15.9564C35.0509 16.2515 35.4273 16.5113 35.8148 16.7474C36.8495 17.3776 37.9081 17.7994 38.9268 17.9879C38.9837 17.9985 40.7833 18.279 40.83 18.2847C40.849 18.2871 41.0153 17.9349 41.114 17.6829C41.3562 17.0678 41.4301 16.5618 41.3289 16.2133C41.2822 16.0512 41.1223 15.7207 40.9589 15.4499C40.7537 15.1084 40.5397 14.8397 40.3418 14.6744C40.2373 14.5865 40.2421 14.5893 39.8172 14.411C39.0615 14.0943 38.8417 14.0116 38.567 13.9396C38.1138 13.8211 37.7725 13.6827 37.5269 13.5186C37.2488 13.3326 36.85 12.9421 36.7362 12.7447C36.7236 12.7223 36.7042 12.6885 36.6939 12.6694C36.6098 12.5171 36.251 12.1935 36.0584 12.0962C35.9723 12.0522 35.8362 12.0269 35.7103 12.0314C35.5916 12.0355 35.5123 12.0607 35.4472 12.1153C35.3893 12.1637 35.3645 12.2146 35.3548 12.3042C35.3339 12.5029 35.4443 12.9564 35.5872 13.2597C35.6456 13.383 35.683 13.436 35.7472 13.4852C35.8143 13.5365 35.8926 13.6204 36.143 13.907C36.5777 14.4041 36.7294 14.5718 36.9166 14.7595C37.0338 14.8771 37.0752 14.9154 37.2415 15.0611C37.4321 15.2281 37.4846 15.2757 37.5658 15.3543C37.6344 15.421 37.6981 15.4927 37.6927 15.4972C37.6927 15.4972 37.6373 15.4674 37.5721 15.4292C37.3528 15.2993 37.1676 15.1931 36.9794 15.088C36.7649 14.9683 36.6789 14.9235 36.5836 14.8812C36.5024 14.8454 36.4581 14.8193 36.39 14.7668C36.3049 14.7017 36.2592 14.6589 36.0112 14.4159C35.967 14.3723 35.9067 14.3149 35.8775 14.2885C35.7827 14.2021 35.7219 14.1276 35.6514 14.0104C35.6115 13.944 35.561 13.8423 35.542 13.7922L35.5337 13.769L35.4676 13.7327C35.3188 13.6509 35.1773 13.5907 35.0295 13.5459C34.9449 13.5202 34.8564 13.4795 34.7246 13.4058C34.4324 13.2418 34.0828 12.9755 34.0458 12.8884C34.0414 12.8786 34.0371 12.8546 34.0356 12.8351C34.0283 12.7475 33.9865 12.5069 33.9422 12.305C33.8941 12.0844 33.8406 11.8983 33.8022 11.8209C33.739 11.6923 33.5683 11.352 33.5313 11.2823C33.4696 11.1639 33.3845 11.0206 33.3373 10.955C33.244 10.8247 33.1064 10.6884 32.8662 10.4868C32.6848 10.3354 32.5511 10.2344 32.4723 10.1901C32.3648 10.1298 32.2345 10.1058 32.0682 10.1164Z" fill="white"/>
<path d="M49.3766 10.1253C49.2871 10.133 49.1982 10.1599 49.1257 10.201C48.9818 10.2828 48.6103 10.5882 48.4284 10.7742C48.2529 10.9534 48.1756 11.0767 47.9417 11.5469C47.8945 11.6414 47.841 11.748 47.823 11.7839C47.7637 11.8999 47.7229 12.0318 47.665 12.2928C47.6183 12.5032 47.5653 12.8061 47.5653 12.8647C47.5653 12.903 47.5298 12.9466 47.4292 13.0333C47.257 13.1819 46.9828 13.3639 46.7664 13.4742C46.6993 13.5084 46.6273 13.5373 46.5515 13.5609C46.426 13.5996 46.266 13.6688 46.1352 13.7408L46.0691 13.7771L46.0608 13.8003C46.0419 13.8504 45.9913 13.9521 45.9514 14.0185C45.8795 14.1382 45.8221 14.2078 45.7171 14.3043C45.683 14.3356 45.6271 14.3886 45.5931 14.4223C45.4025 14.6092 45.3684 14.6422 45.314 14.6906C45.1953 14.7961 45.1297 14.8405 45.0198 14.8893C44.922 14.9329 44.835 14.9781 44.6235 15.0961C44.4353 15.2012 44.25 15.3074 44.0307 15.4373C43.9656 15.4755 43.9101 15.5053 43.9101 15.5053C43.9028 15.4996 43.9879 15.4084 44.0891 15.3131C44.1644 15.2419 44.1737 15.2337 44.3614 15.0692C44.5209 14.9296 44.5656 14.8881 44.6716 14.7826C44.8525 14.6019 45.0358 14.4008 45.4136 13.968C45.7039 13.6354 45.7851 13.5479 45.8537 13.495C45.878 13.4766 45.9072 13.4494 45.9189 13.4347C46.0273 13.2991 46.1717 12.9067 46.2252 12.6022C46.2549 12.432 46.2583 12.316 46.2354 12.241C46.2057 12.145 46.1211 12.077 45.9971 12.0501C45.8668 12.022 45.6572 12.0469 45.5444 12.1043C45.3494 12.2028 44.9823 12.5358 44.9055 12.6836C44.8744 12.7434 44.8335 12.8077 44.7966 12.8546C44.6176 13.0821 44.3069 13.3724 44.0755 13.5271C43.8318 13.69 43.4847 13.8308 43.0431 13.9456C42.8365 13.9994 42.6541 14.0633 42.2963 14.2074C42.0653 14.3006 41.4229 14.5709 41.3923 14.588C41.2751 14.654 41.1249 14.7953 40.9751 14.9797C40.9163 15.0526 40.8599 15.1275 40.8599 15.1328C40.8599 15.1352 40.8783 15.1641 40.9007 15.1967C41.0816 15.4625 41.2513 15.7772 41.3738 16.0748C41.4152 16.1758 41.4463 16.3004 41.4575 16.4127C41.4643 16.4758 41.4643 16.6326 41.458 16.7058C41.4268 17.0568 41.298 17.5005 41.0933 17.9597C41.0524 18.0509 40.9834 18.1959 40.9493 18.2618C40.9474 18.2647 40.9498 18.2659 40.9557 18.2647C40.9605 18.2639 41.332 18.206 41.7813 18.1368C42.2306 18.0672 42.6332 18.0037 42.676 17.996C44.0098 17.7493 45.4083 17.1024 46.726 16.122C46.9755 15.9368 47.3703 15.616 47.4929 15.4988C47.8989 15.1112 48.4479 14.255 48.9973 13.1518C49.1349 12.8757 49.2798 12.5619 49.3061 12.4837C49.3975 12.2109 49.4782 11.6015 49.5366 10.7437C49.556 10.4632 49.574 10.1322 49.5701 10.129C49.5628 10.122 49.4388 10.12 49.3766 10.1253Z" fill="white"/>
<path d="M33.9404 10.6938C33.8674 10.8253 33.8076 10.9356 33.8081 10.9389C33.8086 10.9441 34.2613 12.1773 34.2842 12.2355L34.2924 12.2559L34.3085 12.2265C34.4261 12.0128 34.3785 11.5076 34.1709 10.7699C34.1475 10.6864 34.0775 10.4581 34.0746 10.4556C34.0746 10.4556 34.0138 10.5623 33.9404 10.6938Z" fill="white"/>
<path d="M47.6243 10.5243C47.5898 10.6139 47.492 10.9599 47.4459 11.1529C47.3632 11.5002 47.3277 11.7599 47.333 11.9781C47.3364 12.1267 47.3535 12.2118 47.3929 12.2822C47.4089 12.3107 47.4108 12.3124 47.4147 12.303C47.4313 12.2619 47.8956 10.9994 47.8956 10.9953C47.8956 10.9921 47.8383 10.8875 47.7687 10.7621C47.6987 10.6367 47.6389 10.5288 47.6355 10.5223L47.6297 10.5105L47.6243 10.5243Z" fill="white"/>
<path d="M32 20.3191V29.3163H33.7068H35.4135V24.1338V18.9513H36.9029C37.82 18.9513 38.4356 18.9529 38.5061 18.9553C39.7645 19.0005 40.7015 19.2949 41.5743 19.9198C41.8 20.0814 42.0679 20.3037 42.2896 20.5125C42.5089 20.7189 42.7525 20.9783 42.9996 21.2677C43.0526 21.3296 43.0929 21.3785 43.2451 21.5633L43.2757 21.6003L43.3307 21.6077C43.463 21.6243 44.0362 21.7062 44.2147 21.7339C44.2667 21.742 44.3513 21.755 44.4019 21.7628C44.453 21.7705 44.5274 21.7823 44.5672 21.7888C44.6076 21.7953 44.7014 21.8108 44.7763 21.823C45.1483 21.8837 45.6764 21.9781 45.9968 22.0412C46.0289 22.0473 46.0946 22.0604 46.1427 22.0697C46.2701 22.0946 46.8016 22.2053 46.8842 22.224C46.9231 22.2326 46.9932 22.2484 47.0398 22.259C47.2499 22.3059 47.6729 22.4068 47.7128 22.4198C47.7206 22.4223 47.7279 22.4231 47.7279 22.4231C47.7279 22.4231 47.6491 22.314 47.1882 21.6948C46.6946 21.0324 46.2857 20.5076 46.0265 20.2052C45.497 19.5863 45.0092 19.1336 44.4826 18.7725C44.1092 18.5161 43.6638 18.2873 43.1707 18.0984L43.0866 18.0662V18.0328V17.999L43.1026 17.9954C43.1109 17.9933 43.1498 17.9848 43.1887 17.9758L43.2592 17.9599L43.2276 17.9571C43.1984 17.9542 43.1892 17.9559 43.0944 17.9787C42.9791 18.0064 42.8017 18.0438 42.6845 18.0654C42.6412 18.0735 42.2215 18.1395 41.7513 18.2123C41.2816 18.2852 40.8839 18.3487 40.8673 18.3532C40.8513 18.3577 40.8328 18.3605 40.8255 18.3597C40.8187 18.3585 40.8031 18.3593 40.7905 18.3614C40.7647 18.3662 40.7341 18.3609 40.7122 18.3479C40.702 18.3418 40.5133 18.3113 39.8477 18.2079C39.3794 18.1354 38.9612 18.0695 38.9179 18.0613C38.1287 17.9156 37.3405 17.644 36.5489 17.2446C35.9455 16.9405 35.3372 16.5607 34.7692 16.1345C34.4901 15.9244 34.1274 15.6256 34.0136 15.5112C33.6187 15.1146 33.1446 14.3859 32.6312 13.386C32.4692 13.0705 32.2762 12.6659 32.2285 12.5413C32.1561 12.3508 32.0919 11.9892 32.036 11.4563C32.0263 11.3635 32.0219 11.3346 32.016 11.3293C32.0117 11.3253 32.0063 11.322 32.0039 11.322C32.0019 11.322 32 15.3707 32 20.3191Z" fill="white"/>
<path d="M61.8074 19.7311C61.5414 20.0592 61.2618 20.4024 61.1865 20.4932C61.0634 20.6422 61.0503 20.6593 61.0557 20.6666C61.0591 20.6711 62.1108 22.0817 63.3926 23.8014C64.6744 25.521 65.73 26.9374 65.7388 26.9488L65.7543 26.9691L65.7334 27.0139C65.5987 27.294 65.5136 27.5716 65.4777 27.8481C65.4674 27.9258 65.4694 28.179 65.4801 28.2531C65.5263 28.5625 65.6454 28.8137 65.8574 29.0486C66.0014 29.2082 66.1915 29.3552 66.4171 29.4814C66.7016 29.6402 67.0599 29.7725 67.4139 29.8498C67.4932 29.8669 67.5948 29.8861 67.5977 29.884C67.5977 29.884 67.3726 29.5636 67.0954 29.174L66.5922 28.4652L66.9573 27.9165C67.1582 27.6148 67.3254 27.3652 67.3254 27.3652C67.3274 27.3636 67.6536 27.353 68.0509 27.3416C68.4482 27.3302 68.7939 27.3196 68.8197 27.3184L68.8659 27.316L69.3813 27.982C69.6643 28.3484 69.8992 28.648 69.8992 28.648C69.9035 28.648 69.9376 28.4958 69.957 28.3871C70.0295 27.984 70.01 27.6164 69.9011 27.3107C69.7601 26.9162 69.482 26.6141 69.0521 26.3886C68.9271 26.323 68.7307 26.2445 68.5761 26.198C68.2595 26.1036 67.9357 26.0519 67.5651 26.0368L67.4514 26.0323L65.6483 23.6202C64.6569 22.2934 63.8453 21.2052 63.8453 21.2052C63.8453 21.2052 63.8516 21.1991 63.8594 21.1951C63.8677 21.1914 63.874 21.1865 63.874 21.1845C63.874 21.1845 63.5526 20.766 63.1602 20.2583C62.7673 19.7506 62.4123 19.2902 62.371 19.2348C62.3296 19.179 62.2937 19.1338 62.2937 19.1338C62.2937 19.1338 62.0734 19.4025 61.8074 19.7311Z" fill="white"/>
<path d="M42.6176 21.7161C42.623 21.721 42.657 21.752 42.6935 21.7845C42.9906 22.0496 43.2955 22.3504 43.5425 22.6211C44.1756 23.3161 44.5296 23.9129 44.5845 24.3774C44.5909 24.432 44.5909 24.5586 44.584 24.6091C44.5656 24.754 44.5058 24.8888 44.4124 24.9983C44.3954 25.0182 44.3575 25.0565 44.3283 25.0833C44.2023 25.2002 44.1479 25.2584 44.1221 25.304C44.0915 25.3573 44.1129 25.3728 44.179 25.3447C44.2262 25.3248 44.2714 25.2955 44.3409 25.2389C44.6011 25.0276 44.798 24.7108 44.8685 24.39C44.8918 24.2842 44.8977 24.2252 44.8977 24.103C44.8977 23.9874 44.8938 23.9398 44.8758 23.8449C44.8705 23.8172 44.868 23.7932 44.868 23.7932C44.868 23.7932 45.0562 24.0542 45.2852 24.375L45.7005 24.958L46.4834 24.9563C46.9142 24.9555 47.2862 24.9563 47.311 24.958L47.3557 24.9608L47.3474 24.9718C47.329 24.9966 47.2813 25.0463 47.2395 25.0842C47.1028 25.2087 47.0474 25.2898 47.099 25.2898C47.1656 25.2898 47.3523 25.1395 47.4583 25.0007L47.4899 24.9596L47.9591 24.962C48.2173 24.9633 48.5033 24.9653 48.5942 24.9669L48.7605 24.9694L48.7736 24.9584C48.7999 24.9364 48.7955 24.9364 48.9438 24.9604C49.0104 24.971 49.3119 24.9755 49.4933 24.9685C49.5628 24.9657 49.6212 24.962 49.6212 24.962C49.6212 24.962 49.2827 24.5053 48.8675 23.9483L48.1123 22.9354L48.0783 22.9244C48.0598 22.9183 48.0267 22.9077 48.0053 22.9008C47.8424 22.8483 47.5658 22.7653 47.344 22.7022C46.9696 22.5955 46.5826 22.4958 46.1551 22.396C45.9704 22.3529 45.7943 22.315 45.6105 22.2792C45.434 22.2446 45.3227 22.223 45.2215 22.2039C45.1612 22.1925 45.0893 22.1786 45.0611 22.1733C45.0066 22.1627 44.8651 22.1359 44.7255 22.1098C44.3638 22.0422 44.319 22.0337 44.2174 22.0141C44.0745 21.9865 43.8887 21.9466 43.6752 21.8985C43.5527 21.8704 43.4773 21.8554 43.4773 21.8554C43.4773 21.8554 43.5002 21.8883 43.5299 21.9274C43.6339 22.0642 43.8556 22.3663 43.9038 22.4379L43.9203 22.4624L43.843 22.4005C43.6203 22.2238 43.3587 22.0467 43.065 21.8741C42.9118 21.7841 42.8024 21.7247 42.7849 21.7222C42.7757 21.7206 42.7431 21.7178 42.7125 21.7153C42.6818 21.7133 42.6458 21.71 42.6322 21.7088L42.6084 21.7068L42.6176 21.7161Z" fill="white"/>
<path d="M48.9831 23.2796C49.3584 23.6028 49.6594 24.012 49.8379 24.4423C49.8914 24.5709 49.9244 24.6695 49.9629 24.8156L49.9867 24.9052L49.9838 24.7953C49.9823 24.7346 49.9838 24.577 49.9867 24.4447L49.9925 24.2045L49.9526 24.1374C49.8287 23.9297 49.6468 23.7083 49.4518 23.5271C49.3609 23.4424 49.2286 23.3358 49.2038 23.3264C49.1654 23.3126 49.0181 23.258 48.9801 23.2442C48.9111 23.2181 48.9111 23.2177 48.9831 23.2796Z" fill="#1F294C"/>
<path d="M45.7778 25.5796C45.7856 25.5849 45.8366 25.6171 45.892 25.6517C46.0656 25.7604 46.2324 25.874 46.3934 25.9933C46.4931 26.0669 46.7561 26.2868 46.8329 26.3605C47.2594 26.7696 47.487 27.1539 47.5312 27.5419C47.54 27.6168 47.5351 27.7878 47.5225 27.8566C47.4738 28.118 47.3508 28.3447 47.133 28.5743C47.0853 28.6244 46.919 28.7657 46.8655 28.8015L46.8291 28.8255L46.8825 28.8284C47.1903 28.8438 48.3826 28.8695 48.7177 28.8675C48.7921 28.8671 48.7566 28.8658 48.6083 28.8638C48.1522 28.8577 47.185 28.832 47.1777 28.8263C47.1777 28.8263 47.1923 28.8149 47.2117 28.8027C47.2711 28.7641 47.362 28.6924 47.4237 28.6354C47.7014 28.3789 47.8589 28.0964 47.8959 27.7858C47.9022 27.732 47.9022 27.605 47.8959 27.5472C47.8541 27.1661 47.6255 26.7822 47.201 26.3792C47.1193 26.3018 46.8923 26.1125 46.7848 26.0323C46.5942 25.8907 46.3661 25.7388 46.1512 25.6098L46.0914 25.5739L45.9275 25.5723L45.7637 25.5703L45.7778 25.5796Z" fill="white"/>
<path d="M53.6304 26.6739C53.0635 27.3632 53.0489 27.3815 52.9944 27.4556C52.9181 27.5602 52.9181 27.5578 52.9895 27.5004C53.2239 27.3107 53.4787 27.1995 53.8055 27.1442C53.9285 27.1234 53.9766 27.1197 54.1123 27.1197C54.248 27.1197 54.2961 27.1234 54.4191 27.1442C54.7556 27.2011 55.0133 27.316 55.2506 27.5142C55.4821 27.7084 55.6177 27.9185 55.6878 28.19C55.7111 28.2824 55.7194 28.3374 55.7228 28.4306C55.7272 28.5499 55.715 28.646 55.681 28.7706C55.6732 28.7987 55.6678 28.8223 55.6678 28.8223C55.6678 28.8223 55.7388 28.7355 55.8249 28.6289C55.911 28.5222 56.1585 28.2153 56.3753 27.947C56.5922 27.6791 56.7697 27.4572 56.7697 27.4572C56.7697 27.4515 56.6967 27.3343 56.6661 27.2907C56.4517 26.985 56.1536 26.722 55.785 26.5144C55.4232 26.3104 55.0187 26.1732 54.5927 26.1105C54.4522 26.0897 54.353 26.0812 54.175 26.0739L54.1264 26.0718L53.6304 26.6739Z" fill="white"/>
<path d="M53.6052 26.4508C53.2114 26.5257 52.8617 26.6726 52.5544 26.8925C52.4752 26.9495 52.3478 27.057 52.2792 27.1262C51.9641 27.4429 51.7798 27.8069 51.7244 28.2213C51.7137 28.3015 51.7122 28.5331 51.722 28.6182C51.7414 28.786 51.7915 28.9712 51.8596 29.1271C51.9578 29.3502 52.109 29.566 52.2948 29.748C52.3969 29.8481 52.5574 29.9739 52.6833 30.0525C52.7324 30.083 52.87 30.1604 52.8972 30.1726C52.9109 30.1787 52.4338 30.1791 47.0919 30.1795H41.2714L41.3127 30.1579C41.5077 30.0553 41.6993 29.9059 41.8452 29.7431C42.0645 29.4972 42.205 29.1951 42.2361 28.9012C42.239 28.8731 42.2434 28.8381 42.2458 28.823C42.2522 28.7876 42.2522 28.6764 42.2458 28.6349C42.2434 28.6166 42.2366 28.5694 42.2313 28.5299C42.1384 27.8366 41.5252 27.2544 40.7122 27.0875C40.1141 26.965 39.5029 27.0688 39.0098 27.377C38.8897 27.4519 38.7424 27.5707 38.6519 27.6656C38.4108 27.9188 38.2683 28.1985 38.2163 28.5226C38.2036 28.6024 38.2036 28.858 38.2163 28.9378C38.2342 29.0494 38.2639 29.1585 38.3028 29.2594C38.4428 29.6197 38.7395 29.9422 39.1207 30.149L39.1732 30.1775L37.2238 30.1795L35.2744 30.1815L35.786 30.2849L36.2975 30.3879L36.844 30.3814L37.3906 30.3745L37.6031 30.4348C37.7203 30.4677 37.8122 30.4958 37.8122 30.4958C37.8102 30.4962 37.6556 30.4995 37.4684 30.5028C37.2812 30.5064 37.0823 30.5101 37.0259 30.5117L36.9238 30.5146L37.4558 30.6216L37.9877 30.7291L50.1499 30.7283L62.3116 30.7271L61.6479 30.5931C61.2827 30.5194 60.9793 30.4584 60.9739 30.4576C60.9686 30.4567 60.9851 30.4624 61.0104 30.4702L61.0566 30.484L61.0328 30.4844C61.0201 30.4848 60.8149 30.4885 60.5776 30.493L60.1458 30.5015L59.8234 30.4401C59.646 30.4063 59.4986 30.3765 59.4986 30.3765C59.4986 30.3765 59.5327 30.3749 59.5764 30.3745C59.7466 30.3741 60.4901 30.3639 60.4925 30.3623C60.4925 30.3623 60.2927 30.3196 60.0462 30.2699L59.5978 30.1795H57.4778H55.3577L55.3747 30.1705C55.487 30.1127 55.6212 30.0317 55.7127 29.9662C55.7729 29.923 55.8906 29.8249 55.9504 29.7683C56.2237 29.509 56.4129 29.1959 56.4999 28.858C56.5339 28.7269 56.5563 28.5564 56.5563 28.4289C56.5563 28.3088 56.5349 28.137 56.5043 28.0169L56.4916 27.9652L56.4785 27.9803C56.444 28.0206 55.9874 28.5877 55.9816 28.5983C55.9777 28.6048 55.9713 28.6292 55.9684 28.6528C55.9504 28.7811 55.8984 28.937 55.8294 29.0709C55.6368 29.4418 55.2702 29.7394 54.8199 29.8909C54.6093 29.9613 54.4022 30.0036 54.198 30.0171C54.1187 30.0224 53.93 30.0199 53.8576 30.0126C53.4195 29.9686 53.0256 29.807 52.7266 29.5473C52.4786 29.3327 52.3113 29.0661 52.2408 28.7733C52.2131 28.6569 52.2072 28.6048 52.2068 28.4696C52.2068 28.3141 52.2175 28.2343 52.2583 28.0959C52.3697 27.7157 52.6458 27.3867 53.0344 27.1718C53.0694 27.1522 53.1083 27.1306 53.1204 27.1241C53.1404 27.1135 53.1783 27.0692 53.42 26.7744C53.5726 26.5892 53.6971 26.4357 53.6971 26.4357C53.6971 26.4333 53.6962 26.4333 53.6052 26.4508ZM40.42 27.458C41.0156 27.5272 41.499 27.8602 41.6896 28.3324C41.7849 28.5678 41.7961 28.8312 41.7207 29.073C41.6088 29.4345 41.3132 29.7398 40.9145 29.9067C40.7584 29.9719 40.5653 30.0236 40.4 30.0452C40.0912 30.0851 39.7796 30.0464 39.4951 29.9332C39.0604 29.7602 38.7453 29.4239 38.6456 29.0282C38.6077 28.8784 38.6033 28.7033 38.6335 28.549C38.7015 28.1989 38.9481 27.8797 39.304 27.6811C39.5223 27.5589 39.7839 27.4775 40.0237 27.4563C40.0519 27.4539 40.0815 27.451 40.0893 27.4502C40.1272 27.4458 40.365 27.4515 40.42 27.458ZM53.3971 30.3607C53.4895 30.3851 53.544 30.3969 53.6577 30.4177C53.6996 30.4254 53.7555 30.4376 53.7822 30.4458L53.8309 30.4596L53.807 30.46C53.7944 30.4604 53.5892 30.4641 53.3519 30.4686L52.9201 30.4771L52.5977 30.4156C52.4202 30.3818 52.2729 30.3521 52.2729 30.3521C52.2729 30.3521 52.3123 30.3505 52.3628 30.3501C52.4134 30.3497 52.6254 30.3472 52.834 30.3448C53.0426 30.3419 53.2362 30.3391 53.2634 30.3391C53.312 30.3383 53.3169 30.3391 53.3971 30.3607ZM46.6528 30.4144C46.7695 30.4478 46.8628 30.4751 46.8594 30.4755C46.856 30.4763 46.6513 30.4804 46.4048 30.4848L45.9564 30.4934L45.6341 30.4319C45.4571 30.3981 45.3097 30.3684 45.3097 30.3684C45.3097 30.3684 45.3491 30.3668 45.3997 30.3664C45.4503 30.366 45.6623 30.3635 45.8709 30.3611C46.0795 30.3582 46.2929 30.3554 46.345 30.355L46.4398 30.3546L46.6528 30.4144ZM57.4184 30.4144C57.5351 30.4478 57.6285 30.4751 57.6251 30.4755C57.6217 30.4763 57.417 30.4804 57.1704 30.4848L56.7221 30.4934L56.3997 30.4319C56.2227 30.3981 56.0754 30.3684 56.0754 30.3684C56.0754 30.3684 56.1148 30.3668 56.1654 30.3664C56.2159 30.366 56.4279 30.3635 56.6365 30.3611C56.8451 30.3582 57.0586 30.3554 57.1106 30.355L57.2055 30.3546L57.4184 30.4144ZM50.2608 30.4225C50.3775 30.4559 50.4708 30.4832 50.4674 30.4836C50.464 30.4844 50.2593 30.4885 50.0128 30.493L49.5645 30.5015L49.2421 30.4401C49.0651 30.4063 48.9177 30.3765 48.9177 30.3765C48.9177 30.3765 48.9571 30.3749 49.0077 30.3745C49.0583 30.3741 49.2703 30.3717 49.4789 30.3692C49.6875 30.3664 49.9009 30.3635 49.953 30.3631L50.0478 30.3627L50.2608 30.4225ZM43.5991 30.4266C43.7158 30.46 43.8091 30.4873 43.8057 30.4877C43.8023 30.4885 43.5976 30.4926 43.3511 30.4971L42.9028 30.5056L42.5804 30.4441C42.4034 30.4103 42.2565 30.3814 42.2565 30.3814C42.2565 30.3814 42.3708 30.3786 42.5118 30.377C42.6528 30.3753 42.8648 30.3725 42.9825 30.3708C43.1002 30.3696 43.2393 30.368 43.2913 30.3676L43.3861 30.3668L43.5991 30.4266ZM39.816 30.3892C39.9463 30.4107 40.0898 30.4238 40.2055 30.4238H40.2692L40.3956 30.4604C40.5075 30.4926 40.5192 30.4966 40.4982 30.4966C40.4856 30.4971 40.2804 30.5007 40.0431 30.5052L39.6113 30.5137L39.2889 30.4523C39.1114 30.4185 38.9641 30.3888 38.9641 30.3888C38.9641 30.3888 39.0113 30.3867 39.0711 30.3867C39.1309 30.3863 39.27 30.3847 39.3794 30.3835C39.763 30.3782 39.7499 30.3778 39.816 30.3892Z" fill="white"/>
<path d="M40.1135 27.7105C39.9384 27.7256 39.795 27.7578 39.6603 27.8127C39.105 28.0383 38.8278 28.5614 39 29.0573C39.0583 29.225 39.1658 29.376 39.3185 29.5035C39.5134 29.6667 39.7459 29.7652 40.0211 29.8015C40.1188 29.8141 40.2929 29.8141 40.3906 29.8015C40.6659 29.7652 40.8983 29.6667 41.0933 29.5035C41.2367 29.3838 41.3345 29.2519 41.3977 29.0939C41.474 28.903 41.4833 28.6986 41.4239 28.502C41.3009 28.0916 40.8934 27.7834 40.3906 27.7199C40.3299 27.7122 40.1611 27.7065 40.1135 27.7105Z" fill="white"/>
<path d="M53.9813 27.2121C53.6832 27.2357 53.4066 27.3285 53.1717 27.4845C53.1056 27.528 52.9806 27.6335 52.9305 27.688C52.8216 27.8061 52.7438 27.9254 52.6898 28.0577C52.5225 28.4693 52.6144 28.9138 52.9383 29.2554C52.9903 29.3104 53.1061 29.4072 53.1712 29.4504C53.4566 29.6397 53.8029 29.7366 54.1588 29.7264C54.4904 29.7171 54.7924 29.6238 55.054 29.4504C55.1187 29.4072 55.2349 29.3099 55.2864 29.2558C55.5125 29.0168 55.6283 28.727 55.6161 28.429C55.6049 28.1517 55.4931 27.8973 55.2869 27.6799C55.2349 27.6249 55.1191 27.528 55.0535 27.4845C54.8347 27.3391 54.5838 27.2496 54.3047 27.2178C54.2371 27.2101 54.0484 27.2068 53.9813 27.2121Z" fill="white"/>
<path d="M8.2851 43.7567H5.9541L3.8008 40.6546H2.1055V43.7567H0V35.1717H3.8965C4.7213 35.1717 5.4277 35.2805 6.0156 35.4979C6.6035 35.7154 7.0524 36.0302 7.3623 36.4423C7.6767 36.8505 7.834 37.3408 7.834 37.9132C7.834 38.5007 7.6676 39.0025 7.3349 39.4184C7.0068 39.8305 6.5374 40.1396 5.9267 40.3456L8.2851 43.7567ZM2.1055 39.2524H3.7392C4.3636 39.2524 4.8421 39.1437 5.1748 38.9262C5.512 38.7049 5.6806 38.3901 5.6806 37.9818C5.6806 37.5736 5.512 37.2607 5.1748 37.0432C4.8421 36.8219 4.3636 36.7113 3.7392 36.7113H2.1055V39.2524ZM14.4512 43.9284C13.6719 43.9284 12.9518 43.8177 12.291 43.5964C11.6348 43.3713 11.0628 43.0584 10.5752 42.6578C10.0921 42.2533 9.7161 41.7802 9.4472 41.2384C9.1829 40.6967 9.0508 40.1052 9.0508 39.4642C9.0508 38.8232 9.1829 38.2317 9.4472 37.69C9.7161 37.1443 10.0921 36.6712 10.5752 36.2706C11.0628 35.87 11.6348 35.559 12.291 35.3377C12.9518 35.1126 13.6719 35 14.4512 35C15.2305 35 15.9482 35.1126 16.6045 35.3377C17.2607 35.559 17.8281 35.87 18.3066 36.2706C18.7897 36.6712 19.1657 37.1443 19.4346 37.69C19.7034 38.2317 19.8379 38.8232 19.8379 39.4642C19.8379 40.1052 19.7034 40.6967 19.4346 41.2384C19.1657 41.7802 18.7897 42.2533 18.3066 42.6578C17.8281 43.0584 17.2607 43.3713 16.6045 43.5964C15.9482 43.8177 15.2305 43.9284 14.4512 43.9284ZM14.4512 42.3888C14.9114 42.3888 15.3375 42.3144 15.7295 42.1656C16.126 42.0168 16.47 41.8108 16.7617 41.5475C17.0534 41.2804 17.279 40.9714 17.4385 40.6203C17.6025 40.2655 17.6846 39.8801 17.6846 39.4642C17.6846 39.0483 17.6025 38.6629 17.4385 38.3081C17.279 37.9533 17.0534 37.6442 16.7617 37.3809C16.47 37.1139 16.126 36.9078 15.7295 36.7628C15.3375 36.614 14.9114 36.5396 14.4512 36.5396C13.9863 36.5396 13.5556 36.614 13.1592 36.7628C12.7672 36.9078 12.4232 37.1139 12.1269 37.3809C11.8353 37.6442 11.6074 37.9533 11.4433 38.3081C11.2838 38.6629 11.2041 39.0483 11.2041 39.4642C11.2041 39.8801 11.2838 40.2655 11.4433 40.6203C11.6074 40.9751 11.8353 41.2862 12.1269 41.5532C12.4232 41.8165 12.7672 42.0225 13.1592 42.1713C13.5556 42.3163 13.9863 42.3888 14.4512 42.3888ZM25.8672 43.7567H23.7617V40.0881L19.8789 35.1717H22.4355L24.8008 38.537L27.1933 35.1717H29.75L25.8672 40.0938V43.7567ZM31.206 43.7567H28.998L33.0859 35.1717H35.3076L39.3887 43.7567H37.1806L36.3398 41.9138H32.0469L31.206 43.7567ZM32.7373 40.3685H35.6562L34.1933 37.1863L32.7373 40.3685ZM47.0859 43.7567H40.3867V35.1717H42.4922V42.2171H47.0859V43.7567Z" fill="white"/>
<path d="M63.4248 43.7567H60.7793L58.1406 40.6546L55.4951 43.7567H53L56.9238 39.3497L53.3076 35.1717H55.9531L58.2842 37.9189L60.5605 35.1717H63.1377L59.5078 39.3039L63.4248 43.7567ZM64.457 43.7567V35.1717H67.9639C68.8252 35.1717 69.568 35.29 70.1924 35.5265C70.8213 35.7593 71.3043 36.0932 71.6416 36.5281C71.9788 36.9593 72.1474 37.4744 72.1474 38.0734C72.1474 38.6725 71.9788 39.1914 71.6416 39.6302C71.3043 40.0651 70.8236 40.4009 70.1992 40.6375C69.5794 40.8741 68.8411 40.9923 67.9844 40.9923H66.5625V43.7567H64.457ZM66.5625 39.447H67.7656C68.4811 39.447 69.0303 39.3288 69.4131 39.0922C69.8004 38.8518 69.9941 38.5122 69.9941 38.0734C69.9941 37.6422 69.8004 37.3084 69.4131 37.0718C69.0303 36.8315 68.4811 36.7113 67.7656 36.7113H66.5625V39.447ZM78.6078 43.9284C77.8278 43.9284 77.1078 43.8177 76.4468 43.5964C75.7908 43.3713 75.2191 43.0584 74.7314 42.6578C74.2484 42.2533 73.8724 41.7802 73.6035 41.2384C73.3392 40.6967 73.207 40.1052 73.207 39.4642C73.207 38.8232 73.3392 38.2317 73.6035 37.69C73.8724 37.1443 74.2484 36.6712 74.7314 36.2706C75.2191 35.87 75.7908 35.559 76.4468 35.3377C77.1078 35.1126 77.8278 35 78.6078 35C79.3868 35 80.1048 35.1126 80.7608 35.3377C81.4168 35.559 81.9848 35.87 82.4628 36.2706C82.9458 36.6712 83.3218 37.1443 83.5908 37.69C83.8598 38.2317 83.9938 38.8232 83.9938 39.4642C83.9938 40.1052 83.8598 40.6967 83.5908 41.2384C83.3218 41.7802 82.9458 42.2533 82.4628 42.6578C81.9848 43.0584 81.4168 43.3713 80.7608 43.5964C80.1048 43.8177 79.3868 43.9284 78.6078 43.9284ZM78.6078 42.3888C79.0678 42.3888 79.4938 42.3144 79.8858 42.1656C80.2818 42.0168 80.6258 41.8108 80.9178 41.5475C81.2098 41.2804 81.4348 40.9714 81.5948 40.6203C81.7588 40.2655 81.8408 39.8801 81.8408 39.4642C81.8408 39.0483 81.7588 38.6629 81.5948 38.3081C81.4348 37.9533 81.2098 37.6442 80.9178 37.3809C80.6258 37.1139 80.2818 36.9078 79.8858 36.7628C79.4938 36.614 79.0678 36.5396 78.6078 36.5396C78.1428 36.5396 77.7118 36.614 77.3158 36.7628C76.9238 36.9078 76.5798 37.1139 76.2828 37.3809C75.9918 37.6442 75.7638 37.9533 75.5998 38.3081C75.4398 38.6629 75.3608 39.0483 75.3608 39.4642C75.3608 39.8801 75.4398 40.2655 75.5998 40.6203C75.7638 40.9751 75.9918 41.2862 76.2828 41.5532C76.5798 41.8165 76.9238 42.0225 77.3158 42.1713C77.7118 42.3163 78.1428 42.3888 78.6078 42.3888ZM84.8278 42.8295L85.8258 41.4845C86.1408 41.6982 86.4438 41.8737 86.7358 42.011C87.0318 42.1446 87.3228 42.2438 87.6108 42.3087C87.8978 42.3697 88.1918 42.4003 88.4918 42.4003C88.8478 42.4003 89.1548 42.3583 89.4148 42.2744C89.6748 42.1904 89.8758 42.0702 90.0168 41.9138C90.1628 41.7574 90.2358 41.5761 90.2358 41.37C90.2358 41.1297 90.1438 40.9275 89.9618 40.7634C89.7798 40.5993 89.5408 40.4562 89.2438 40.3341C88.9528 40.2082 88.6358 40.0881 88.2938 39.9735C87.9608 39.8591 87.6258 39.7351 87.2888 39.6016C86.9568 39.4642 86.6488 39.3021 86.3658 39.1151C86.0878 38.9281 85.8628 38.7011 85.6898 38.434C85.5208 38.1631 85.4368 37.835 85.4368 37.4496C85.4368 36.9459 85.5868 36.511 85.8878 36.1447C86.1928 35.7784 86.6098 35.4961 87.1388 35.2976C87.6678 35.0992 88.2708 35 88.9498 35C89.4288 35 89.9258 35.0534 90.4408 35.1602C90.9598 35.2671 91.4768 35.4293 91.9918 35.6468L91.1648 37.0718C90.8418 36.9078 90.4928 36.778 90.1188 36.6827C89.7458 36.5872 89.3948 36.5396 89.0668 36.5396C88.7698 36.5396 88.5108 36.5778 88.2868 36.6541C88.0688 36.7303 87.8978 36.8372 87.7748 36.9745C87.6518 37.1081 87.5898 37.2664 87.5898 37.4496C87.5898 37.6671 87.6788 37.8559 87.8568 38.0162C88.0338 38.1726 88.2648 38.3119 88.5468 38.434C88.8338 38.5561 89.1418 38.6782 89.4698 38.8003C89.8068 38.9224 90.1468 39.0559 90.4878 39.2009C90.8348 39.3459 91.1488 39.5176 91.4318 39.716C91.7188 39.9106 91.9488 40.1453 92.1218 40.42C92.2998 40.6909 92.3888 41.0172 92.3888 41.3987C92.3888 41.9024 92.2288 42.3449 91.9098 42.7265C91.5908 43.1042 91.1468 43.3999 90.5768 43.6136C90.0078 43.8235 89.3448 43.9284 88.5878 43.9284C87.8948 43.9284 87.2318 43.8349 86.5988 43.6479C85.9648 43.461 85.3748 43.1882 84.8278 42.8295ZM93.7148 43.7567V35.1717H100.332V36.7113H95.8198V38.6629H100.052V40.2082H95.8198V42.2171H100.401V43.7567H93.7148Z" fill="white"/>
</g>
<defs>
<clipPath id="clip0_6_2">
<rect width="101" height="44" fill="white"/>
</clipPath>
</defs>
</svg>
