<svg width="80" height="80" viewBox="0 0 80 80" fill="none" xmlns="http://www.w3.org/2000/svg">
<circle cx="40" cy="40" r="39.5" fill="white" stroke="#5BB286"/>
<g clip-path="url(#clip0_47_26)">
<path d="M31.5787 60.3815H28.483V54.3838C28.483 54.2759 28.4487 54.1724 28.3876 54.0961C28.3266 54.0198 28.2438 53.9769 28.1575 53.9769H24.261C24.1728 53.9767 24.0878 54.0188 24.0236 54.0945C23.9595 54.1702 23.9209 54.2737 23.9159 54.3838V60.3815H23.3658V61.6388H56.634V60.3815H56.0839V54.3838C56.0789 54.2737 56.0404 54.1702 55.9762 54.0945C55.912 54.0188 55.8271 53.9767 55.7389 53.9769H51.8586C51.8145 53.9741 51.7705 53.9826 51.7291 54.0018C51.6877 54.021 51.6498 54.0506 51.6179 54.0886C51.5859 54.1267 51.5605 54.1725 51.5431 54.2232C51.5257 54.274 51.5168 54.3286 51.5168 54.3838V60.3815H44.2317V51.9017C44.2321 51.825 44.2203 51.7489 44.1968 51.678C44.1733 51.6071 44.1387 51.5429 44.095 51.489C44.0513 51.4351 43.9994 51.3927 43.9423 51.3644C43.8853 51.336 43.8243 51.3223 43.7629 51.3239H36.1946C36.0728 51.3239 35.9561 51.3843 35.87 51.4919C35.784 51.5995 35.7356 51.7455 35.7356 51.8976V60.3774H30.5761V31.7398H20.9765V60.3815H23.3821V61.6388H20.4589C20.3372 61.6388 20.2204 61.5784 20.1344 61.4708C20.0483 61.3632 19.9999 61.2173 19.9999 61.0651V31.3857C19.9989 31.275 20.0161 31.1653 20.0502 31.0631C20.0843 30.961 20.1348 30.8686 20.1985 30.7917C20.2599 30.7133 20.3334 30.6513 20.4145 30.6093C20.4956 30.5674 20.5827 30.5463 20.6705 30.5475H30.5761V19.2804C30.5939 19.0464 30.6769 18.8275 30.8105 18.662C30.8864 18.5656 30.9772 18.4896 31.0774 18.4386C31.1775 18.3875 31.285 18.3624 31.3931 18.3649H48.5904C48.6957 18.364 48.8001 18.3894 48.8973 18.4397C48.9946 18.49 49.0829 18.5642 49.1568 18.6579L49.1926 18.7067C49.3239 18.8888 49.3969 19.1249 49.3977 19.37V30.5394H59.3261C59.4139 30.5382 59.5009 30.5592 59.582 30.6012C59.6632 30.6431 59.7367 30.7052 59.7981 30.7835C59.8618 30.8605 59.9122 30.9528 59.9464 31.055C59.9805 31.1571 59.9976 31.2669 59.9967 31.3776V61.0814C59.9967 61.2335 59.9483 61.3795 59.8622 61.4871C59.7762 61.5947 59.6594 61.6551 59.5377 61.6551H56.6308V60.3978H59.0364V31.7398H49.3945V60.3815H48.3886V19.6182H31.5787V60.3815ZM25.3482 34.2341H22.8678C22.8482 34.2341 22.8287 34.2666 22.8287 34.3073V36.3174C22.8287 36.3581 22.8482 36.3947 22.8678 36.3947H25.3482C25.3678 36.3947 25.3873 36.3621 25.3873 36.3174V34.287C25.3873 34.2463 25.3678 34.2137 25.3482 34.2137V34.2341ZM25.3482 48.1786H22.8678C22.8482 48.1786 22.8287 48.2152 22.8287 48.2518V50.2619C22.8287 50.2985 22.8482 50.3392 22.8678 50.3392H25.3482C25.3678 50.3392 25.3873 50.3026 25.3873 50.2619V48.2315C25.3873 48.1948 25.3678 48.1582 25.3482 48.1582V48.1786ZM29.5344 48.1786H27.054C27.0312 48.1786 27.0149 48.2152 27.0149 48.2518V50.2619C27.0149 50.2985 27.0312 50.3392 27.054 50.3392H29.5344C29.554 50.3392 29.5702 50.3026 29.5702 50.2619V48.2315C29.5702 48.1948 29.5702 48.1582 29.5344 48.1582V48.1786ZM25.3482 43.5073H22.8678C22.8482 43.5073 22.8287 43.5439 22.8287 43.5846V45.5947C22.8287 45.6354 22.8482 45.672 22.8678 45.672H25.3482C25.3678 45.672 25.3873 45.6395 25.3873 45.5947V43.5928C25.3873 43.548 25.3678 43.5155 25.3482 43.5155V43.5073ZM25.3482 38.8605H22.8678C22.8482 38.8605 22.8287 38.8931 22.8287 38.9378V40.9479C22.8287 40.9845 22.8482 41.0252 22.8678 41.0252H25.3482C25.3678 41.0252 25.3873 40.9886 25.3873 40.9479V38.9378C25.3873 38.8931 25.3678 38.8605 25.3482 38.8605ZM29.5344 34.2341H27.054C27.0312 34.2341 27.0149 34.2666 27.0149 34.3073V36.3174C27.0149 36.3581 27.0312 36.3947 27.054 36.3947H29.5344C29.554 36.3947 29.5702 36.3621 29.5702 36.3174V34.287C29.5702 34.2463 29.5702 34.2137 29.5344 34.2137V34.2341ZM29.5344 43.5277H27.054C27.0312 43.5277 27.0149 43.5643 27.0149 43.605V45.6151C27.0149 45.6558 27.0312 45.6924 27.054 45.6924H29.5344C29.554 45.6924 29.5702 45.6598 29.5702 45.6151V43.5928C29.5702 43.548 29.5702 43.5155 29.5344 43.5155V43.5277ZM29.5344 38.8809H27.054C27.0312 38.8809 27.0149 38.9134 27.0149 38.9582V40.9479C27.0149 40.9845 27.0312 41.0252 27.054 41.0252H29.5344C29.554 41.0252 29.5702 40.9886 29.5702 40.9479V38.9378C29.5702 38.8931 29.5702 38.8605 29.5344 38.8605V38.8809ZM54.6516 34.2341H57.1321C57.1516 34.2341 57.1711 34.2666 57.1711 34.3073V36.3174C57.1711 36.3581 57.1516 36.3947 57.1321 36.3947H54.6516C54.6321 36.3947 54.6125 36.3621 54.6125 36.3174V34.287C54.6125 34.2463 54.6321 34.2137 54.6516 34.2137V34.2341ZM54.6516 48.1786H57.1321C57.1516 48.1786 57.1711 48.2152 57.1711 48.2518V50.2619C57.1711 50.2985 57.1516 50.3392 57.1321 50.3392H54.6516C54.6321 50.3392 54.6125 50.3026 54.6125 50.2619V48.2315C54.6125 48.1948 54.6321 48.1582 54.6516 48.1582V48.1786ZM50.4654 48.1786H52.9459C52.9687 48.1786 52.9849 48.2152 52.9849 48.2518V50.2619C52.9849 50.2985 52.9849 50.3392 52.9459 50.3392H50.4654C50.4459 50.3392 50.4296 50.3026 50.4296 50.2619V48.2315C50.4296 48.1948 50.4296 48.1582 50.4654 48.1582V48.1786ZM54.6516 43.5277H57.1321C57.1516 43.5277 57.1711 43.5643 57.1711 43.605V45.6151C57.1711 45.6558 57.1516 45.6924 57.1321 45.6924H54.6516C54.6321 45.6924 54.6125 45.6598 54.6125 45.6151V43.5928C54.6125 43.548 54.6321 43.5155 54.6516 43.5155V43.5277ZM54.6516 38.8809H57.1321C57.1516 38.8809 57.1711 38.9134 57.1711 38.9582V40.9479C57.1711 40.9845 57.1516 41.0252 57.1321 41.0252H54.6516C54.6321 41.0252 54.6125 40.9886 54.6125 40.9479V38.9378C54.6125 38.8931 54.6321 38.8605 54.6516 38.8605V38.8809ZM50.4654 34.2341H52.9459C52.9687 34.2341 52.9849 34.2666 52.9849 34.3073V36.3174C52.9849 36.3581 52.9849 36.3947 52.9459 36.3947H50.4654C50.4459 36.3947 50.4296 36.3621 50.4296 36.3174V34.287C50.4296 34.2463 50.4296 34.2137 50.4654 34.2137V34.2341ZM50.4654 43.5277H52.9459C52.9687 43.5277 52.9849 43.5643 52.9849 43.605V45.6151C52.9849 45.6558 52.9849 45.6924 52.9459 45.6924H50.4654C50.4459 45.6924 50.4296 45.6598 50.4296 45.6151V43.5928C50.4296 43.548 50.4296 43.5155 50.4654 43.5155V43.5277ZM50.4654 38.8809H52.9459C52.9687 38.8809 52.9849 38.9134 52.9849 38.9582V40.9479C52.9849 40.9845 52.9849 41.0252 52.9459 41.0252H50.4654C50.4459 41.0252 50.4296 40.9886 50.4296 40.9479V38.9378C50.4296 38.8931 50.4296 38.8605 50.4654 38.8605V38.8809ZM33.9973 22.7757H36.6959C36.716 22.7757 36.7354 22.7854 36.75 22.8029C36.7646 22.8203 36.7732 22.8441 36.774 22.8693V26.2466C36.7732 26.2718 36.7646 26.2956 36.75 26.313C36.7354 26.3305 36.716 26.3402 36.6959 26.3402H33.9973C33.9775 26.3402 33.9584 26.3303 33.9444 26.3128C33.9303 26.2952 33.9224 26.2714 33.9224 26.2466V22.8693C33.9224 22.8445 33.9303 22.8207 33.9444 22.8031C33.9584 22.7856 33.9775 22.7757 33.9973 22.7757ZM43.2779 22.7757H45.9765C45.9967 22.7757 46.016 22.7854 46.0306 22.8029C46.0452 22.8203 46.0538 22.8441 46.0546 22.8693V26.2466C46.0538 26.2718 46.0452 26.2956 46.0306 26.313C46.016 26.3305 45.9967 26.3402 45.9765 26.3402H43.2747C43.2545 26.3402 43.2351 26.3305 43.2205 26.313C43.206 26.2956 43.1974 26.2718 43.1965 26.2466V22.8693C43.1974 22.8441 43.206 22.8203 43.2205 22.8029C43.2351 22.7854 43.2545 22.7757 43.2747 22.7757H43.2779ZM38.636 22.7757H41.3378C41.3577 22.7757 41.3767 22.7856 41.3907 22.8031C41.4048 22.8207 41.4127 22.8445 41.4127 22.8693V26.2466C41.4127 26.2714 41.4048 26.2952 41.3907 26.3128C41.3767 26.3303 41.3577 26.3402 41.3378 26.3402H38.636C38.6164 26.3392 38.5978 26.329 38.5839 26.3117C38.5701 26.2943 38.5619 26.2711 38.5611 26.2466V22.8693C38.5619 22.8448 38.5701 22.8216 38.5839 22.8042C38.5978 22.7869 38.6164 22.7767 38.636 22.7757ZM33.9973 30.0837H36.6959C36.7166 30.0837 36.7365 30.094 36.7511 30.1123C36.7658 30.1306 36.774 30.1554 36.774 30.1813V33.5545C36.774 33.5674 36.772 33.5801 36.7681 33.5919C36.7641 33.6037 36.7584 33.6145 36.7511 33.6236C36.7439 33.6327 36.7353 33.6398 36.7258 33.6448C36.7163 33.6497 36.7061 33.6522 36.6959 33.6522H33.9973C33.9872 33.6522 33.9772 33.6496 33.9679 33.6447C33.9586 33.6397 33.9502 33.6325 33.9432 33.6234C33.9362 33.6142 33.9307 33.6034 33.9272 33.5916C33.9236 33.5798 33.922 33.5672 33.9224 33.5545V30.165C33.9248 30.1424 33.9338 30.1216 33.9475 30.1066C33.9613 30.0916 33.979 30.0835 33.9973 30.0837ZM43.2779 30.0837H45.9765C45.9928 30.0869 46.0079 30.0965 46.0196 30.1111C46.0313 30.1257 46.039 30.1446 46.0416 30.165V33.5383C46.0416 33.5642 46.0334 33.589 46.0187 33.6073C46.0041 33.6256 45.9842 33.6359 45.9635 33.6359H43.2747C43.2539 33.6359 43.2341 33.6256 43.2194 33.6073C43.2048 33.589 43.1965 33.5642 43.1965 33.5383V30.165C43.1965 30.1391 43.2048 30.1143 43.2194 30.096C43.2341 30.0777 43.2539 30.0674 43.2747 30.0674L43.2779 30.0837ZM38.636 30.0837H41.3378C41.3479 30.0837 41.3579 30.0862 41.3672 30.0912C41.3765 30.0961 41.3849 30.1034 41.3919 30.1125C41.3989 30.1216 41.4044 30.1324 41.4079 30.1443C41.4115 30.1561 41.4131 30.1687 41.4127 30.1813V33.5545C41.4131 33.5672 41.4115 33.5798 41.4079 33.5916C41.4044 33.6034 41.3989 33.6142 41.3919 33.6234C41.3849 33.6325 41.3765 33.6397 41.3672 33.6447C41.3579 33.6496 41.3479 33.6522 41.3378 33.6522H38.636C38.6158 33.6511 38.5968 33.6404 38.5828 33.6222C38.5689 33.604 38.5611 33.5797 38.5611 33.5545V30.165C38.5611 30.1398 38.5689 30.1156 38.5828 30.0974C38.5968 30.0792 38.6158 30.0684 38.636 30.0674V30.0837ZM33.9973 44.7036H36.6959C36.7166 44.7036 36.7365 44.7139 36.7511 44.7322C36.7658 44.7505 36.774 44.7754 36.774 44.8013V48.1745C36.774 48.2004 36.7658 48.2252 36.7511 48.2435C36.7365 48.2618 36.7166 48.2721 36.6959 48.2721H33.9973C33.9872 48.2722 33.9772 48.2696 33.9679 48.2646C33.9586 48.2597 33.9502 48.2524 33.9432 48.2433C33.9362 48.2342 33.9307 48.2234 33.9272 48.2115C33.9236 48.1997 33.922 48.1871 33.9224 48.1745V44.8135C33.922 44.8009 33.9236 44.7882 33.9272 44.7764C33.9307 44.7646 33.9362 44.7538 33.9432 44.7447C33.9502 44.7355 33.9586 44.7283 33.9679 44.7233C33.9772 44.7184 33.9872 44.7158 33.9973 44.7158V44.7036ZM43.2779 44.7036H45.9765C45.9967 44.7076 46.0148 44.7214 46.027 44.7419C46.0392 44.7625 46.0444 44.7882 46.0416 44.8135V48.1867C46.0416 48.2126 46.0334 48.2374 46.0187 48.2557C46.0041 48.2741 45.9842 48.2843 45.9635 48.2843H43.2747C43.2539 48.2843 43.2341 48.2741 43.2194 48.2557C43.2048 48.2374 43.1965 48.2126 43.1965 48.1867V44.8135C43.1965 44.7876 43.2048 44.7627 43.2194 44.7444C43.2341 44.7261 43.2539 44.7158 43.2747 44.7158L43.2779 44.7036ZM38.636 44.7036H41.3378C41.3479 44.7036 41.3579 44.7062 41.3672 44.7111C41.3765 44.7161 41.3849 44.7233 41.3919 44.7325C41.3989 44.7416 41.4044 44.7524 41.4079 44.7642C41.4115 44.776 41.4131 44.7886 41.4127 44.8013V48.1745C41.4131 48.1871 41.4115 48.1997 41.4079 48.2115C41.4044 48.2234 41.3989 48.2342 41.3919 48.2433C41.3849 48.2524 41.3765 48.2597 41.3672 48.2646C41.3579 48.2696 41.3479 48.2722 41.3378 48.2721H38.636C38.6158 48.2711 38.5968 48.2603 38.5828 48.2421C38.5689 48.2239 38.5611 48.1997 38.5611 48.1745V44.8135C38.5611 44.7883 38.5689 44.764 38.5828 44.7458C38.5968 44.7276 38.6158 44.7169 38.636 44.7158V44.7036ZM33.9973 37.3957H36.6959C36.716 37.3957 36.7354 37.4054 36.75 37.4228C36.7646 37.4403 36.7732 37.4641 36.774 37.4893V40.8665C36.774 40.8792 36.772 40.8917 36.768 40.9033C36.764 40.9149 36.7582 40.9255 36.7509 40.9342C36.7436 40.9429 36.735 40.9498 36.7255 40.9542C36.7161 40.9587 36.706 40.9607 36.6959 40.9601H33.9973C33.9775 40.9601 33.9584 40.9503 33.9444 40.9327C33.9303 40.9152 33.9224 40.8914 33.9224 40.8665V37.4893C33.9224 37.4644 33.9303 37.4406 33.9444 37.4231C33.9584 37.4055 33.9775 37.3957 33.9973 37.3957ZM43.2779 37.3957H45.9765C45.9943 37.3994 46.0106 37.4108 46.0224 37.4279C46.0343 37.445 46.0411 37.4667 46.0416 37.4893V40.8665C46.0416 40.8792 46.0396 40.8917 46.0356 40.9033C46.0316 40.9149 46.0258 40.9255 46.0185 40.9342C46.0112 40.9429 46.0026 40.9498 45.9931 40.9542C45.9836 40.9587 45.9736 40.9607 45.9635 40.9601H43.2747C43.2646 40.9607 43.2545 40.9587 43.245 40.9542C43.2355 40.9498 43.2269 40.9429 43.2196 40.9342C43.2123 40.9255 43.2065 40.9149 43.2025 40.9033C43.1986 40.8917 43.1965 40.8792 43.1965 40.8665V37.4893C43.1974 37.4641 43.206 37.4403 43.2205 37.4228C43.2351 37.4054 43.2545 37.3957 43.2747 37.3957H43.2779ZM38.636 37.3957H41.3378C41.3577 37.3957 41.3767 37.4055 41.3907 37.4231C41.4048 37.4406 41.4127 37.4644 41.4127 37.4893V40.8665C41.4127 40.8914 41.4048 40.9152 41.3907 40.9327C41.3767 40.9503 41.3577 40.9601 41.3378 40.9601H38.636C38.6256 40.9613 38.6152 40.9597 38.6053 40.9555C38.5955 40.9513 38.5864 40.9446 38.5788 40.9358C38.5711 40.927 38.565 40.9163 38.5609 40.9043C38.5567 40.8924 38.5546 40.8795 38.5546 40.8665V37.4893C38.5554 37.4648 38.5636 37.4415 38.5774 37.4242C38.5913 37.4069 38.6099 37.3967 38.6295 37.3957H38.636Z" fill="#5BB286" stroke="#5BB286" stroke-width="0.520833"/>
</g>
<defs>
<clipPath id="clip0_47_26">
<rect width="40" height="50" fill="white" transform="translate(20 15)"/>
</clipPath>
</defs>
</svg>
