<svg width="101" height="44" viewBox="0 0 101 44" fill="none" xmlns="http://www.w3.org/2000/svg">
<path d="M41.0357 0.0132667C41.0158 0.0332151 40.9623 0.0747405 40.9492 0.0808471C40.9428 0.0836969 40.9375 0.0877679 40.9375 0.0893964C40.9375 0.0914319 40.9083 0.114637 40.8733 0.1411C40.8378 0.167562 40.7965 0.199316 40.7809 0.211937C40.7551 0.233106 40.7313 0.250205 40.653 0.304351C40.6107 0.333663 40.5266 0.396765 40.4653 0.445618C40.3875 0.507499 40.3686 0.521341 40.3632 0.521341C40.3603 0.521341 40.3355 0.539254 40.3083 0.560831C40.281 0.582815 40.2417 0.612534 40.2203 0.62719C40.1716 0.660573 40.1045 0.710648 40.0331 0.766015C40.0024 0.790035 39.9664 0.818125 39.9528 0.828303C39.9159 0.857208 39.8245 0.923567 39.7846 0.950844C39.7423 0.980156 39.6518 1.04692 39.6149 1.07664C39.5842 1.10107 39.5103 1.15521 39.4588 1.19104C39.4393 1.20447 39.4087 1.22768 39.3907 1.24233C39.3727 1.25699 39.3455 1.27816 39.3294 1.28915C39.273 1.32905 39.203 1.38157 39.1554 1.42024C39.1286 1.44182 39.0951 1.46787 39.081 1.47805C39.0669 1.48823 39.045 1.50451 39.0323 1.51469C39.0197 1.52487 38.993 1.544 38.9735 1.55744C38.9098 1.601 38.7829 1.69423 38.7333 1.73372C38.7104 1.75204 38.6842 1.77158 38.6501 1.7956C38.6292 1.81026 38.5947 1.83631 38.5728 1.85382C38.551 1.87132 38.5242 1.89168 38.5135 1.8986C38.4493 1.94094 38.3822 1.99101 38.2908 2.06511C38.2611 2.08953 38.2339 2.10908 38.231 2.10908C38.2281 2.10908 38.2193 2.11559 38.2125 2.12332C38.2052 2.13106 38.1926 2.14042 38.1838 2.14409C38.1658 2.15223 38.1265 2.17991 38.0739 2.22266C38.0535 2.23935 38.0273 2.2593 38.0151 2.26744C38.0029 2.27558 37.9835 2.28983 37.9718 2.29838C37.9597 2.30734 37.9378 2.32362 37.9232 2.33461C37.9081 2.3452 37.876 2.37003 37.8517 2.38957C37.8274 2.40871 37.7914 2.43558 37.772 2.44901C37.7525 2.46245 37.7141 2.49095 37.6869 2.51211C37.6601 2.53328 37.6193 2.56341 37.5969 2.57929C37.5425 2.61715 37.4622 2.67618 37.4433 2.69247C37.4345 2.69979 37.4243 2.70834 37.4199 2.7116C37.4156 2.71486 37.4024 2.72503 37.3912 2.73399C37.3796 2.74295 37.3528 2.76208 37.3319 2.77674C37.311 2.79139 37.2775 2.81704 37.2565 2.83373C37.2361 2.85042 37.2108 2.86956 37.2001 2.87648C37.1646 2.89887 37.0902 2.95261 37.0596 2.97866C37.0489 2.98762 37.0329 2.99861 37.0241 3.00268C37.0154 3.00716 37.0086 3.01164 37.0086 3.01327C37.0086 3.01653 36.8865 3.10813 36.8354 3.14314C36.8175 3.15535 36.7893 3.17652 36.7727 3.19036C36.7562 3.2038 36.7285 3.22497 36.7115 3.23718C36.6575 3.27586 36.5845 3.33082 36.5437 3.3642C36.5218 3.3817 36.4985 3.39921 36.4922 3.40328C36.4756 3.41224 36.4343 3.44277 36.3745 3.48918C36.3472 3.51035 36.3079 3.53966 36.2865 3.55432C36.2656 3.56898 36.2252 3.59788 36.197 3.61905C36.1493 3.65406 36.1314 3.6679 36.0847 3.70536C36.0754 3.71309 36.0599 3.72449 36.0506 3.7306C36.0297 3.74485 35.9466 3.80836 35.9266 3.82546C35.9184 3.83238 35.9023 3.84378 35.8911 3.8507C35.8712 3.8625 35.7847 3.92561 35.7428 3.95858C35.7317 3.96713 35.7166 3.9769 35.7093 3.98016C35.702 3.98341 35.6957 3.98749 35.6957 3.98952C35.6957 3.99319 35.5863 4.07583 35.5255 4.11817C35.506 4.1316 35.4803 4.15033 35.4681 4.1601C35.4229 4.19593 35.347 4.25333 35.3188 4.27287C35.3028 4.28427 35.2634 4.31399 35.2313 4.33964C35.1992 4.36529 35.1622 4.39419 35.1486 4.40437C35.1355 4.41455 35.1122 4.43205 35.0971 4.44345C35.082 4.45485 35.0562 4.47317 35.0397 4.48457C34.9658 4.53505 34.8467 4.62217 34.8151 4.64904C34.7966 4.66451 34.7606 4.69138 34.711 4.7268C34.695 4.7382 34.6755 4.75245 34.6672 4.75896C34.6595 4.76507 34.6395 4.77891 34.623 4.78909C34.6069 4.79927 34.5904 4.81107 34.5865 4.81474C34.5792 4.82206 34.4834 4.89575 34.4343 4.93158C34.4188 4.94338 34.3925 4.96374 34.376 4.97717C34.3342 5.01178 34.2457 5.07692 34.2403 5.07692C34.235 5.07692 34.1854 5.11233 34.1508 5.14124C34.1363 5.15305 34.0881 5.18928 34.0434 5.22225C33.9986 5.25482 33.9437 5.29676 33.9208 5.31508C33.898 5.3334 33.8717 5.35294 33.8625 5.35864C33.8533 5.36434 33.825 5.38551 33.8007 5.40505C33.7511 5.44494 33.7195 5.46856 33.6952 5.48403C33.6529 5.51049 33.5479 5.58825 33.51 5.62082C33.473 5.65257 33.3913 5.71201 33.366 5.72544C33.3582 5.72992 33.3519 5.73481 33.3519 5.73644C33.3519 5.73806 33.3373 5.74906 33.3193 5.76005C33.3009 5.77145 33.2809 5.78529 33.2741 5.7914C33.2625 5.80198 33.1876 5.85938 33.1244 5.90702C33.1073 5.91964 33.0728 5.9461 33.048 5.96645C33.0227 5.9864 32.9882 6.01327 32.9707 6.02548C32.9532 6.0377 32.9269 6.05683 32.9123 6.06823C32.8978 6.07922 32.8715 6.09876 32.8535 6.11098C32.7738 6.16635 32.6785 6.23678 32.605 6.29418C32.5807 6.31331 32.5447 6.33977 32.5258 6.35321C32.5063 6.36664 32.4791 6.38578 32.4655 6.39596C32.4514 6.40613 32.4276 6.42242 32.4125 6.4326C32.3896 6.44725 32.3843 6.45295 32.3843 6.46272V6.47412L32.4173 6.47127C32.4353 6.46964 32.9576 6.46842 33.578 6.46883C34.1985 6.46883 34.7159 6.46801 34.7275 6.46639C34.7494 6.46394 34.7596 6.45784 34.8326 6.40166C34.9079 6.34344 35.0047 6.27301 35.0305 6.25754C35.0548 6.24288 35.1749 6.1525 35.2464 6.09551C35.2736 6.07352 35.3076 6.04788 35.3217 6.0377C35.3358 6.02752 35.3577 6.01124 35.3704 6.00106C35.3825 5.99088 35.4068 5.97297 35.4239 5.96157C35.525 5.89195 35.6004 5.83659 35.6786 5.77511C35.7394 5.72707 35.7735 5.70224 35.7978 5.68962C35.808 5.68433 35.8177 5.67781 35.8197 5.67537C35.8211 5.67333 35.8411 5.65827 35.8639 5.6428C35.8863 5.62692 35.9262 5.5968 35.9519 5.57603C36.0458 5.50153 36.2568 5.34398 36.2928 5.3224C36.3045 5.31548 36.3434 5.28698 36.3798 5.2593C36.4158 5.23202 36.4494 5.20719 36.4537 5.20516C36.4581 5.20271 36.4824 5.18317 36.5077 5.16119C36.533 5.13961 36.5559 5.1217 36.5588 5.1217C36.5612 5.1217 36.585 5.1046 36.6108 5.08384C36.657 5.0476 36.6842 5.02765 36.7504 4.98206C36.7674 4.97066 36.8189 4.9328 36.8646 4.89901C36.9541 4.83183 36.9541 4.83183 36.9735 4.81555C36.992 4.79967 37.0372 4.7671 37.0572 4.7553C37.0664 4.7496 37.0888 4.73291 37.1068 4.71784C37.1248 4.70319 37.1544 4.6808 37.1724 4.66858C37.2074 4.64538 37.3168 4.56396 37.3538 4.53383C37.366 4.52406 37.382 4.51347 37.3893 4.51022C37.3966 4.50696 37.4326 4.4809 37.4686 4.45241C37.5045 4.4235 37.5464 4.39256 37.5619 4.38279C37.5955 4.36203 37.7078 4.27694 37.7725 4.22361C37.7982 4.20244 37.8211 4.18534 37.8235 4.18534C37.8259 4.18534 37.8493 4.16824 37.8751 4.14748C37.9008 4.12713 37.9354 4.10066 37.9519 4.08967C37.9679 4.07827 37.9918 4.06199 38.0044 4.05262C38.017 4.04367 38.0341 4.03227 38.0418 4.02698C38.0501 4.02209 38.0686 4.00825 38.0832 3.99644C38.1235 3.96428 38.1892 3.91583 38.2067 3.90525C38.2227 3.89548 38.2966 3.83848 38.3526 3.79248C38.3715 3.77701 38.4022 3.75462 38.4206 3.74281C38.4386 3.73141 38.4702 3.70902 38.4907 3.69396C38.5106 3.6789 38.5417 3.65569 38.5592 3.64226C38.5957 3.61539 38.6326 3.5873 38.6715 3.55798C38.7304 3.5132 38.7965 3.46557 38.8164 3.45336C38.8359 3.44196 38.8763 3.41183 38.9536 3.35158C38.9686 3.34018 38.9827 3.33041 38.9842 3.33041C38.9857 3.33041 38.9998 3.31942 39.0153 3.30639C39.0309 3.29336 39.0537 3.27545 39.0654 3.26731C39.0776 3.25916 39.1092 3.23514 39.1359 3.21438C39.186 3.1753 39.2205 3.15006 39.2774 3.11057C39.3202 3.08085 39.4126 3.01205 39.4389 2.99006C39.4505 2.98029 39.4637 2.97174 39.468 2.97052C39.4724 2.9693 39.4816 2.96157 39.488 2.95383C39.4943 2.9461 39.5074 2.93551 39.5171 2.93063C39.5269 2.92574 39.5376 2.91841 39.541 2.91434C39.5444 2.91027 39.559 2.89968 39.5726 2.89073C39.5867 2.88177 39.611 2.86508 39.627 2.85368C39.6431 2.84228 39.6703 2.82315 39.6878 2.81134C39.7053 2.79954 39.735 2.77755 39.7535 2.7629C39.8157 2.71404 39.8551 2.68392 39.8872 2.66071C39.9047 2.64809 39.9212 2.63588 39.9236 2.63384C39.9266 2.6314 39.9339 2.6257 39.9402 2.62081C39.9465 2.61593 39.963 2.60249 39.9771 2.5915C40.0092 2.56545 40.0549 2.53288 40.0768 2.51985C40.0943 2.50967 40.2441 2.39894 40.2567 2.38713C40.2703 2.3741 40.3443 2.31996 40.4274 2.26174C40.4464 2.24831 40.4833 2.22062 40.5096 2.20067C40.5354 2.18032 40.5957 2.13554 40.6428 2.10093C40.6905 2.06633 40.7527 2.01951 40.7819 1.99712C40.8436 1.94908 40.8787 1.92343 40.8942 1.91488C40.9005 1.91122 40.9258 1.89249 40.9496 1.87254C41.0124 1.82165 41.0236 1.81595 41.0644 1.81595H41.098L41.1398 1.8473C41.1626 1.86481 41.202 1.89453 41.2273 1.91366C41.3032 1.97188 41.3231 1.98613 41.3435 1.99753C41.3542 2.00323 41.3683 2.0134 41.3751 2.01951C41.3907 2.03417 41.4836 2.10338 41.5307 2.13554C41.5502 2.14897 41.5886 2.17747 41.6158 2.19864C41.6426 2.21981 41.68 2.24749 41.6985 2.25971C41.7301 2.28088 41.7529 2.29797 41.7996 2.33543C41.8108 2.34439 41.856 2.3794 41.9003 2.41319C41.9445 2.44698 41.9859 2.47955 41.9927 2.48565C41.9995 2.49176 42.017 2.50438 42.0316 2.51334C42.0617 2.53206 42.1084 2.56504 42.1308 2.58336C42.139 2.59028 42.1556 2.60046 42.1677 2.60656C42.1799 2.61267 42.194 2.62285 42.1993 2.62977C42.2047 2.63669 42.2129 2.64361 42.2178 2.64483C42.2222 2.64605 42.2319 2.65379 42.2392 2.66193C42.247 2.67007 42.2557 2.67862 42.2596 2.68066C42.263 2.68229 42.2893 2.70183 42.318 2.72341C42.3685 2.76086 42.3987 2.78284 42.4716 2.83292C42.4901 2.84554 42.5241 2.87119 42.547 2.88951C42.5698 2.90823 42.5961 2.92818 42.6053 2.93429C42.6272 2.94895 42.6423 2.95994 42.7118 3.0149C42.7673 3.05846 42.8363 3.10935 42.8713 3.13174C42.881 3.13825 42.899 3.15087 42.9117 3.16024C42.9243 3.17001 42.9482 3.1867 42.9652 3.1981C42.9817 3.20909 43.0157 3.23433 43.0401 3.25346C43.0644 3.27301 43.1203 3.31616 43.1645 3.34995C43.2088 3.38333 43.2501 3.4159 43.2569 3.42201C43.2637 3.42812 43.2812 3.44074 43.2958 3.44969C43.3265 3.46883 43.3731 3.5018 43.395 3.52012C43.4033 3.52704 43.414 3.53437 43.4184 3.53641C43.4227 3.53844 43.449 3.55758 43.4767 3.57915C43.554 3.63941 43.6304 3.6964 43.6702 3.72327C43.6902 3.73671 43.7252 3.76235 43.748 3.78067C43.7709 3.79859 43.7986 3.81813 43.8098 3.82423C43.821 3.83034 43.8356 3.84093 43.8414 3.84785C43.8477 3.85477 43.8565 3.86169 43.8613 3.86332C43.8657 3.86495 43.9022 3.89181 43.9416 3.92316C44.0442 4.00499 44.0641 4.01965 44.1346 4.06728C44.1721 4.09252 44.2358 4.13893 44.2683 4.16417C44.3067 4.1943 44.3272 4.21018 44.4239 4.28264C44.4653 4.31358 44.5081 4.34697 44.5188 4.35633C44.5295 4.36569 44.5465 4.37791 44.5567 4.3832C44.5664 4.3889 44.5868 4.40233 44.6014 4.41332C44.616 4.42472 44.6306 4.43368 44.6335 4.43368C44.6369 4.43368 44.6491 4.44182 44.6617 4.45159C44.6739 4.46136 44.7069 4.48783 44.7351 4.51022C44.7974 4.55988 44.8868 4.62706 44.9321 4.65759C44.9505 4.6698 44.9865 4.69627 45.0123 4.71662C45.0381 4.73657 45.0755 4.76466 45.0954 4.77891C45.147 4.81555 45.1669 4.83061 45.2433 4.89005C45.2807 4.91936 45.3211 4.9499 45.3332 4.95804C45.3454 4.96618 45.3639 4.97921 45.375 4.98735C45.3857 4.99509 45.412 5.01341 45.4329 5.02806C45.4538 5.04272 45.4922 5.07081 45.5175 5.09035C45.5433 5.10989 45.5739 5.1335 45.5861 5.14205C45.658 5.19457 45.7256 5.24587 45.766 5.27844C45.7913 5.29879 45.82 5.31996 45.8292 5.32525C45.8384 5.33055 45.8662 5.34968 45.89 5.368C45.9143 5.38632 45.9386 5.40423 45.9449 5.40749C45.9513 5.41115 45.9775 5.43029 46.0033 5.45024C46.0753 5.50601 46.1482 5.56056 46.1939 5.59273C46.2168 5.6086 46.2493 5.63303 46.2664 5.64646C46.2834 5.66031 46.3121 5.68188 46.3305 5.6941C46.349 5.70631 46.3641 5.71771 46.3641 5.71934C46.3641 5.72097 46.3724 5.72666 46.3821 5.73236C46.3923 5.73806 46.4093 5.74987 46.42 5.75883C46.4555 5.78895 46.5848 5.88585 46.6262 5.91394C46.649 5.92941 46.6772 5.94935 46.6894 5.95872C46.702 5.96767 46.7166 5.97785 46.7225 5.98111C46.7278 5.98437 46.7531 6.00309 46.7784 6.02263C46.8776 6.09999 47.0157 6.20299 47.041 6.21805C47.0526 6.22497 47.0881 6.25184 47.1202 6.27749C47.1523 6.30273 47.1897 6.33082 47.2029 6.33896C47.2165 6.34751 47.2462 6.36949 47.2695 6.38822C47.3332 6.43952 47.3629 6.46028 47.3784 6.46557C47.3881 6.46842 47.4815 6.46964 47.6891 6.46924C47.8525 6.46883 48.3791 6.46842 48.8595 6.46801C49.7314 6.4672 49.7338 6.4672 49.7338 6.45906C49.7338 6.45132 49.7095 6.433 49.6303 6.38049C49.6191 6.37275 49.6001 6.35891 49.588 6.34914C49.5758 6.33937 49.5364 6.30924 49.5004 6.28156C49.4644 6.25387 49.4314 6.22823 49.4275 6.22456C49.4197 6.21723 49.4017 6.20421 49.3035 6.13337C49.2695 6.10854 49.2165 6.06905 49.1858 6.04462C49.1557 6.0206 49.1284 6.00106 49.126 6.00106C49.1231 6.00106 49.1022 5.98559 49.0788 5.96645C49.055 5.94732 49.0336 5.93185 49.0302 5.93185C49.0273 5.93185 49.0025 5.91394 48.9758 5.89195C48.9125 5.84066 48.8352 5.78285 48.7954 5.75761C48.7779 5.74661 48.7428 5.72056 48.7176 5.6998C48.6923 5.67903 48.6616 5.65583 48.6495 5.64769C48.6242 5.63059 48.5931 5.60738 48.5649 5.58336C48.542 5.56382 48.4589 5.50194 48.4068 5.46571C48.3324 5.414 48.3067 5.39568 48.2794 5.37492C48.2639 5.36352 48.2488 5.35375 48.2469 5.35375C48.2449 5.35375 48.2367 5.34642 48.2284 5.33747C48.2206 5.32851 48.2119 5.32118 48.2094 5.32118C48.2046 5.32118 48.1929 5.31263 48.0806 5.22348C48.0198 5.17544 47.975 5.14246 47.9376 5.11803C47.9293 5.11274 47.9031 5.09239 47.8788 5.07284C47.8549 5.05371 47.8267 5.03295 47.817 5.02684C47.8073 5.02073 47.783 5.00282 47.7635 4.98735C47.7441 4.97188 47.7261 4.95885 47.7237 4.95885C47.7212 4.95885 47.7076 4.94908 47.694 4.93728C47.6502 4.90104 47.5228 4.80578 47.4922 4.78746C47.4805 4.78013 47.4635 4.76873 47.4548 4.76181C47.4465 4.75489 47.4275 4.74064 47.4134 4.73006C47.3993 4.71947 47.3745 4.70074 47.359 4.68853C47.3429 4.67591 47.3278 4.66573 47.3249 4.66573C47.3225 4.66573 47.3128 4.65881 47.303 4.65026C47.2933 4.64171 47.2646 4.61932 47.2393 4.60019C47.2141 4.58146 47.18 4.555 47.1635 4.54156C47.1474 4.52813 47.1168 4.50533 47.0954 4.49068C47.0745 4.47602 47.0375 4.44874 47.0132 4.42961C46.9884 4.41047 46.9486 4.38035 46.9238 4.36244C46.899 4.34452 46.8751 4.32417 46.8708 4.31765C46.864 4.30625 46.863 4.15237 46.863 2.45634L46.8625 0.606835L46.843 0.604799C46.8324 0.603578 46.1351 0.602763 45.2934 0.603578C44.0456 0.604392 43.7621 0.605614 43.7568 0.610092C43.7514 0.61457 43.7505 0.738332 43.7495 1.26554C43.749 1.62298 43.7485 1.91895 43.748 1.92302C43.748 1.9271 43.7422 1.93483 43.7354 1.94012C43.7247 1.94827 43.7174 1.9503 43.6955 1.9503H43.6683L43.6192 1.90837C43.5764 1.87214 43.52 1.82939 43.4611 1.78909C43.4519 1.78257 43.4363 1.77077 43.4271 1.76262C43.4174 1.75448 43.4057 1.74634 43.4009 1.7439C43.3926 1.74023 43.3362 1.69667 43.2448 1.62461C43.218 1.60344 43.1796 1.57494 43.1602 1.56151C43.1402 1.54808 43.1052 1.52202 43.0824 1.5037C43.0595 1.48497 43.0352 1.46706 43.0284 1.46299C43.0172 1.45688 42.9953 1.44141 42.936 1.39704C42.9238 1.38808 42.8888 1.36203 42.8582 1.33923C42.8276 1.31643 42.7925 1.28956 42.7804 1.27898C42.7682 1.2688 42.743 1.24966 42.7245 1.23664C42.651 1.18615 42.6224 1.16539 42.5805 1.13201C42.5562 1.11287 42.5339 1.09659 42.5295 1.09537C42.5256 1.09415 42.5023 1.07664 42.4775 1.05629C42.4157 1.0058 42.3248 0.937002 42.2669 0.897105C42.2407 0.878785 42.2066 0.853544 42.192 0.840924C42.1774 0.828303 42.1541 0.811611 42.14 0.804283C42.1264 0.796548 42.1123 0.786778 42.1094 0.782299C42.1064 0.777821 42.0992 0.771715 42.0923 0.768865C42.0812 0.763573 42.0267 0.722861 41.9343 0.649581C41.909 0.629226 41.8696 0.599914 41.8468 0.584443C41.8239 0.568566 41.7948 0.546582 41.7811 0.53559C41.768 0.524191 41.7437 0.505871 41.7277 0.494879C41.7116 0.483887 41.6873 0.466381 41.6742 0.456203C41.6605 0.446026 41.6343 0.426891 41.6158 0.413457C41.5973 0.400022 41.5789 0.385773 41.5745 0.382109C41.5618 0.369896 41.5584 0.36786 41.5015 0.325521C41.4709 0.302722 41.4369 0.277481 41.4267 0.269339C41.416 0.261197 41.3985 0.249391 41.3873 0.24247C41.3591 0.225372 41.3187 0.19606 41.2662 0.154127C41.2419 0.134586 41.2205 0.118301 41.2185 0.118301C41.2127 0.118301 41.1018 0.032808 41.0897 0.0189662C41.0688 -0.00423915 41.0542 -0.00546042 41.0357 0.0132667Z" fill="#F07C63"/>
<path d="M43.5216 4.71255C43.5022 4.7154 43.4759 4.72313 43.4608 4.73005C43.4448 4.73779 43.4205 4.7443 43.4 4.74715C43.3816 4.75 43.3607 4.75529 43.3539 4.75896C43.3315 4.77199 43.3028 4.78339 43.2824 4.78786C43.2717 4.79031 43.2517 4.79926 43.2391 4.80822C43.2265 4.81677 43.2094 4.82532 43.2012 4.82695C43.1929 4.82817 43.1773 4.83631 43.1666 4.84486C43.1559 4.85341 43.1394 4.86359 43.1292 4.86766C43.0961 4.88191 42.9862 4.9674 42.9634 4.9963C42.9556 5.0073 42.9469 5.01585 42.9449 5.01585C42.9425 5.01585 42.9352 5.0244 42.9279 5.03498C42.9206 5.04597 42.9075 5.06104 42.8987 5.06877C42.89 5.07651 42.8773 5.0936 42.8705 5.10663C42.8637 5.11966 42.8525 5.13594 42.8462 5.14246C42.8399 5.14897 42.8302 5.16363 42.8248 5.17543C42.819 5.18724 42.8078 5.208 42.7995 5.22144C42.7908 5.23569 42.7815 5.2593 42.7776 5.27762C42.7742 5.29512 42.764 5.32159 42.7558 5.33665C42.7363 5.37125 42.7314 5.40545 42.7314 5.50438C42.7319 5.60127 42.7407 5.66722 42.7577 5.69409C42.7655 5.70671 42.7728 5.7287 42.7772 5.75435C42.782 5.78203 42.7874 5.79709 42.7937 5.8032C42.8073 5.81541 42.817 5.83292 42.8253 5.86019C42.8297 5.87322 42.8374 5.88788 42.8428 5.89276C42.8481 5.89765 42.8603 5.91556 42.87 5.93307C42.8802 5.95179 42.8929 5.96767 42.9016 5.97337C42.9094 5.97826 42.9172 5.98558 42.9191 5.98966C42.9206 5.99373 42.9303 6.00553 42.941 6.01571C42.9512 6.02589 42.96 6.03525 42.96 6.03688C42.96 6.03973 42.9906 6.06741 43.0485 6.1179C43.0835 6.14843 43.1253 6.17774 43.1418 6.18344C43.1501 6.18629 43.1623 6.19321 43.1691 6.1985C43.1759 6.2042 43.1958 6.21438 43.2128 6.2213C43.2303 6.22822 43.2513 6.23881 43.259 6.24532C43.2678 6.25184 43.2843 6.25876 43.2994 6.26161C43.3135 6.26446 43.3363 6.27301 43.35 6.28074C43.3699 6.29255 43.3821 6.2958 43.419 6.30069C43.4433 6.30354 43.4769 6.31087 43.4929 6.31616C43.5503 6.3357 43.6388 6.34466 43.7453 6.34099C43.8382 6.33814 43.8761 6.33285 43.9451 6.31249C43.9719 6.30476 44.0011 6.29825 44.0103 6.29825C44.0263 6.29825 44.0341 6.29499 44.0657 6.27626C44.0725 6.27219 44.0939 6.26527 44.1134 6.2612C44.1323 6.25672 44.1528 6.2498 44.1581 6.24573C44.1693 6.23718 44.2004 6.22374 44.2194 6.21886C44.2262 6.21723 44.2427 6.20746 44.2563 6.19688C44.2704 6.1867 44.2991 6.16716 44.321 6.15372C44.3769 6.11952 44.447 6.05724 44.4883 6.00513C44.498 5.99291 44.5126 5.97744 44.5204 5.97134C44.5286 5.96482 44.5364 5.95383 44.5384 5.94569C44.5398 5.93795 44.5486 5.92452 44.5573 5.91597C44.5656 5.90701 44.5748 5.8948 44.5778 5.88869C44.5807 5.88218 44.587 5.86793 44.5914 5.85734C44.5957 5.84676 44.605 5.83292 44.6113 5.8264C44.6225 5.81501 44.6274 5.80198 44.6376 5.75312C44.6405 5.73888 44.6497 5.7173 44.658 5.70509C44.6711 5.68554 44.6735 5.6774 44.6769 5.6375C44.6813 5.58295 44.6818 5.47792 44.6769 5.40464C44.6745 5.35823 44.6721 5.34927 44.6609 5.33136C44.6541 5.31996 44.6449 5.29797 44.6405 5.2825C44.6259 5.23121 44.622 5.22184 44.6074 5.20393C44.5996 5.19416 44.5885 5.17584 44.5831 5.16241C44.5778 5.14897 44.5666 5.13187 44.5568 5.12373C44.5476 5.11559 44.5403 5.10622 44.5403 5.10297C44.5403 5.08913 44.4907 5.02684 44.4547 4.99549C44.3779 4.92832 44.3196 4.88272 44.2948 4.87051C44.2787 4.86277 44.2588 4.85097 44.25 4.84445C44.2413 4.83835 44.2247 4.8298 44.2131 4.82532C44.2019 4.82125 44.1844 4.81188 44.1746 4.80456C44.1649 4.79763 44.1464 4.78908 44.1333 4.78583C44.1207 4.78257 44.0998 4.77484 44.0876 4.76792C44.0755 4.7614 44.0448 4.75163 44.0195 4.74593C43.9942 4.74064 43.9588 4.73128 43.9398 4.72558C43.9213 4.71988 43.8916 4.71296 43.8741 4.71092C43.8289 4.70481 43.5644 4.70603 43.5216 4.71255Z" fill="#1F294C"/>
<path d="M38.2021 6.33485C38.1681 6.3377 38.1506 6.34177 38.1243 6.35236C38.0816 6.36986 38.0786 6.37027 38.0407 6.37516C38.0174 6.3776 38.0028 6.38248 37.9843 6.39307C37.9702 6.4008 37.9469 6.41017 37.9318 6.41383C37.9167 6.41749 37.9002 6.42401 37.8953 6.42849C37.89 6.43337 37.8754 6.44151 37.8618 6.44721C37.8486 6.45291 37.8311 6.46228 37.8229 6.46838C37.8151 6.47449 37.7976 6.48508 37.784 6.49118C37.7276 6.51805 37.6216 6.6068 37.5822 6.66013C37.5734 6.67235 37.5613 6.687 37.5549 6.6927C37.5491 6.6984 37.5394 6.71102 37.5335 6.7212C37.5272 6.73138 37.5165 6.74522 37.5092 6.75255C37.5015 6.75947 37.4922 6.77535 37.4878 6.78797C37.4835 6.80018 37.4747 6.81565 37.4679 6.82216C37.4514 6.83885 37.4465 6.85107 37.4363 6.90074C37.4295 6.93249 37.4232 6.9504 37.412 6.96669C37.3911 6.99804 37.3857 7.04526 37.3891 7.17106C37.392 7.27854 37.4003 7.33065 37.4188 7.35792C37.4251 7.36729 37.4329 7.38642 37.4363 7.40108C37.4402 7.41736 37.4494 7.43772 37.4611 7.454C37.4713 7.46866 37.482 7.48942 37.4854 7.50082C37.4927 7.52647 37.5019 7.54194 37.5194 7.55903C37.5272 7.56636 37.5335 7.57491 37.5335 7.57858C37.5335 7.58183 37.5413 7.5916 37.5506 7.59975C37.5603 7.60789 37.5807 7.62865 37.5963 7.64534C37.6308 7.68239 37.7786 7.80412 37.7888 7.80412C37.7986 7.80412 37.8336 7.82366 37.837 7.83058C37.8384 7.83383 37.8511 7.84116 37.8652 7.84727C37.8793 7.85297 37.8987 7.86274 37.908 7.86885C37.9172 7.87455 37.9396 7.88228 37.9576 7.88635C37.9756 7.89002 38.0018 7.89979 38.0164 7.90793C38.0349 7.91811 38.0514 7.92381 38.0713 7.92625C38.1034 7.92991 38.1346 7.93887 38.153 7.94864C38.1871 7.96737 38.4934 7.96777 38.5537 7.94905C38.5649 7.94538 38.5829 7.93968 38.5936 7.93643C38.6048 7.93317 38.6281 7.92869 38.6456 7.92625C38.667 7.92381 38.6903 7.91729 38.7147 7.90671C38.7351 7.89775 38.7628 7.88839 38.7764 7.88594C38.7925 7.88269 38.8066 7.87658 38.8153 7.86885C38.8226 7.86233 38.8411 7.85215 38.8562 7.84646C38.8707 7.84076 38.8883 7.8318 38.8951 7.82651C38.9019 7.82162 38.915 7.81348 38.9247 7.80941C38.9549 7.79597 38.9991 7.76259 39.0774 7.69338C39.0896 7.6832 39.1037 7.66814 39.1095 7.66C39.1148 7.65186 39.1217 7.64534 39.1241 7.64534C39.1265 7.64534 39.1358 7.63557 39.145 7.62377C39.1537 7.61237 39.1664 7.59893 39.1722 7.59445C39.1781 7.58998 39.1902 7.5741 39.199 7.55903C39.2077 7.54397 39.2199 7.52647 39.2252 7.51954C39.2364 7.50692 39.2408 7.49675 39.25 7.46703C39.2529 7.45766 39.2622 7.44342 39.27 7.43568C39.2821 7.42428 39.286 7.41492 39.2923 7.38601C39.2962 7.36606 39.3059 7.33716 39.3137 7.32169C39.3337 7.28098 39.3376 7.26144 39.341 7.1792C39.3448 7.07579 39.3332 7.00129 39.303 6.94104C39.2982 6.93086 39.2928 6.91336 39.2909 6.90236C39.2875 6.87957 39.2724 6.84659 39.2588 6.83153C39.2539 6.82623 39.25 6.81809 39.25 6.81321C39.25 6.80873 39.2437 6.79611 39.2364 6.78552C39.2291 6.77494 39.214 6.75255 39.2024 6.73545C39.1912 6.71876 39.1766 6.70207 39.1703 6.69881C39.164 6.69514 39.1557 6.6866 39.1523 6.67927C39.1416 6.65688 39.1192 6.63408 39.0332 6.55754C39.0045 6.53189 38.9592 6.50055 38.9325 6.48752C38.9194 6.48141 38.9077 6.47368 38.9062 6.47042C38.9048 6.46716 38.8936 6.45983 38.881 6.45495C38.8688 6.44966 38.8498 6.43948 38.8396 6.43256C38.8294 6.42564 38.8095 6.41709 38.7959 6.41383C38.7822 6.41017 38.7623 6.40243 38.7516 6.39592C38.7297 6.38289 38.7122 6.378 38.6665 6.37108C38.649 6.36864 38.6228 6.36091 38.6082 6.35399C38.5863 6.34381 38.5717 6.34014 38.5279 6.33607C38.4681 6.32997 38.2707 6.32956 38.2021 6.33485Z" fill="#1F294C"/>
<path d="M42.7122 6.69294C42.6893 6.69457 42.56 6.6962 42.4248 6.6962C42.2736 6.6966 42.1705 6.69823 42.1564 6.70068C42.1443 6.70312 42.1199 6.71167 42.1024 6.7194C42.0786 6.73039 42.0626 6.73487 42.0344 6.73732C42.0028 6.74057 41.9925 6.74342 41.9682 6.75686C41.9527 6.76581 41.9293 6.77558 41.9162 6.77843C41.9036 6.78128 41.8802 6.79187 41.8647 6.80164C41.8486 6.811 41.834 6.81915 41.8316 6.81915C41.8292 6.81915 41.8151 6.8281 41.8005 6.8395C41.7859 6.85049 41.7708 6.85986 41.7669 6.85986C41.7635 6.85986 41.7465 6.87003 41.7295 6.88265C41.6424 6.94616 41.5875 6.99705 41.5651 7.0341C41.5593 7.04387 41.5457 7.05893 41.5355 7.0683C41.5248 7.07725 41.516 7.08702 41.516 7.08987C41.516 7.09232 41.5068 7.10657 41.4961 7.12081C41.4849 7.13506 41.4708 7.1599 41.465 7.17577C41.4591 7.19206 41.4475 7.21282 41.4392 7.22259C41.4275 7.23643 41.4236 7.24661 41.4212 7.26697C41.4168 7.30727 41.409 7.33251 41.3964 7.35124C41.3896 7.3606 41.3823 7.37811 41.3799 7.38951C41.3765 7.40294 41.375 7.82512 41.375 8.56402V9.71778L41.392 9.7479C41.4013 9.76459 41.409 9.78088 41.409 9.78414C41.409 9.79635 41.4251 9.822 41.445 9.84113C41.4834 9.87818 41.5262 9.91319 41.5408 9.9197C41.5491 9.92296 41.5637 9.93192 41.5734 9.93925C41.5865 9.94902 41.5996 9.95431 41.6206 9.95797C41.6366 9.96082 41.6629 9.96734 41.6784 9.97263C41.7027 9.98077 41.7159 9.9824 41.7601 9.9824C41.8087 9.9824 41.8175 9.98118 41.872 9.96571C41.9128 9.95431 41.9391 9.94454 41.9556 9.93355C41.9979 9.90708 42.0485 9.86719 42.0621 9.85009C42.0689 9.84113 42.0815 9.82648 42.0898 9.81711C42.0981 9.80816 42.1078 9.79065 42.1117 9.77844C42.1151 9.76622 42.1243 9.74465 42.1321 9.72999L42.1457 9.70353L42.1467 8.78671C42.1472 7.98023 42.1481 7.86868 42.155 7.8585C42.1691 7.83489 42.1632 7.8357 42.3563 7.83489L42.5347 7.83448L42.5532 7.84954L42.5722 7.86501L42.5688 7.89677C42.5668 7.91427 42.5644 9.12828 42.5634 10.5951L42.5615 13.2617L42.5717 13.2983C42.5853 13.3492 42.5916 13.3631 42.6145 13.3968C42.6256 13.4131 42.6344 13.4286 42.6344 13.431C42.6344 13.4335 42.6436 13.4437 42.6553 13.453C42.6665 13.4624 42.6913 13.4836 42.7098 13.5002C42.7287 13.5169 42.7526 13.5353 42.7633 13.541C42.774 13.5467 42.7856 13.5544 42.7895 13.5581C42.7929 13.5621 42.8206 13.5747 42.8503 13.587C42.8926 13.6041 42.913 13.6102 42.9451 13.6142C43.0404 13.6256 43.1688 13.6183 43.2082 13.5984C43.2203 13.5923 43.2422 13.5837 43.2568 13.5792C43.2719 13.5743 43.2976 13.5617 43.3147 13.5507C43.3565 13.523 43.4202 13.4705 43.4241 13.4604C43.426 13.4555 43.4323 13.449 43.4387 13.4453C43.4455 13.442 43.4571 13.4266 43.4659 13.4115C43.4742 13.3964 43.4863 13.3773 43.4926 13.3696C43.499 13.3618 43.5087 13.339 43.5145 13.3187C43.5242 13.2837 43.5247 13.2735 43.5238 13.0479C43.5228 12.9193 43.5218 12.1955 43.5208 11.4399C43.5199 10.6843 43.5184 10.0557 43.5179 10.0435C43.517 10.0178 43.5252 10.0011 43.5447 9.98932C43.5573 9.98159 43.5646 9.98118 43.6832 9.98199C43.7518 9.9824 43.8097 9.98362 43.8121 9.98484C43.8141 9.98566 43.8296 9.98362 43.8471 9.97996C43.8865 9.97181 43.9098 9.97466 43.9288 9.99054L43.9424 10.0019V11.6446V13.2873L43.9594 13.3142C43.9687 13.3289 43.9799 13.3541 43.9842 13.37C43.991 13.3944 43.9959 13.4021 44.0158 13.4209C44.029 13.4331 44.0397 13.4457 44.0397 13.4494C44.0397 13.4526 44.0426 13.4551 44.0465 13.4542C44.0591 13.4518 44.1627 13.3712 44.2634 13.2857C44.5298 13.0585 44.7457 12.8212 44.8172 12.6771C44.8386 12.6343 44.8605 12.6009 44.8965 12.557L44.9198 12.5281L44.9178 10.2263C44.9169 8.96014 44.9144 7.9155 44.9125 7.90491C44.9081 7.88089 44.9193 7.85321 44.9378 7.84099C44.9495 7.83326 44.9553 7.83326 45.0637 7.8357C45.1454 7.83733 45.1911 7.83692 45.2256 7.83285C45.2821 7.82675 45.3039 7.82919 45.3244 7.84466C45.3385 7.85484 45.3399 7.85891 45.3419 7.88333C45.3428 7.8984 45.3414 7.9216 45.3385 7.93463C45.3312 7.96476 45.3307 8.53064 45.338 8.55547C45.3438 8.57624 45.3438 9.13764 45.3375 9.15881C45.3331 9.17428 45.3307 9.67829 45.3346 9.68439C45.336 9.68602 45.3385 9.69457 45.3399 9.70353C45.354 9.78251 45.353 9.78007 45.3735 9.79513C45.3958 9.81182 45.406 9.82933 45.406 9.85172C45.406 9.87736 45.3997 9.88551 45.3565 9.91685C45.2855 9.96896 45.2568 9.99217 45.2412 10.0117C45.2329 10.0219 45.2227 10.0313 45.2188 10.0325C45.215 10.0341 45.2086 10.041 45.2052 10.0488C45.2013 10.0561 45.1916 10.0671 45.1829 10.0728C45.1731 10.0801 45.1629 10.0944 45.1532 10.1151C45.1454 10.1322 45.1347 10.1505 45.1294 10.155C45.1177 10.1652 45.1104 10.1811 45.1041 10.2079C45.1017 10.2189 45.0944 10.2373 45.088 10.2487C45.0671 10.2857 45.0642 10.3024 45.0637 10.3854L45.0632 10.4652L45.0783 10.4811C45.0866 10.4901 45.0978 10.5055 45.1036 10.5157C45.1167 10.5393 45.1478 10.5605 45.1979 10.5817C45.2504 10.6037 45.2966 10.6098 45.3351 10.6C45.3501 10.5959 45.3633 10.591 45.3652 10.5886C45.3667 10.5861 45.3798 10.58 45.3939 10.5752C45.4313 10.5609 45.4911 10.5125 45.5004 10.488C45.5116 10.4591 45.5179 10.4237 45.5179 10.3928C45.5179 10.3692 45.5208 10.3586 45.5369 10.3272C45.5471 10.3065 45.5568 10.2853 45.5582 10.2796C45.5641 10.26 45.6224 10.2185 45.6686 10.201C45.6861 10.1945 45.7124 10.1843 45.727 10.1786C45.7751 10.1591 45.8446 10.1619 45.902 10.186C45.9166 10.1921 45.9361 10.1986 45.9443 10.2002C45.9623 10.2031 46.0207 10.2454 46.0357 10.2657C46.0411 10.2731 46.0518 10.2857 46.0596 10.2934C46.0674 10.3016 46.0756 10.3162 46.0785 10.3256C46.0819 10.337 46.0849 10.6159 46.0863 11.172L46.0892 12.0009L46.1184 12.0139C46.2239 12.0603 46.2891 12.1332 46.3187 12.2378C46.3309 12.2809 46.3319 12.2911 46.3319 12.3701C46.3319 12.4247 46.3285 12.4772 46.3231 12.5146C46.2905 12.7463 46.2055 13.0414 46.1082 13.2609L46.0868 13.3089V13.3838V13.4587L46.1087 13.4978C46.1325 13.5397 46.1607 13.569 46.1889 13.5813C46.1982 13.5853 46.2108 13.5931 46.2171 13.5988L46.2283 13.6085L46.3217 13.5695C46.3732 13.5479 46.4408 13.5218 46.4719 13.5121C46.5137 13.4986 46.5303 13.4917 46.5322 13.4856C46.5337 13.4811 46.538 13.4717 46.5415 13.4652C46.5449 13.4583 46.5497 13.4477 46.5531 13.4416C46.557 13.4331 46.5585 13.0374 46.5585 11.9027C46.558 10.3069 46.559 10.3598 46.539 10.3183C46.5361 10.3113 46.5303 10.2861 46.5264 10.2617C46.521 10.2263 46.5162 10.2128 46.5045 10.1957C46.4962 10.1835 46.4855 10.1615 46.4807 10.1465C46.4734 10.1253 46.4671 10.1159 46.4544 10.1066C46.4452 10.0996 46.4325 10.0842 46.4257 10.072C46.4194 10.0598 46.4102 10.0471 46.4058 10.0439C46.4014 10.0406 46.3897 10.0288 46.381 10.0174C46.3717 10.006 46.3567 9.99217 46.3474 9.98688C46.3377 9.98159 46.329 9.97426 46.3275 9.97019C46.326 9.96652 46.3129 9.95512 46.2983 9.94535C46.2837 9.93558 46.2716 9.92622 46.2716 9.92459C46.2716 9.92296 46.2633 9.91808 46.2531 9.9136C46.2429 9.90912 46.2225 9.89772 46.2079 9.88795C46.1933 9.87818 46.1729 9.868 46.1622 9.86515C46.1418 9.86027 46.0887 9.82485 46.0785 9.80978C46.0703 9.79798 46.0708 9.76459 46.079 9.75116C46.0824 9.74505 46.0868 9.71981 46.0887 9.69539C46.0907 9.67055 46.0922 9.15515 46.0926 8.54937C46.0926 7.73515 46.0912 7.43307 46.0868 7.39114C46.0819 7.33862 46.08 7.33129 46.063 7.30157C46.0523 7.28284 46.0421 7.25598 46.0382 7.23847C46.0314 7.20509 46.028 7.19735 46.0109 7.18025C46.0046 7.17374 45.9959 7.15827 45.9915 7.14606C45.9866 7.13262 45.9779 7.11878 45.9701 7.11267C45.9628 7.10697 45.9521 7.09313 45.9463 7.08255C45.9409 7.07155 45.9278 7.05405 45.9176 7.04387C45.9069 7.03329 45.8947 7.01904 45.8904 7.01171C45.8729 6.9828 45.7411 6.87451 45.7041 6.85823C45.6954 6.85456 45.6808 6.8452 45.6711 6.83747C45.6618 6.82973 45.6526 6.82322 45.6506 6.82322C45.6424 6.82322 45.6069 6.8053 45.5899 6.79228C45.5796 6.78495 45.5655 6.77762 45.5582 6.77599C45.5505 6.77436 45.5281 6.76622 45.5082 6.75767C45.4834 6.74709 45.46 6.74057 45.4352 6.73772C45.4104 6.73487 45.3895 6.72877 45.3691 6.71981C45.3511 6.71126 45.3268 6.70434 45.3059 6.70149C45.2592 6.69498 44.9324 6.69172 44.5016 6.69253C43.9701 6.69416 43.5048 6.69375 43.1061 6.69172C42.912 6.6905 42.7351 6.69131 42.7122 6.69294Z" fill="#1F294C"/>
<path d="M38.1878 8.36625C38.1747 8.36788 38.1334 8.37765 38.0964 8.38824C38.06 8.39841 38.0245 8.40696 38.0181 8.40696C38.0118 8.40696 37.9953 8.41348 37.9812 8.42162C37.9676 8.42976 37.9457 8.43872 37.9335 8.44157C37.9209 8.44482 37.8976 8.45541 37.8815 8.46477C37.8655 8.47454 37.846 8.48472 37.8382 8.48757C37.8305 8.49042 37.8154 8.49897 37.8042 8.5063C37.7935 8.51363 37.7789 8.52218 37.7721 8.52502C37.7488 8.5352 37.671 8.59627 37.6126 8.65042C37.5902 8.67118 37.5372 8.73754 37.5319 8.75138C37.5304 8.75626 37.5202 8.76766 37.51 8.77703C37.4998 8.78598 37.4891 8.80064 37.4862 8.80919C37.4833 8.81774 37.4731 8.83199 37.4643 8.84054C37.4551 8.84949 37.4419 8.86618 37.4351 8.87758C37.4283 8.88858 37.4191 8.90038 37.4147 8.90364C37.4103 8.9069 37.3987 8.92237 37.3894 8.93784C37.3802 8.95371 37.3675 8.97081 37.3617 8.9761C37.3564 8.9814 37.3461 8.99442 37.3393 9.00501C37.3194 9.03758 37.2892 9.07503 37.2683 9.09457C37.2572 9.10475 37.246 9.11941 37.2431 9.12674C37.2401 9.13406 37.2309 9.1475 37.2226 9.15605C37.2144 9.1646 37.2027 9.1817 37.1964 9.1935C37.1901 9.20571 37.1794 9.22078 37.1725 9.2277C37.1662 9.23421 37.1546 9.25009 37.1473 9.26271C37.14 9.27574 37.1264 9.29162 37.1176 9.29854C37.1084 9.30546 37.0977 9.31767 37.0938 9.32622C37.0894 9.33436 37.0806 9.34576 37.0748 9.35146C37.0685 9.35716 37.0583 9.37182 37.052 9.38403C37.0461 9.39624 37.032 9.41456 37.0208 9.42474C37.0101 9.43492 36.998 9.44672 36.9941 9.45161C36.9902 9.4565 36.9795 9.46342 36.9703 9.46749C36.9547 9.474 36.9226 9.47441 36.4821 9.474L36.0104 9.47359L35.9321 9.48825C35.849 9.50331 35.8295 9.50901 35.8154 9.52204C35.8105 9.52652 35.7945 9.53425 35.7799 9.53873C35.7653 9.54321 35.7439 9.5542 35.7332 9.56275C35.7221 9.57171 35.6987 9.58962 35.6817 9.60265C35.6647 9.61568 35.6462 9.6344 35.6399 9.64458C35.6336 9.65476 35.6233 9.66697 35.6165 9.67186C35.6083 9.67756 35.6 9.69262 35.5912 9.71583C35.584 9.73537 35.5752 9.75206 35.5713 9.75328C35.5679 9.75409 35.5611 9.76386 35.5562 9.77404C35.5489 9.79033 35.5475 9.8058 35.5475 9.87908V9.96498L35.5679 9.99917C35.5786 10.0179 35.5903 10.0403 35.5937 10.0492C35.5971 10.0578 35.6068 10.0716 35.6151 10.0798C35.6233 10.0879 35.6365 10.1014 35.6443 10.1099C35.6686 10.1372 35.7464 10.1987 35.7668 10.206C35.7775 10.2101 35.796 10.219 35.8071 10.2259C35.8188 10.2333 35.8363 10.2398 35.846 10.2414C35.8558 10.2426 35.8811 10.2508 35.9025 10.2589L35.9414 10.2736L36.61 10.2748C37.2708 10.2756 37.279 10.2756 37.3014 10.2675C37.314 10.263 37.3296 10.2593 37.3369 10.2593C37.3549 10.2593 37.3753 10.2691 37.3816 10.2805C37.388 10.2919 37.3923 10.5614 37.3865 10.5756C37.3846 10.5801 37.3768 10.5875 37.3695 10.5919C37.3568 10.5988 37.3427 10.5993 37.1059 10.598C36.6737 10.5956 36.201 10.5964 35.8757 10.6001L35.5621 10.6033L35.528 10.618C35.5096 10.6261 35.4843 10.6355 35.4721 10.6383C35.46 10.6412 35.442 10.6493 35.4322 10.6567C35.4225 10.664 35.406 10.6738 35.3958 10.6782C35.3729 10.688 35.283 10.7645 35.2689 10.7865C35.263 10.7955 35.2562 10.8105 35.2533 10.8203C35.2504 10.8297 35.2421 10.8427 35.2343 10.8492C35.227 10.8553 35.2188 10.8659 35.2159 10.8724C35.2129 10.8789 35.2066 10.8932 35.2022 10.9038C35.1979 10.9144 35.1891 10.9282 35.1833 10.9343C35.177 10.9404 35.1667 10.9575 35.1599 10.9726C35.1531 10.9872 35.141 11.0064 35.1332 11.0153C35.1201 11.0292 35.1157 11.0381 35.105 11.0727C35.103 11.0776 35.0948 11.0882 35.0855 11.0959C35.0748 11.1057 35.0676 11.1179 35.0637 11.1318C35.0603 11.1436 35.0505 11.1615 35.0418 11.1717C35.033 11.1822 35.0199 11.2038 35.0131 11.2201C35.0058 11.2368 34.9946 11.2539 34.9883 11.2592C34.982 11.2641 34.9722 11.2804 34.9669 11.2954C34.9606 11.3117 34.9499 11.3292 34.9397 11.3394C34.9304 11.3483 34.9226 11.3581 34.9226 11.361C34.9226 11.3715 34.9022 11.4119 34.8915 11.4228C34.8852 11.4289 34.8745 11.4477 34.8672 11.4644C34.8599 11.4811 34.8517 11.4965 34.8483 11.499C34.8371 11.5063 34.8215 11.5311 34.8181 11.547C34.8162 11.5556 34.8074 11.5698 34.7987 11.5784C34.7894 11.5873 34.7787 11.6044 34.7743 11.6158C34.7651 11.6394 34.7476 11.6679 34.7427 11.6679C34.7408 11.6679 34.7335 11.6814 34.7262 11.6972C34.7053 11.7432 34.7043 11.7453 34.699 11.7453C34.6927 11.7453 34.6698 11.7868 34.6698 11.7978C34.6698 11.8023 34.662 11.8133 34.6528 11.8226C34.6435 11.8316 34.6324 11.8499 34.6275 11.8625C34.6183 11.8878 34.6032 11.9122 34.5969 11.9122C34.5925 11.9122 34.5677 11.9635 34.5677 11.972C34.5677 11.9749 34.5614 11.9826 34.5536 11.9891C34.5448 11.9969 34.5351 12.0119 34.5298 12.0278C34.5239 12.0445 34.5132 12.0608 34.5025 12.0714C34.4928 12.0811 34.485 12.0909 34.485 12.0938C34.485 12.1043 34.4646 12.1447 34.4558 12.1516C34.451 12.1552 34.4422 12.174 34.4359 12.1931C34.4169 12.2538 34.3941 12.2932 34.3649 12.3177C34.3508 12.3299 34.3391 12.3417 34.3391 12.3445C34.3391 12.3519 34.3119 12.3995 34.3066 12.4011C34.3012 12.4032 34.2759 12.452 34.2759 12.4602C34.2759 12.4634 34.272 12.4691 34.2677 12.4732C34.2526 12.4858 34.2424 12.5013 34.2365 12.5208C34.2336 12.531 34.2234 12.5469 34.2147 12.5558C34.2054 12.5648 34.1957 12.5799 34.1928 12.5892C34.186 12.61 34.1656 12.645 34.1597 12.645C34.1573 12.645 34.1544 12.6482 34.1529 12.6519C34.1403 12.6853 34.1242 12.717 34.1179 12.7207C34.1111 12.7248 34.1111 12.7305 34.1179 12.7757C34.1218 12.8034 34.1252 12.8331 34.1252 12.8416C34.1252 12.8502 34.1296 12.8636 34.1344 12.8722C34.1621 12.9173 34.3231 13.0505 34.4875 13.1645C34.5755 13.2251 34.7461 13.333 34.7544 13.333C34.7593 13.333 34.8351 13.2675 34.8351 13.2638C34.8351 13.2618 34.8439 13.2516 34.8546 13.2414C34.8653 13.2312 34.874 13.2194 34.874 13.2158C34.874 13.206 34.8954 13.1693 34.9042 13.1628C34.9085 13.16 34.9188 13.1413 34.9275 13.1209C34.9363 13.1005 34.9465 13.083 34.9504 13.0818C34.9581 13.0794 34.981 13.0387 34.981 13.0277C34.981 13.0236 34.9888 13.0126 34.998 13.0032C35.0073 12.9939 35.0175 12.9788 35.0204 12.9695C35.0272 12.9487 35.0374 12.9308 35.0496 12.9198C35.0544 12.9153 35.0651 12.8962 35.0734 12.877C35.0817 12.8579 35.0928 12.8396 35.0977 12.8363C35.103 12.8331 35.1128 12.8152 35.1196 12.7964C35.1288 12.7724 35.1356 12.761 35.1439 12.7565C35.1512 12.7525 35.1585 12.7431 35.1614 12.7329C35.174 12.6947 35.177 12.689 35.193 12.6747C35.2022 12.667 35.2095 12.6572 35.2095 12.6535C35.2095 12.6393 35.2256 12.6096 35.2392 12.5978C35.2533 12.5856 35.2737 12.5395 35.2742 12.5188C35.2747 12.5131 35.2718 12.4773 35.2684 12.4394C35.2543 12.2928 35.2771 12.1845 35.336 12.1117C35.3739 12.0649 35.4143 12.0339 35.4726 12.0062C35.5018 11.9928 35.5548 11.9765 35.5859 11.9716C35.6136 11.9671 35.6389 11.9423 35.652 11.9073C35.6574 11.8918 35.6681 11.8735 35.6759 11.8666C35.6832 11.8593 35.6943 11.8418 35.7007 11.8275C35.7148 11.7953 35.7279 11.7884 35.7736 11.7888C35.7911 11.7888 36.3605 11.7901 37.0388 11.7913C37.7172 11.7925 38.2744 11.7945 38.2773 11.7958C38.2802 11.7974 38.2953 11.7966 38.3104 11.7941C38.3259 11.7917 38.3867 11.788 38.4456 11.7856C38.535 11.7823 38.5555 11.7803 38.5696 11.7738C38.6128 11.7542 38.6299 11.7489 38.6585 11.7461C38.6829 11.7436 38.696 11.7392 38.7179 11.7274C38.7329 11.7188 38.7577 11.709 38.7728 11.7058C38.7898 11.7021 38.803 11.6964 38.8093 11.6899C38.8146 11.6842 38.8321 11.674 38.8482 11.6675C38.8647 11.661 38.8837 11.6512 38.8905 11.6459C38.8973 11.6406 38.9104 11.6329 38.9197 11.6292C38.9367 11.6219 38.9493 11.6126 39.0155 11.5568C39.0845 11.4994 39.0937 11.4904 39.1059 11.4701C39.1127 11.4587 39.1219 11.4481 39.1258 11.4469C39.1326 11.4444 39.1443 11.4265 39.1506 11.4086C39.1521 11.4037 39.1618 11.3935 39.172 11.3862C39.1861 11.376 39.192 11.3679 39.1963 11.3516C39.1997 11.3398 39.2109 11.3186 39.2211 11.3048C39.2343 11.2865 39.2411 11.2706 39.2455 11.2486C39.2489 11.2319 39.2552 11.2136 39.2596 11.2079C39.2858 11.1725 39.2882 11.1631 39.2946 11.0687C39.3019 10.9473 39.3019 9.20979 39.2946 9.08073L39.2892 8.99117L39.2698 8.95901C39.2561 8.93661 39.2484 8.91789 39.2445 8.89672C39.2406 8.87473 39.2357 8.86293 39.227 8.85438C39.2207 8.84786 39.2085 8.82832 39.2007 8.81082C39.1929 8.79372 39.1798 8.77377 39.1725 8.76726C39.1647 8.76034 39.154 8.74649 39.1487 8.73591C39.139 8.71637 39.1112 8.68421 39.0762 8.65123C39.0354 8.61296 38.9454 8.53968 38.9245 8.52787C38.9124 8.52095 38.8944 8.50955 38.8846 8.50223C38.8749 8.4949 38.8574 8.48676 38.8467 8.48431C38.8355 8.48187 38.8171 8.47291 38.8064 8.46437C38.7923 8.45378 38.7777 8.44727 38.7602 8.4436C38.7456 8.44075 38.7227 8.4322 38.7091 8.42447C38.6955 8.41673 38.6746 8.409 38.6624 8.40696C38.6503 8.40493 38.6104 8.39434 38.5744 8.38416L38.5088 8.36503L38.3605 8.36381C38.2788 8.3634 38.2015 8.36422 38.1878 8.36625Z" fill="#1F294C"/>
<path d="M32.4678 9.36475C32.4707 9.37615 32.4984 9.50846 32.53 9.65868C32.5616 9.81013 32.5893 9.93185 32.5922 9.93267C32.6073 9.93674 32.7639 10.0275 32.814 10.0613C33.0289 10.2054 33.2317 10.396 33.4077 10.6195C33.4378 10.6573 33.4767 10.7094 33.4942 10.7347L33.5258 10.7803L33.5385 10.7245C33.5876 10.5047 33.591 10.2958 33.5482 10.1175C33.4626 9.76331 33.184 9.51131 32.7493 9.39406C32.6661 9.37208 32.5903 9.35823 32.4833 9.34561L32.4634 9.34317L32.4678 9.36475Z" fill="#5BB286"/>
<path d="M55.2121 9.34757C55.2141 9.35083 55.4382 9.65087 55.71 10.0148C55.9819 10.3788 56.206 10.6788 56.208 10.6817C56.2099 10.6845 56.0733 10.9129 55.8627 11.2586C55.5233 11.8151 55.5136 11.8305 55.499 11.8322C55.4825 11.8346 54.0412 11.9205 54.0242 11.9201C54.0159 11.9201 53.9065 11.7878 53.4631 11.2423C53.1601 10.8694 52.9107 10.5656 52.9087 10.5673C52.9 10.575 52.8625 10.7362 52.8465 10.8352C52.7877 11.1926 52.8056 11.5386 52.8971 11.8362C53.023 12.2458 53.2822 12.5662 53.6717 12.7942C54.0393 13.0095 54.5348 13.1398 55.1236 13.176C55.18 13.1797 55.2379 13.1838 55.2515 13.1854L55.2773 13.1883L57.8257 16.4736C59.2271 18.2804 60.3756 19.7594 60.3776 19.7603C60.3815 19.7615 61.5991 18.2491 61.6102 18.2299C61.6137 18.2238 61.5276 18.1058 61.1658 17.6217C60.7321 17.0412 60.7165 17.0212 60.7068 17.0265C60.6786 17.042 60.6747 17.0432 60.6703 17.0395C60.6679 17.0371 59.8408 15.9688 58.8323 14.6653L56.9986 12.2951L57.021 12.2531C57.2179 11.8822 57.322 11.4552 57.3045 11.0896C57.2753 10.4732 56.9286 9.99936 56.2717 9.67733C56.0081 9.54828 55.6653 9.43673 55.3064 9.36304C55.2622 9.35408 55.2223 9.34553 55.217 9.34431C55.2102 9.34268 55.2092 9.3435 55.2121 9.34757Z" fill="#F07C63"/>
<path d="M49.0992 9.35595C49.0093 9.36572 48.8765 9.39381 48.7822 9.42271C48.7097 9.44551 48.5955 9.49396 48.5303 9.52978C48.3567 9.62505 48.241 9.73375 48.1515 9.88519C48.0416 10.0704 48.0027 10.2952 48.0348 10.5606C48.0416 10.6196 48.0679 10.7613 48.0747 10.7764C48.0776 10.7829 48.0854 10.7743 48.1141 10.7332C48.3027 10.4641 48.577 10.2007 48.8425 10.035C48.8721 10.0163 48.9237 9.98656 48.9567 9.96906L49.017 9.93689L49.0768 9.65355C49.1099 9.49721 49.1376 9.36572 49.1391 9.36043C49.1405 9.35554 49.1396 9.35188 49.1376 9.35188C49.1352 9.35228 49.1182 9.35432 49.0992 9.35595Z" fill="#5BB286"/>
<path d="M39.8076 9.58841C39.8066 9.59126 39.8071 9.60266 39.8095 9.61365C39.8115 9.62505 39.8134 9.83268 39.8134 10.0757C39.8134 10.4934 39.8139 10.5178 39.8222 10.5215C39.8314 10.526 39.8922 10.5728 39.9083 10.5883C39.9136 10.5936 39.9262 10.6046 39.936 10.6127C39.9457 10.6208 39.9574 10.6327 39.9613 10.6396C39.9651 10.6461 39.9797 10.6628 39.9933 10.6762C40.0065 10.6896 40.0245 10.7076 40.0327 10.7157C40.0415 10.7243 40.0522 10.7377 40.0575 10.7462C40.0624 10.7544 40.0731 10.767 40.0814 10.7739C40.0891 10.7808 40.1013 10.7983 40.1081 10.8126C40.1149 10.8268 40.1256 10.8435 40.1324 10.8492C40.1392 10.8549 40.1499 10.8716 40.1572 10.8859C40.164 10.9005 40.1752 10.9172 40.1815 10.9229C40.1942 10.9339 40.2078 10.9653 40.2078 10.9828C40.2078 10.9885 40.2165 11.0043 40.2272 11.0182C40.2433 11.0385 40.2481 11.0499 40.2535 11.0776C40.2574 11.0964 40.2681 11.1293 40.2783 11.1505C40.2919 11.1798 40.2973 11.1985 40.3002 11.2278C40.3065 11.2832 40.3143 11.3365 40.3201 11.3622C40.323 11.3744 40.3274 11.3935 40.3294 11.4041C40.3342 11.4253 40.3269 11.6008 40.3196 11.6512C40.3172 11.6679 40.3118 11.6956 40.308 11.7123C40.3036 11.729 40.3002 11.7567 40.3002 11.7734C40.3002 11.8076 40.2919 11.834 40.2739 11.8597C40.2657 11.8719 40.2603 11.8886 40.2559 11.9138C40.2501 11.9517 40.2438 11.9668 40.2243 11.9863C40.218 11.9924 40.2117 12.0042 40.2102 12.0128C40.2049 12.0392 40.1981 12.0531 40.1815 12.071C40.1728 12.0807 40.1626 12.097 40.1592 12.1072C40.1509 12.1304 40.1358 12.1561 40.1305 12.1561C40.128 12.1561 40.1198 12.1687 40.1115 12.1842C40.1018 12.2025 40.0906 12.2163 40.0799 12.2228C40.0702 12.2293 40.0595 12.2411 40.0546 12.2517C40.0502 12.2619 40.0425 12.2721 40.0371 12.2741C40.0323 12.2766 40.0235 12.2855 40.0181 12.2945C40.0055 12.3152 39.9895 12.3344 39.972 12.3498C39.9637 12.3568 39.9355 12.3824 39.9087 12.4064C39.8504 12.459 39.8465 12.4622 39.8134 12.487C39.7988 12.4976 39.7755 12.5155 39.7609 12.5269C39.7463 12.5379 39.7327 12.5469 39.7308 12.5469C39.7283 12.5469 39.7162 12.5546 39.7031 12.5644C39.6904 12.5742 39.6719 12.5843 39.6627 12.5876C39.6535 12.5904 39.6369 12.6002 39.6253 12.6092C39.6136 12.6177 39.5961 12.6275 39.5864 12.6312C39.5766 12.6344 39.5601 12.6434 39.5494 12.6511C39.5392 12.6584 39.5183 12.6678 39.5037 12.6711C39.4891 12.6747 39.4662 12.6841 39.4531 12.6914C39.44 12.6991 39.4196 12.7077 39.4089 12.7101C39.37 12.7187 39.3481 12.7264 39.3398 12.7342C39.3306 12.7427 39.2902 12.7545 39.2708 12.7545C39.2649 12.7545 39.2406 12.7622 39.2173 12.7712C39.1779 12.7867 39.1682 12.7887 39.0991 12.7952C39.0578 12.7993 39.015 12.8054 39.0043 12.8087C38.9936 12.8119 38.961 12.8176 38.9314 12.8217C38.8842 12.8282 38.856 12.8286 38.6994 12.8266L38.5205 12.8245L38.4879 12.8115C38.4597 12.8005 38.4466 12.7981 38.3965 12.7948C38.3211 12.7903 38.3158 12.7891 38.273 12.7704C38.253 12.7614 38.2302 12.7545 38.2219 12.7545C38.1952 12.7545 38.1558 12.7431 38.13 12.7289C38.1145 12.7199 38.096 12.7134 38.0814 12.7118C38.0644 12.7097 38.0527 12.7053 38.0371 12.6939C38.023 12.6833 38.0041 12.6751 37.9822 12.6698C37.9618 12.6645 37.9443 12.6568 37.937 12.6503C37.9302 12.6446 37.9117 12.6348 37.8956 12.6283C37.8796 12.6222 37.8602 12.6116 37.8524 12.6047C37.8446 12.5974 37.831 12.59 37.8222 12.5876C37.8135 12.5852 37.8003 12.5774 37.7935 12.5705C37.7867 12.5636 37.7731 12.5538 37.7639 12.5485C37.7376 12.5335 37.6477 12.4659 37.6034 12.428C37.5567 12.3885 37.4994 12.3319 37.4994 12.3262C37.4994 12.3242 37.4887 12.3128 37.476 12.3014C37.4629 12.2896 37.4463 12.2701 37.4391 12.2578C37.4318 12.2452 37.4211 12.2326 37.4152 12.2293C37.406 12.224 37.3296 12.2228 36.8964 12.2212C36.6168 12.22 36.3868 12.2196 36.3844 12.2204C36.3824 12.2212 36.4111 12.2485 36.4486 12.2815C36.5264 12.3507 36.5614 12.384 36.6241 12.4492C36.6824 12.5102 36.7598 12.6075 36.7778 12.643C36.823 12.7317 36.8662 12.7944 36.9494 12.8901C37.0666 13.0257 37.2854 13.2365 37.3262 13.254C37.3345 13.2577 37.3501 13.2663 37.3608 13.2736C37.3715 13.2805 37.3899 13.2899 37.4016 13.2939C37.4138 13.2984 37.4313 13.3074 37.4415 13.3143C37.4512 13.3208 37.4746 13.3334 37.493 13.342C37.511 13.3505 37.5314 13.3599 37.5383 13.3631C37.5451 13.366 37.5611 13.3717 37.5742 13.3758C37.5874 13.3794 37.6058 13.3884 37.6156 13.3957C37.6258 13.4035 37.6428 13.4108 37.6574 13.4136C37.671 13.4165 37.6929 13.425 37.707 13.4328C37.7216 13.4413 37.7449 13.4499 37.7629 13.4531C37.7814 13.4568 37.8047 13.4653 37.8217 13.4751C37.8431 13.4869 37.8567 13.4914 37.8777 13.4934C37.8952 13.4951 37.9219 13.5024 37.9516 13.5142C37.9817 13.526 38.0046 13.5321 38.0172 13.5321C38.0478 13.5321 38.0906 13.5423 38.112 13.5541C38.1349 13.5667 38.1587 13.5712 38.2263 13.5748C38.2832 13.5781 38.3002 13.5814 38.3527 13.598C38.3902 13.6103 38.3955 13.6107 38.5083 13.6147C38.6571 13.6196 38.8424 13.6192 38.9834 13.6139C39.0977 13.6094 39.0909 13.6107 39.1696 13.5862C39.1803 13.583 39.2207 13.5777 39.2596 13.5744C39.3505 13.5671 39.3481 13.5675 39.3894 13.55C39.4186 13.5374 39.4322 13.5345 39.4648 13.5321C39.4872 13.5309 39.5115 13.5264 39.5197 13.5227C39.5586 13.5048 39.5868 13.4955 39.615 13.4914C39.6369 13.4881 39.653 13.4824 39.6719 13.471C39.6919 13.4588 39.7045 13.4547 39.7254 13.4523C39.7556 13.4495 39.7658 13.4458 39.7857 13.4319C39.793 13.4271 39.8129 13.4189 39.8305 13.414C39.8475 13.4096 39.8655 13.4018 39.8703 13.3969C39.881 13.3872 39.9238 13.3693 39.9369 13.3693C39.9423 13.3693 39.9559 13.3619 39.9686 13.353C39.9807 13.344 39.9963 13.3355 40.0031 13.3338C40.0216 13.3302 40.0493 13.318 40.057 13.3102C40.0609 13.3066 40.076 13.2984 40.0906 13.2919C40.1057 13.2858 40.1222 13.2764 40.1276 13.2715C40.1329 13.2667 40.146 13.2589 40.1567 13.2544C40.1674 13.2496 40.1835 13.2406 40.1922 13.2345C40.201 13.228 40.2165 13.219 40.2272 13.2146C40.2379 13.2101 40.2554 13.1983 40.2666 13.1881C40.2773 13.1783 40.2914 13.169 40.2968 13.1673C40.3026 13.1661 40.3162 13.158 40.3269 13.1498C40.3376 13.1413 40.3561 13.1299 40.3683 13.1238C40.3892 13.114 40.5375 12.9992 40.5598 12.9756C40.5662 12.9695 40.5968 12.9422 40.6279 12.9153C40.659 12.8885 40.6926 12.8571 40.7018 12.8453C40.7111 12.8335 40.7208 12.8229 40.7232 12.8217C40.7261 12.8201 40.7339 12.8099 40.7407 12.7985C40.7475 12.7871 40.7607 12.7712 40.7699 12.7631C40.8005 12.7354 40.8278 12.7048 40.8423 12.6808C40.8506 12.6678 40.8642 12.6511 40.8725 12.6438C40.8813 12.6365 40.8915 12.6222 40.8958 12.6124C40.8997 12.6023 40.9085 12.5888 40.9143 12.5819C40.9206 12.575 40.9328 12.5583 40.942 12.5449C40.9508 12.5314 40.9644 12.5143 40.9717 12.5074C40.9795 12.5001 40.9868 12.487 40.9887 12.4789C40.9931 12.4581 41.0038 12.4414 41.0203 12.4284C41.0281 12.4223 41.0344 12.4138 41.0344 12.4097C41.0344 12.3934 41.0495 12.36 41.0636 12.3454C41.0719 12.3368 41.083 12.3169 41.0889 12.301C41.0942 12.2851 41.1069 12.2595 41.1161 12.2436C41.1253 12.2281 41.1365 12.1996 41.1414 12.1797C41.1477 12.1548 41.155 12.139 41.1657 12.1259C41.1774 12.1113 41.1818 12.1007 41.1847 12.0775C41.1871 12.0616 41.1983 12.0254 41.2095 11.9973C41.2265 11.9541 41.2299 11.9399 41.2318 11.9037C41.2348 11.8471 41.2425 11.8133 41.2571 11.7856C41.2683 11.7656 41.2703 11.7551 41.2741 11.692C41.279 11.6024 41.28 11.4131 41.2756 11.3276C41.2717 11.2523 41.2664 11.2221 41.2503 11.1778C41.244 11.1599 41.2362 11.1269 41.2333 11.1045C41.2275 11.0565 41.2129 11.0007 41.1963 10.9644C41.1905 10.9502 41.1837 10.9282 41.1818 10.9156C41.1798 10.9005 41.173 10.883 41.1623 10.8671C41.1526 10.8521 41.1433 10.8293 41.139 10.811C41.1351 10.7939 41.1244 10.7666 41.1151 10.7503C41.1059 10.734 41.0937 10.708 41.0879 10.6925C41.0816 10.6766 41.0719 10.6583 41.0655 10.6514C41.0539 10.6379 41.0344 10.5993 41.0344 10.5887C41.0344 10.585 41.0257 10.5728 41.015 10.5606C41.0043 10.5488 40.9936 10.5321 40.9907 10.5231C40.9877 10.5142 40.979 10.5012 40.9712 10.4938C40.9639 10.4865 40.9518 10.4694 40.9445 10.4564C40.9377 10.4429 40.9279 10.4283 40.9231 10.4238C40.9177 10.4193 40.907 10.4047 40.8988 10.3912C40.89 10.3778 40.8769 10.3611 40.8696 10.3546C40.8618 10.3477 40.8506 10.3342 40.8448 10.3241C40.8385 10.3139 40.8273 10.2996 40.8195 10.2919C40.8112 10.2842 40.801 10.2707 40.7962 10.2614C40.7918 10.252 40.7714 10.2304 40.7509 10.2133C40.731 10.1958 40.7086 10.1734 40.7018 10.1633C40.695 10.1531 40.6804 10.1352 40.6688 10.1238C40.6352 10.09 40.4222 9.91329 40.3833 9.88642C40.3634 9.87298 40.3357 9.85344 40.3216 9.84245C40.307 9.83186 40.2929 9.82331 40.2905 9.82331C40.2875 9.82331 40.2763 9.81639 40.2647 9.80744C40.2535 9.79889 40.236 9.78871 40.2263 9.78545C40.2165 9.78179 40.199 9.77202 40.1874 9.76347C40.1757 9.75451 40.1572 9.74433 40.146 9.74026C40.1348 9.73619 40.1207 9.72805 40.1144 9.72276C40.1081 9.71747 40.0887 9.70607 40.0702 9.69833C40.0522 9.69019 40.0352 9.68042 40.0327 9.67635C40.0298 9.67228 40.0157 9.66617 40.0011 9.66291C39.9851 9.65884 39.9661 9.64988 39.953 9.64052C39.9389 9.63034 39.9243 9.62342 39.9112 9.62179C39.898 9.61976 39.883 9.61324 39.8664 9.60103C39.8407 9.58271 39.8129 9.5766 39.8076 9.58841Z" fill="#F07C63"/>
<path d="M68.3538 10.0665C68.0504 10.4162 66.882 11.7727 66.8805 11.7775C66.8795 11.7808 66.8951 11.8504 66.915 11.9318C66.9354 12.0133 66.952 12.0833 66.952 12.0878C66.952 12.0922 66.2192 12.9276 65.324 13.9446L63.6955 15.7937L61.5764 18.4338C60.4109 19.886 59.4554 21.0756 59.4534 21.0776C59.4515 21.0796 59.4287 21.0711 59.4019 21.0589C59.0542 20.8944 58.7236 20.839 58.5116 20.9095C58.4678 20.9241 58.4284 20.9433 58.392 20.9685C58.3424 21.0019 58.1333 21.1993 57.9655 21.3711C57.8182 21.5218 57.4997 21.8617 57.4773 21.8918C57.4724 21.8987 57.4724 21.9085 57.4778 21.9431C57.4851 21.9956 57.4866 22.1271 57.4797 22.1837C57.453 22.4052 57.3703 22.5925 57.2313 22.7472C57.1121 22.8799 56.9526 22.9878 56.7577 23.0667C56.6959 23.092 56.5539 23.14 56.5422 23.14C56.5364 23.14 54.959 25.0571 54.9619 25.06C54.9634 25.0608 54.9891 25.0653 55.0198 25.0697C55.4817 25.1385 55.9976 25.2533 56.4343 25.3852C56.4756 25.3979 56.5238 25.4121 56.5413 25.4174C56.8228 25.5021 57.2862 25.6804 57.4895 25.7818C57.6052 25.8396 57.7496 25.9259 57.8571 26.0008L57.9154 26.0415L58.0093 25.9251C58.3992 25.4414 58.7926 24.946 58.8573 24.856C58.9035 24.7925 58.9074 24.7762 58.9239 24.5934C58.9443 24.3658 58.9691 24.2433 59.0217 24.1122C59.1593 23.7674 59.4656 23.5219 59.9426 23.3741C59.9747 23.3643 59.9951 23.3554 60.0019 23.3485C60.0316 23.3187 60.1998 23.14 60.2728 23.0606C60.4216 22.8982 60.5378 22.7602 60.5913 22.682C60.6389 22.6124 60.6589 22.5306 60.6633 22.3909C60.673 22.0628 60.531 21.7697 60.2601 21.5588L60.2086 21.5189L60.7128 20.9099C61.0411 20.5129 61.7836 19.601 62.8465 18.2897L64.476 16.2782L65.9697 14.3375C66.791 13.27 67.4669 12.396 67.4713 12.3947C67.4757 12.3939 67.5554 12.3854 67.6478 12.3756L67.8161 12.3585L68.4234 11.5174C68.7574 11.0549 69.0662 10.6275 69.1095 10.5676L69.1878 10.4585L68.7871 10.2488C68.5668 10.1336 68.3845 10.0392 68.3821 10.0392C68.3796 10.0392 68.367 10.0514 68.3538 10.0665Z" fill="#1F294C"/>
<path d="M32.0682 10.1164L32.0317 10.1188L32.0332 10.1575C32.0376 10.289 32.0609 10.6737 32.0779 10.9045C32.1416 11.7578 32.2258 12.318 32.3249 12.5493C32.3984 12.7203 32.5652 13.0675 32.7125 13.3554C32.9926 13.9029 33.3018 14.4338 33.5591 14.8096C33.7696 15.1165 33.9549 15.3437 34.1299 15.509C34.1927 15.568 34.5437 15.8591 34.6692 15.9564C35.0509 16.2515 35.4273 16.5113 35.8148 16.7474C36.8495 17.3776 37.9081 17.7994 38.9268 17.9879C38.9837 17.9985 40.7833 18.279 40.83 18.2847C40.849 18.2871 41.0153 17.9349 41.114 17.6829C41.3562 17.0678 41.4301 16.5618 41.3289 16.2133C41.2822 16.0512 41.1223 15.7207 40.9589 15.4499C40.7537 15.1084 40.5397 14.8397 40.3418 14.6744C40.2373 14.5865 40.2421 14.5893 39.8172 14.411C39.0615 14.0943 38.8417 14.0116 38.567 13.9396C38.1138 13.8211 37.7725 13.6827 37.5269 13.5186C37.2488 13.3326 36.85 12.9421 36.7362 12.7447C36.7236 12.7223 36.7042 12.6885 36.6939 12.6694C36.6098 12.5171 36.251 12.1935 36.0584 12.0962C35.9723 12.0522 35.8362 12.0269 35.7103 12.0314C35.5916 12.0355 35.5123 12.0607 35.4472 12.1153C35.3893 12.1637 35.3645 12.2146 35.3548 12.3042C35.3339 12.5029 35.4443 12.9564 35.5872 13.2597C35.6456 13.383 35.683 13.436 35.7472 13.4852C35.8143 13.5365 35.8926 13.6204 36.143 13.907C36.5777 14.4041 36.7294 14.5718 36.9166 14.7595C37.0338 14.8771 37.0752 14.9154 37.2415 15.0611C37.4321 15.2281 37.4846 15.2757 37.5658 15.3543C37.6344 15.421 37.6981 15.4927 37.6927 15.4972C37.6917 15.4984 37.6373 15.4674 37.5721 15.4292C37.3528 15.2993 37.1676 15.1931 36.9794 15.088C36.7649 14.9683 36.6789 14.9235 36.5836 14.8812C36.5024 14.8454 36.4581 14.8193 36.39 14.7668C36.3049 14.7017 36.2592 14.6589 36.0112 14.4159C35.967 14.3723 35.9067 14.3149 35.8775 14.2885C35.7827 14.2021 35.7219 14.1276 35.6514 14.0104C35.6115 13.944 35.561 13.8423 35.542 13.7922L35.5337 13.769L35.4676 13.7327C35.3188 13.6509 35.1773 13.5907 35.0295 13.5459C34.9449 13.5202 34.8564 13.4795 34.7246 13.4058C34.4324 13.2418 34.0828 12.9755 34.0458 12.8884C34.0414 12.8786 34.0371 12.8546 34.0356 12.8351C34.0283 12.7475 33.9865 12.5069 33.9422 12.305C33.8941 12.0844 33.8406 11.8983 33.8022 11.8209C33.739 11.6923 33.5683 11.352 33.5313 11.2823C33.4696 11.1639 33.3845 11.0206 33.3373 10.955C33.244 10.8247 33.1064 10.6884 32.8662 10.4868C32.6848 10.3354 32.5511 10.2344 32.4723 10.1901C32.3648 10.1298 32.2345 10.1058 32.0682 10.1164Z" fill="#5BB286"/>
<path d="M49.3766 10.1253C49.2871 10.133 49.1982 10.1599 49.1257 10.201C48.9818 10.2828 48.6103 10.5882 48.4284 10.7742C48.2529 10.9534 48.1756 11.0767 47.9417 11.5469C47.8945 11.6414 47.841 11.748 47.823 11.7839C47.7637 11.8999 47.7229 12.0318 47.665 12.2928C47.6183 12.5032 47.5653 12.8061 47.5653 12.8647C47.5653 12.903 47.5298 12.9466 47.4292 13.0333C47.257 13.1819 46.9828 13.3639 46.7664 13.4742C46.6993 13.5084 46.6273 13.5373 46.5515 13.5609C46.426 13.5996 46.266 13.6688 46.1352 13.7408L46.0691 13.7771L46.0608 13.8003C46.0419 13.8504 45.9913 13.9521 45.9514 14.0185C45.8795 14.1382 45.8221 14.2078 45.7171 14.3043C45.683 14.3356 45.6271 14.3886 45.5931 14.4223C45.4025 14.6092 45.3684 14.6422 45.314 14.6906C45.1953 14.7961 45.1297 14.8405 45.0198 14.8893C44.922 14.9329 44.835 14.9781 44.6235 15.0961C44.4353 15.2012 44.25 15.3074 44.0307 15.4373C43.9656 15.4755 43.9111 15.5065 43.9101 15.5053C43.9028 15.4996 43.9879 15.4084 44.0891 15.3131C44.1644 15.2419 44.1737 15.2337 44.3614 15.0692C44.5209 14.9296 44.5656 14.8881 44.6716 14.7826C44.8525 14.6019 45.0358 14.4008 45.4136 13.968C45.7039 13.6354 45.7851 13.5479 45.8537 13.495C45.878 13.4766 45.9072 13.4494 45.9189 13.4347C46.0273 13.2991 46.1717 12.9067 46.2252 12.6022C46.2549 12.432 46.2583 12.316 46.2354 12.241C46.2057 12.145 46.1211 12.077 45.9971 12.0501C45.8668 12.022 45.6572 12.0469 45.5444 12.1043C45.3494 12.2028 44.9823 12.5358 44.9055 12.6836C44.8744 12.7434 44.8335 12.8077 44.7966 12.8546C44.6176 13.0821 44.3069 13.3724 44.0755 13.5271C43.8318 13.69 43.4847 13.8308 43.0431 13.9456C42.8365 13.9994 42.6541 14.0633 42.2963 14.2074C42.0653 14.3006 41.4229 14.5709 41.3923 14.588C41.2751 14.654 41.1249 14.7953 40.9751 14.9797C40.9163 15.0526 40.8599 15.1275 40.8599 15.1328C40.8599 15.1352 40.8783 15.1641 40.9007 15.1967C41.0816 15.4625 41.2513 15.7772 41.3738 16.0748C41.4152 16.1758 41.4463 16.3004 41.4575 16.4127C41.4643 16.4758 41.4643 16.6326 41.458 16.7058C41.4268 17.0568 41.298 17.5005 41.0933 17.9597C41.0524 18.0509 40.9834 18.1959 40.9493 18.2618C40.9474 18.2647 40.9498 18.2659 40.9557 18.2647C40.9605 18.2639 41.332 18.206 41.7813 18.1368C42.2306 18.0672 42.6332 18.0037 42.676 17.996C44.0098 17.7493 45.4083 17.1024 46.726 16.122C46.9755 15.9368 47.3703 15.616 47.4929 15.4988C47.8989 15.1112 48.4479 14.255 48.9973 13.1518C49.1349 12.8757 49.2798 12.5619 49.3061 12.4837C49.3975 12.2109 49.4782 11.6015 49.5366 10.7437C49.556 10.4632 49.574 10.1322 49.5701 10.129C49.5628 10.122 49.4388 10.12 49.3766 10.1253Z" fill="#5BB286"/>
<path d="M33.9404 10.6938C33.8674 10.8253 33.8076 10.9356 33.8081 10.9389C33.8086 10.9441 34.2613 12.1773 34.2842 12.2355L34.2924 12.2559L34.3085 12.2265C34.4261 12.0128 34.3785 11.5076 34.1709 10.7699C34.1475 10.6864 34.0775 10.4581 34.0746 10.4556C34.0741 10.4548 34.0138 10.5623 33.9404 10.6938Z" fill="#5BB286"/>
<path d="M47.6243 10.5243C47.5898 10.6139 47.492 10.9599 47.4459 11.1529C47.3632 11.5002 47.3277 11.7599 47.333 11.9781C47.3364 12.1267 47.3535 12.2118 47.3929 12.2822C47.4089 12.3107 47.4108 12.3124 47.4147 12.303C47.4313 12.2619 47.8956 10.9994 47.8956 10.9953C47.8956 10.9921 47.8383 10.8875 47.7687 10.7621C47.6987 10.6367 47.6389 10.5288 47.6355 10.5223L47.6297 10.5105L47.6243 10.5243Z" fill="#5BB286"/>
<path d="M32 20.3192V29.3164H33.7068H35.4135V24.1339V18.9514H36.9029C37.82 18.9514 38.4356 18.953 38.5061 18.9554C39.7645 19.0006 40.7015 19.295 41.5743 19.9199C41.8 20.0815 42.0679 20.3038 42.2896 20.5126C42.5089 20.719 42.7525 20.9784 42.9996 21.2678C43.0526 21.3297 43.0929 21.3786 43.2451 21.5634L43.2757 21.6004L43.3307 21.6078C43.463 21.6244 44.0362 21.7063 44.2147 21.734C44.2667 21.7421 44.3513 21.7551 44.4019 21.7629C44.453 21.7706 44.5274 21.7824 44.5672 21.7889C44.6076 21.7954 44.7014 21.8109 44.7763 21.8231C45.1483 21.8838 45.6764 21.9782 45.9968 22.0413C46.0289 22.0474 46.0946 22.0605 46.1427 22.0698C46.2701 22.0947 46.8016 22.2054 46.8842 22.2241C46.9231 22.2327 46.9932 22.2485 47.0398 22.2591C47.2499 22.306 47.6729 22.4069 47.7128 22.4199C47.7206 22.4224 47.7279 22.4232 47.7279 22.4232C47.7294 22.422 47.6491 22.3141 47.1882 21.6949C46.6946 21.0325 46.2857 20.5077 46.0265 20.2053C45.497 19.5864 45.0092 19.1337 44.4826 18.7726C44.1092 18.5162 43.6638 18.2874 43.1707 18.0985L43.0866 18.0663V18.0329V17.9991L43.1026 17.9955C43.1109 17.9934 43.1498 17.9849 43.1887 17.9759L43.2592 17.96L43.2276 17.9572C43.1984 17.9543 43.1892 17.956 43.0944 17.9788C42.9791 18.0065 42.8017 18.0439 42.6845 18.0655C42.6412 18.0736 42.2215 18.1396 41.7513 18.2124C41.2816 18.2853 40.8839 18.3488 40.8673 18.3533C40.8513 18.3578 40.8328 18.3606 40.8255 18.3598C40.8187 18.3586 40.8031 18.3594 40.7905 18.3615C40.7647 18.3663 40.7341 18.361 40.7122 18.348C40.702 18.3419 40.5133 18.3114 39.8477 18.208C39.3794 18.1355 38.9612 18.0696 38.9179 18.0614C38.1287 17.9157 37.3405 17.6441 36.5489 17.2447C35.9455 16.9406 35.3372 16.5608 34.7692 16.1346C34.4901 15.9245 34.1274 15.6257 34.0136 15.5113C33.6187 15.1147 33.1446 14.386 32.6312 13.3861C32.4692 13.0706 32.2762 12.666 32.2285 12.5414C32.1561 12.3509 32.0919 11.9893 32.036 11.4564C32.0263 11.3636 32.0219 11.3347 32.016 11.3294C32.0117 11.3254 32.0063 11.3221 32.0039 11.3221C32.0019 11.3221 32 15.3708 32 20.3192Z" fill="#1F294C"/>
<path d="M61.8074 19.7312C61.5414 20.0593 61.2618 20.4025 61.1865 20.4933C61.0634 20.6423 61.0503 20.6594 61.0557 20.6667C61.0591 20.6712 62.1108 22.0818 63.3926 23.8015C64.6744 25.5211 65.73 26.9375 65.7388 26.9489L65.7543 26.9692L65.7334 27.014C65.5987 27.2941 65.5136 27.5717 65.4777 27.8482C65.4674 27.9259 65.4694 28.1791 65.4801 28.2532C65.5263 28.5626 65.6454 28.8138 65.8574 29.0487C66.0014 29.2083 66.1915 29.3553 66.4171 29.4815C66.7016 29.6403 67.0599 29.7726 67.4139 29.8499C67.4932 29.867 67.5948 29.8862 67.5977 29.8841C67.5982 29.8833 67.3726 29.5637 67.0954 29.1741L66.5922 28.4653L66.9573 27.9166C67.1582 27.6149 67.324 27.3666 67.3254 27.3653C67.3274 27.3637 67.6536 27.3531 68.0509 27.3417C68.4482 27.3303 68.7939 27.3197 68.8197 27.3185L68.8659 27.3161L69.3813 27.9821C69.6643 28.3485 69.8977 28.6481 69.8992 28.6481C69.9035 28.6481 69.9376 28.4959 69.957 28.3872C70.0295 27.9841 70.01 27.6165 69.9011 27.3108C69.7601 26.9163 69.482 26.6142 69.0521 26.3887C68.9271 26.3231 68.7307 26.2446 68.5761 26.1981C68.2595 26.1037 67.9357 26.052 67.5651 26.0369L67.4514 26.0324L65.6483 23.6203C64.6569 22.2935 63.8453 21.207 63.8453 21.2053C63.8448 21.2037 63.8516 21.1992 63.8594 21.1952C63.8677 21.1915 63.874 21.1866 63.874 21.1846C63.874 21.1829 63.5526 20.7661 63.1602 20.2584C62.7673 19.7507 62.4123 19.2903 62.371 19.2349C62.3296 19.1791 62.2951 19.1339 62.2937 19.1339C62.2922 19.1339 62.0734 19.4026 61.8074 19.7312Z" fill="#F07C63"/>
<path d="M42.6176 21.716C42.623 21.7209 42.657 21.7519 42.6935 21.7844C42.9906 22.0495 43.2955 22.3503 43.5425 22.621C44.1756 23.316 44.5296 23.9128 44.5845 24.3773C44.5909 24.4319 44.5909 24.5585 44.584 24.609C44.5656 24.7539 44.5058 24.8887 44.4124 24.9982C44.3954 25.0181 44.3575 25.0564 44.3283 25.0832C44.2023 25.2001 44.1479 25.2583 44.1221 25.3039C44.0915 25.3572 44.1129 25.3727 44.179 25.3446C44.2262 25.3247 44.2714 25.2954 44.3409 25.2388C44.6011 25.0275 44.798 24.7107 44.8685 24.3899C44.8918 24.2841 44.8977 24.2251 44.8977 24.1029C44.8977 23.9873 44.8938 23.9397 44.8758 23.8448C44.8705 23.8171 44.867 23.7939 44.868 23.7931C44.8685 23.7923 45.0562 24.0541 45.2852 24.3749L45.7005 24.9579L46.4834 24.9562C46.9142 24.9554 47.2862 24.9562 47.311 24.9579L47.3557 24.9607L47.3474 24.9717C47.329 24.9965 47.2813 25.0462 47.2395 25.0841C47.1028 25.2086 47.0474 25.2897 47.099 25.2897C47.1656 25.2897 47.3523 25.1394 47.4583 25.0006L47.4899 24.9595L47.9591 24.9619C48.2173 24.9632 48.5033 24.9652 48.5942 24.9668L48.7605 24.9693L48.7736 24.9583C48.7999 24.9363 48.7955 24.9363 48.9438 24.9603C49.0104 24.9709 49.3119 24.9754 49.4933 24.9684C49.5628 24.9656 49.6202 24.9627 49.6212 24.9619C49.6221 24.9615 49.2827 24.5052 48.8675 23.9482L48.1123 22.9353L48.0783 22.9243C48.0598 22.9182 48.0267 22.9076 48.0053 22.9007C47.8424 22.8482 47.5658 22.7652 47.344 22.7021C46.9696 22.5954 46.5826 22.4957 46.1551 22.3959C45.9704 22.3528 45.7943 22.3149 45.6105 22.2791C45.434 22.2445 45.3227 22.2229 45.2215 22.2038C45.1612 22.1924 45.0893 22.1785 45.0611 22.1732C45.0066 22.1626 44.8651 22.1358 44.7255 22.1097C44.3638 22.0421 44.319 22.0336 44.2174 22.014C44.0745 21.9864 43.8887 21.9465 43.6752 21.8984C43.5527 21.8703 43.4783 21.8545 43.4773 21.8553C43.4764 21.8561 43.5002 21.8882 43.5299 21.9273C43.6339 22.0641 43.8556 22.3662 43.9038 22.4378L43.9203 22.4623L43.843 22.4004C43.6203 22.2237 43.3587 22.0466 43.065 21.874C42.9118 21.784 42.8024 21.7246 42.7849 21.7221C42.7757 21.7205 42.7431 21.7177 42.7125 21.7152C42.6818 21.7132 42.6458 21.7099 42.6322 21.7087L42.6084 21.7067L42.6176 21.716Z" fill="#1F294C"/>
<path d="M48.9831 23.2797C49.3584 23.6029 49.6594 24.0121 49.8379 24.4424C49.8914 24.571 49.9244 24.6696 49.9629 24.8157L49.9867 24.9053L49.9838 24.7954C49.9823 24.7347 49.9838 24.5771 49.9867 24.4448L49.9925 24.2046L49.9526 24.1375C49.8287 23.9298 49.6468 23.7084 49.4518 23.5272C49.3609 23.4425 49.2286 23.3359 49.2038 23.3265C49.1654 23.3127 49.0181 23.2581 48.9801 23.2443C48.9111 23.2182 48.9111 23.2178 48.9831 23.2797Z" fill="#1F294C"/>
<path d="M45.7778 25.5797C45.7856 25.585 45.8366 25.6172 45.892 25.6518C46.0656 25.7605 46.2324 25.8741 46.3934 25.9934C46.4931 26.067 46.7561 26.2869 46.8329 26.3606C47.2594 26.7697 47.487 27.154 47.5312 27.542C47.54 27.6169 47.5351 27.7879 47.5225 27.8567C47.4738 28.1181 47.3508 28.3448 47.133 28.5744C47.0853 28.6245 46.919 28.7658 46.8655 28.8016L46.8291 28.8256L46.8825 28.8285C47.1903 28.8439 48.3826 28.8696 48.7177 28.8676C48.7921 28.8672 48.7566 28.8659 48.6083 28.8639C48.1522 28.8578 47.185 28.8321 47.1777 28.8264C47.1772 28.826 47.1923 28.815 47.2117 28.8028C47.2711 28.7642 47.362 28.6925 47.4237 28.6355C47.7014 28.379 47.8589 28.0965 47.8959 27.7859C47.9022 27.7321 47.9022 27.6051 47.8959 27.5473C47.8541 27.1662 47.6255 26.7823 47.201 26.3793C47.1193 26.3019 46.8923 26.1126 46.7848 26.0324C46.5942 25.8908 46.3661 25.7389 46.1512 25.6099L46.0914 25.574L45.9275 25.5724L45.7637 25.5704L45.7778 25.5797Z" fill="#1F294C"/>
<path d="M53.6304 26.6739C53.0635 27.3632 53.0489 27.3815 52.9944 27.4556C52.9181 27.5602 52.9181 27.5578 52.9895 27.5004C53.2239 27.3107 53.4787 27.1995 53.8055 27.1442C53.9285 27.1234 53.9766 27.1197 54.1123 27.1197C54.248 27.1197 54.2961 27.1234 54.4191 27.1442C54.7556 27.2011 55.0133 27.316 55.2506 27.5142C55.4821 27.7084 55.6177 27.9185 55.6878 28.19C55.7111 28.2824 55.7194 28.3374 55.7228 28.4306C55.7272 28.5499 55.715 28.646 55.681 28.7706C55.6732 28.7987 55.6673 28.8219 55.6678 28.8223C55.6683 28.8227 55.7388 28.7355 55.8249 28.6289C55.911 28.5222 56.1585 28.2153 56.3753 27.947C56.5922 27.6791 56.7697 27.4584 56.7697 27.4572C56.7697 27.4515 56.6967 27.3343 56.6661 27.2907C56.4517 26.985 56.1536 26.722 55.785 26.5144C55.4232 26.3104 55.0187 26.1732 54.5927 26.1105C54.4522 26.0897 54.353 26.0812 54.175 26.0739L54.1264 26.0718L53.6304 26.6739Z" fill="#1F294C"/>
<path d="M53.6052 26.4507C53.2114 26.5256 52.8617 26.6725 52.5544 26.8924C52.4752 26.9494 52.3478 27.0569 52.2792 27.1261C51.9641 27.4428 51.7798 27.8068 51.7244 28.2212C51.7137 28.3014 51.7122 28.533 51.722 28.6181C51.7414 28.7859 51.7915 28.9711 51.8596 29.127C51.9578 29.3501 52.109 29.5659 52.2948 29.7479C52.3969 29.848 52.5574 29.9738 52.6833 30.0524C52.7324 30.0829 52.87 30.1603 52.8972 30.1725C52.9109 30.1786 52.4338 30.179 47.0919 30.1794H41.2714L41.3127 30.1578C41.5077 30.0552 41.6993 29.9058 41.8452 29.743C42.0645 29.4971 42.205 29.195 42.2361 28.9011C42.239 28.873 42.2434 28.838 42.2458 28.8229C42.2522 28.7875 42.2522 28.6763 42.2458 28.6348C42.2434 28.6165 42.2366 28.5693 42.2313 28.5298C42.1384 27.8365 41.5252 27.2543 40.7122 27.0874C40.1141 26.9649 39.5029 27.0687 39.0098 27.3769C38.8897 27.4518 38.7424 27.5706 38.6519 27.6655C38.4108 27.9187 38.2683 28.1984 38.2163 28.5225C38.2036 28.6023 38.2036 28.8579 38.2163 28.9377C38.2342 29.0493 38.2639 29.1584 38.3028 29.2593C38.4428 29.6196 38.7395 29.9421 39.1207 30.1489L39.1732 30.1774L37.2238 30.1794L35.2744 30.1814L35.786 30.2848L36.2975 30.3878L36.844 30.3813L37.3906 30.3744L37.6031 30.4347C37.7203 30.4676 37.8141 30.4953 37.8122 30.4957C37.8102 30.4961 37.6556 30.4994 37.4684 30.5027C37.2812 30.5063 37.0823 30.51 37.0259 30.5116L36.9238 30.5145L37.4558 30.6215L37.9877 30.729L50.1499 30.7282L62.3116 30.727L61.6479 30.593C61.2827 30.5193 60.9793 30.4583 60.9739 30.4575C60.9686 30.4566 60.9851 30.4623 61.0104 30.4701L61.0566 30.4839L61.0328 30.4843C61.0201 30.4847 60.8149 30.4884 60.5776 30.4929L60.1458 30.5014L59.8234 30.44C59.646 30.4062 59.4996 30.3777 59.4986 30.3764C59.4977 30.3756 59.5327 30.3748 59.5764 30.3744C59.7466 30.374 60.4901 30.3638 60.4925 30.3622C60.4935 30.361 60.2927 30.3195 60.0462 30.2698L59.5978 30.1794H57.4778H55.3577L55.3747 30.1704C55.487 30.1126 55.6212 30.0316 55.7127 29.9661C55.7729 29.9229 55.8906 29.8248 55.9504 29.7682C56.2237 29.5089 56.4129 29.1958 56.4999 28.8579C56.5339 28.7268 56.5563 28.5563 56.5563 28.4288C56.5563 28.3087 56.5349 28.1369 56.5043 28.0168L56.4916 27.9651L56.4785 27.9802C56.444 28.0205 55.9874 28.5876 55.9816 28.5982C55.9777 28.6047 55.9713 28.6291 55.9684 28.6527C55.9504 28.781 55.8984 28.9369 55.8294 29.0708C55.6368 29.4417 55.2702 29.7393 54.8199 29.8908C54.6093 29.9612 54.4022 30.0035 54.198 30.017C54.1187 30.0223 53.93 30.0198 53.8576 30.0125C53.4195 29.9685 53.0256 29.8069 52.7266 29.5472C52.4786 29.3326 52.3113 29.066 52.2408 28.7732C52.2131 28.6568 52.2072 28.6047 52.2068 28.4695C52.2068 28.314 52.2175 28.2342 52.2583 28.0958C52.3697 27.7156 52.6458 27.3866 53.0344 27.1717C53.0694 27.1521 53.1083 27.1305 53.1204 27.124C53.1404 27.1134 53.1783 27.0691 53.42 26.7743C53.5726 26.5891 53.6971 26.4364 53.6971 26.4356C53.6971 26.4332 53.6962 26.4332 53.6052 26.4507ZM40.42 27.4579C41.0156 27.5271 41.499 27.8601 41.6896 28.3323C41.7849 28.5677 41.7961 28.8311 41.7207 29.0729C41.6088 29.4344 41.3132 29.7397 40.9145 29.9066C40.7584 29.9718 40.5653 30.0235 40.4 30.0451C40.0912 30.085 39.7796 30.0463 39.4951 29.9331C39.0604 29.7601 38.7453 29.4238 38.6456 29.0281C38.6077 28.8783 38.6033 28.7032 38.6335 28.5489C38.7015 28.1988 38.9481 27.8796 39.304 27.681C39.5223 27.5588 39.7839 27.4774 40.0237 27.4562C40.0519 27.4538 40.0815 27.4509 40.0893 27.4501C40.1272 27.4457 40.365 27.4514 40.42 27.4579ZM53.3971 30.3606C53.4895 30.385 53.544 30.3968 53.6577 30.4176C53.6996 30.4253 53.7555 30.4375 53.7822 30.4457L53.8309 30.4595L53.807 30.4599C53.7944 30.4603 53.5892 30.464 53.3519 30.4685L52.9201 30.477L52.5977 30.4155C52.4202 30.3817 52.2739 30.3532 52.2729 30.352C52.2719 30.3512 52.3123 30.3504 52.3628 30.35C52.4134 30.3496 52.6254 30.3471 52.834 30.3447C53.0426 30.3418 53.2362 30.339 53.2634 30.339C53.312 30.3382 53.3169 30.339 53.3971 30.3606ZM46.6528 30.4143C46.7695 30.4477 46.8628 30.475 46.8594 30.4754C46.856 30.4762 46.6513 30.4803 46.4048 30.4847L45.9564 30.4933L45.6341 30.4318C45.4571 30.398 45.3107 30.3695 45.3097 30.3683C45.3088 30.3675 45.3491 30.3667 45.3997 30.3663C45.4503 30.3659 45.6623 30.3634 45.8709 30.361C46.0795 30.3581 46.2929 30.3553 46.345 30.3549L46.4398 30.3545L46.6528 30.4143ZM57.4184 30.4143C57.5351 30.4477 57.6285 30.475 57.6251 30.4754C57.6217 30.4762 57.417 30.4803 57.1704 30.4847L56.7221 30.4933L56.3997 30.4318C56.2227 30.398 56.0764 30.3695 56.0754 30.3683C56.0744 30.3675 56.1148 30.3667 56.1654 30.3663C56.2159 30.3659 56.4279 30.3634 56.6365 30.361C56.8451 30.3581 57.0586 30.3553 57.1106 30.3549L57.2055 30.3545L57.4184 30.4143ZM50.2608 30.4224C50.3775 30.4558 50.4708 30.4831 50.4674 30.4835C50.464 30.4843 50.2593 30.4884 50.0128 30.4929L49.5645 30.5014L49.2421 30.44C49.0651 30.4062 48.9187 30.3777 48.9177 30.3764C48.9168 30.3756 48.9571 30.3748 49.0077 30.3744C49.0583 30.374 49.2703 30.3716 49.4789 30.3691C49.6875 30.3663 49.9009 30.3634 49.953 30.363L50.0478 30.3626L50.2608 30.4224ZM43.5991 30.4265C43.7158 30.4599 43.8091 30.4872 43.8057 30.4876C43.8023 30.4884 43.5976 30.4925 43.3511 30.497L42.9028 30.5055L42.5804 30.444C42.4034 30.4102 42.2575 30.3817 42.2565 30.3813C42.2561 30.3805 42.3708 30.3785 42.5118 30.3769C42.6528 30.3752 42.8648 30.3724 42.9825 30.3707C43.1002 30.3695 43.2393 30.3679 43.2913 30.3675L43.3861 30.3667L43.5991 30.4265ZM39.816 30.3891C39.9463 30.4106 40.0898 30.4237 40.2055 30.4237H40.2692L40.3956 30.4603C40.5075 30.4925 40.5192 30.4965 40.4982 30.4965C40.4856 30.497 40.2804 30.5006 40.0431 30.5051L39.6113 30.5136L39.2889 30.4522C39.1114 30.4184 38.9651 30.3899 38.9641 30.3887C38.9631 30.3878 39.0113 30.3866 39.0711 30.3866C39.1309 30.3862 39.27 30.3846 39.3794 30.3834C39.763 30.3781 39.7499 30.3777 39.816 30.3891Z" fill="#1F294C"/>
<path d="M40.1135 27.7106C39.9384 27.7257 39.795 27.7579 39.6603 27.8128C39.105 28.0384 38.8278 28.5615 39 29.0574C39.0583 29.2251 39.1658 29.3761 39.3185 29.5036C39.5134 29.6668 39.7459 29.7653 40.0211 29.8016C40.1188 29.8142 40.2929 29.8142 40.3906 29.8016C40.6659 29.7653 40.8983 29.6668 41.0933 29.5036C41.2367 29.3839 41.3345 29.252 41.3977 29.094C41.474 28.9031 41.4833 28.6987 41.4239 28.5021C41.3009 28.0917 40.8934 27.7835 40.3906 27.72C40.3299 27.7123 40.1611 27.7066 40.1135 27.7106Z" fill="#1F294C"/>
<path d="M53.9813 27.212C53.6832 27.2356 53.4066 27.3284 53.1717 27.4844C53.1056 27.5279 52.9806 27.6334 52.9305 27.6879C52.8216 27.806 52.7438 27.9253 52.6898 28.0576C52.5225 28.4692 52.6144 28.9137 52.9383 29.2553C52.9903 29.3103 53.1061 29.4071 53.1712 29.4503C53.4566 29.6396 53.8029 29.7365 54.1588 29.7263C54.4904 29.717 54.7924 29.6237 55.054 29.4503C55.1187 29.4071 55.2349 29.3098 55.2864 29.2557C55.5125 29.0167 55.6283 28.7269 55.6161 28.4289C55.6049 28.1516 55.4931 27.8972 55.2869 27.6798C55.2349 27.6248 55.1191 27.5279 55.0535 27.4844C54.8347 27.339 54.5838 27.2495 54.3047 27.2177C54.2371 27.21 54.0484 27.2067 53.9813 27.212Z" fill="#1F294C"/>
<path d="M8.2851 43.7567H5.9541L3.8008 40.6546H2.1055V43.7567H0V35.1717H3.8965C4.7213 35.1717 5.4277 35.2805 6.0156 35.4979C6.6035 35.7154 7.0524 36.0302 7.3623 36.4423C7.6767 36.8505 7.834 37.3408 7.834 37.9132C7.834 38.5007 7.6676 39.0025 7.3349 39.4184C7.0068 39.8305 6.5374 40.1396 5.9267 40.3456L8.2851 43.7567ZM2.1055 39.2524H3.7392C4.3636 39.2524 4.8421 39.1437 5.1748 38.9262C5.512 38.7049 5.6806 38.3901 5.6806 37.9818C5.6806 37.5736 5.512 37.2607 5.1748 37.0432C4.8421 36.8219 4.3636 36.7113 3.7392 36.7113H2.1055V39.2524ZM14.4512 43.9284C13.6719 43.9284 12.9518 43.8177 12.291 43.5964C11.6348 43.3713 11.0628 43.0584 10.5752 42.6578C10.0921 42.2533 9.7161 41.7802 9.4472 41.2384C9.1829 40.6967 9.0508 40.1052 9.0508 39.4642C9.0508 38.8232 9.1829 38.2317 9.4472 37.69C9.7161 37.1443 10.0921 36.6712 10.5752 36.2706C11.0628 35.87 11.6348 35.559 12.291 35.3377C12.9518 35.1126 13.6719 35 14.4512 35C15.2305 35 15.9482 35.1126 16.6045 35.3377C17.2607 35.559 17.8281 35.87 18.3066 36.2706C18.7897 36.6712 19.1657 37.1443 19.4346 37.69C19.7034 38.2317 19.8379 38.8232 19.8379 39.4642C19.8379 40.1052 19.7034 40.6967 19.4346 41.2384C19.1657 41.7802 18.7897 42.2533 18.3066 42.6578C17.8281 43.0584 17.2607 43.3713 16.6045 43.5964C15.9482 43.8177 15.2305 43.9284 14.4512 43.9284ZM14.4512 42.3888C14.9114 42.3888 15.3375 42.3144 15.7295 42.1656C16.126 42.0168 16.47 41.8108 16.7617 41.5475C17.0534 41.2804 17.279 40.9714 17.4385 40.6203C17.6025 40.2655 17.6846 39.8801 17.6846 39.4642C17.6846 39.0483 17.6025 38.6629 17.4385 38.3081C17.279 37.9533 17.0534 37.6442 16.7617 37.3809C16.47 37.1139 16.126 36.9078 15.7295 36.7628C15.3375 36.614 14.9114 36.5396 14.4512 36.5396C13.9863 36.5396 13.5556 36.614 13.1592 36.7628C12.7672 36.9078 12.4232 37.1139 12.1269 37.3809C11.8353 37.6442 11.6074 37.9533 11.4433 38.3081C11.2838 38.6629 11.2041 39.0483 11.2041 39.4642C11.2041 39.8801 11.2838 40.2655 11.4433 40.6203C11.6074 40.9751 11.8353 41.2862 12.1269 41.5532C12.4232 41.8165 12.7672 42.0225 13.1592 42.1713C13.5556 42.3163 13.9863 42.3888 14.4512 42.3888ZM25.8672 43.7567H23.7617V40.0881L19.8789 35.1717H22.4355L24.8008 38.537L27.1933 35.1717H29.75L25.8672 40.0938V43.7567ZM31.206 43.7567H28.998L33.0859 35.1717H35.3076L39.3887 43.7567H37.1806L36.3398 41.9138H32.0469L31.206 43.7567ZM32.7373 40.3685H35.6562L34.1933 37.1863L32.7373 40.3685ZM47.0859 43.7567H40.3867V35.1717H42.4922V42.2171H47.0859V43.7567Z" fill="#5BB286"/>
<path d="M63.4248 43.7567H60.7793L58.1406 40.6546L55.4951 43.7567H53L56.9238 39.3497L53.3076 35.1717H55.9531L58.2842 37.9189L60.5605 35.1717H63.1377L59.5078 39.3039L63.4248 43.7567ZM64.457 43.7567V35.1717H67.9639C68.8252 35.1717 69.568 35.29 70.1924 35.5265C70.8213 35.7593 71.3043 36.0932 71.6416 36.5281C71.9788 36.9593 72.1474 37.4744 72.1474 38.0734C72.1474 38.6725 71.9788 39.1914 71.6416 39.6302C71.3043 40.0651 70.8236 40.4009 70.1992 40.6375C69.5794 40.8741 68.8411 40.9923 67.9844 40.9923H66.5625V43.7567H64.457ZM66.5625 39.447H67.7656C68.4811 39.447 69.0303 39.3288 69.4131 39.0922C69.8004 38.8518 69.9941 38.5122 69.9941 38.0734C69.9941 37.6422 69.8004 37.3084 69.4131 37.0718C69.0303 36.8315 68.4811 36.7113 67.7656 36.7113H66.5625V39.447ZM78.6078 43.9284C77.8278 43.9284 77.1078 43.8177 76.4468 43.5964C75.7908 43.3713 75.2191 43.0584 74.7314 42.6578C74.2484 42.2533 73.8724 41.7802 73.6035 41.2384C73.3392 40.6967 73.207 40.1052 73.207 39.4642C73.207 38.8232 73.3392 38.2317 73.6035 37.69C73.8724 37.1443 74.2484 36.6712 74.7314 36.2706C75.2191 35.87 75.7908 35.559 76.4468 35.3377C77.1078 35.1126 77.8278 35 78.6078 35C79.3868 35 80.1048 35.1126 80.7608 35.3377C81.4168 35.559 81.9848 35.87 82.4628 36.2706C82.9458 36.6712 83.3218 37.1443 83.5908 37.69C83.8598 38.2317 83.9938 38.8232 83.9938 39.4642C83.9938 40.1052 83.8598 40.6967 83.5908 41.2384C83.3218 41.7802 82.9458 42.2533 82.4628 42.6578C81.9848 43.0584 81.4168 43.3713 80.7608 43.5964C80.1048 43.8177 79.3868 43.9284 78.6078 43.9284ZM78.6078 42.3888C79.0678 42.3888 79.4938 42.3144 79.8858 42.1656C80.2818 42.0168 80.6258 41.8108 80.9178 41.5475C81.2098 41.2804 81.4348 40.9714 81.5948 40.6203C81.7588 40.2655 81.8408 39.8801 81.8408 39.4642C81.8408 39.0483 81.7588 38.6629 81.5948 38.3081C81.4348 37.9533 81.2098 37.6442 80.9178 37.3809C80.6258 37.1139 80.2818 36.9078 79.8858 36.7628C79.4938 36.614 79.0678 36.5396 78.6078 36.5396C78.1428 36.5396 77.7118 36.614 77.3158 36.7628C76.9238 36.9078 76.5798 37.1139 76.2828 37.3809C75.9918 37.6442 75.7638 37.9533 75.5998 38.3081C75.4398 38.6629 75.3608 39.0483 75.3608 39.4642C75.3608 39.8801 75.4398 40.2655 75.5998 40.6203C75.7638 40.9751 75.9918 41.2862 76.2828 41.5532C76.5798 41.8165 76.9238 42.0225 77.3158 42.1713C77.7118 42.3163 78.1428 42.3888 78.6078 42.3888ZM84.8278 42.8295L85.8258 41.4845C86.1408 41.6982 86.4438 41.8737 86.7358 42.011C87.0318 42.1446 87.3228 42.2438 87.6108 42.3087C87.8978 42.3697 88.1918 42.4003 88.4918 42.4003C88.8478 42.4003 89.1548 42.3583 89.4148 42.2744C89.6748 42.1904 89.8758 42.0702 90.0168 41.9138C90.1628 41.7574 90.2358 41.5761 90.2358 41.37C90.2358 41.1297 90.1438 40.9275 89.9618 40.7634C89.7798 40.5993 89.5408 40.4562 89.2438 40.3341C88.9528 40.2082 88.6358 40.0881 88.2938 39.9735C87.9608 39.8591 87.6258 39.7351 87.2888 39.6016C86.9568 39.4642 86.6488 39.3021 86.3658 39.1151C86.0878 38.9281 85.8628 38.7011 85.6898 38.434C85.5208 38.1631 85.4368 37.835 85.4368 37.4496C85.4368 36.9459 85.5868 36.511 85.8878 36.1447C86.1928 35.7784 86.6098 35.4961 87.1388 35.2976C87.6678 35.0992 88.2708 35 88.9498 35C89.4288 35 89.9258 35.0534 90.4408 35.1602C90.9598 35.2671 91.4768 35.4293 91.9918 35.6468L91.1648 37.0718C90.8418 36.9078 90.4928 36.778 90.1188 36.6827C89.7458 36.5872 89.3948 36.5396 89.0668 36.5396C88.7698 36.5396 88.5108 36.5778 88.2868 36.6541C88.0688 36.7303 87.8978 36.8372 87.7748 36.9745C87.6518 37.1081 87.5898 37.2664 87.5898 37.4496C87.5898 37.6671 87.6788 37.8559 87.8568 38.0162C88.0338 38.1726 88.2648 38.3119 88.5468 38.434C88.8338 38.5561 89.1418 38.6782 89.4698 38.8003C89.8068 38.9224 90.1468 39.0559 90.4878 39.2009C90.8348 39.3459 91.1488 39.5176 91.4318 39.716C91.7188 39.9106 91.9488 40.1453 92.1218 40.42C92.2998 40.6909 92.3888 41.0172 92.3888 41.3987C92.3888 41.9024 92.2288 42.3449 91.9098 42.7265C91.5908 43.1042 91.1468 43.3999 90.5768 43.6136C90.0078 43.8235 89.3448 43.9284 88.5878 43.9284C87.8948 43.9284 87.2318 43.8349 86.5988 43.6479C85.9648 43.461 85.3748 43.1882 84.8278 42.8295ZM93.7148 43.7567V35.1717H100.332V36.7113H95.8198V38.6629H100.052V40.2082H95.8198V42.2171H100.401V43.7567H93.7148Z" fill="#1F294C"/>
</svg>
