<svg width="57" height="57" viewBox="0 0 57 57" fill="none" xmlns="http://www.w3.org/2000/svg">
<rect x="1.20001" y="0.77002" width="55" height="55" rx="27.5" fill="white"/>
<rect x="1.20001" y="0.77002" width="55" height="55" rx="27.5" stroke="#5BB286"/>
<rect x="3.70001" y="3.27002" width="50" height="50" rx="25" fill="#5BB286"/>
<g clip-path="url(#clip0_16_1767)">
<path d="M38.0989 16.8435C38.5677 17.1717 38.9935 17.5584 39.3763 18.0037C39.7592 18.4491 40.0912 18.9686 40.3725 19.5624C40.685 20.1406 40.9194 20.8164 41.0756 21.5899C41.2319 22.3633 41.31 23.2345 41.31 24.2033C41.31 24.9064 41.271 25.6174 41.1928 26.3362C41.1147 27.055 40.9975 27.7777 40.8413 28.5043C40.685 29.2309 40.4897 29.9614 40.2553 30.6958C40.0209 31.4302 39.7396 32.1646 39.4115 32.899C39.099 33.6334 38.763 34.3444 38.4036 35.0319C38.0286 35.7351 37.6341 36.4148 37.22 37.0711C36.8059 37.7274 36.3645 38.3759 35.8957 39.0165C35.4269 39.6415 34.9269 40.2509 34.3956 40.8447C34.1456 40.876 33.8643 40.876 33.5518 40.8447C33.2393 40.8135 32.8877 40.751 32.4971 40.6572C32.1221 40.5635 31.7861 40.4502 31.4892 40.3174C31.1923 40.1845 30.9345 40.04 30.7158 39.8837C31.2158 39.165 31.6806 38.4032 32.1104 37.5985C32.5401 36.7937 32.9268 35.9382 33.2706 35.0319C33.6456 34.1256 33.9268 33.2858 34.1144 32.5123C34.3019 31.7388 34.3956 31.0317 34.3956 30.3911C34.3956 29.7817 34.3175 29.2113 34.1612 28.6801C34.005 28.1488 33.7706 27.6566 33.4581 27.2034C33.1768 26.7503 32.7666 26.3948 32.2275 26.137C31.6885 25.8791 31.0205 25.719 30.2235 25.6565C30.1923 25.2346 30.1845 24.7658 30.2001 24.2502C30.2157 23.7345 30.2548 23.172 30.3173 22.5626C30.3954 21.9375 30.4892 21.3828 30.5986 20.8984C30.7079 20.414 30.8408 19.9999 30.997 19.6562C31.6533 19.5468 32.294 19.3983 32.919 19.2108C33.5596 19.039 34.173 18.8358 34.7589 18.6014C35.3449 18.367 35.9191 18.1092 36.4817 17.828C37.0442 17.5311 37.5833 17.2029 38.0989 16.8435ZM24.0826 17.1248C24.5826 17.4529 25.0319 17.8436 25.4303 18.2967C25.8288 18.7499 26.1687 19.2655 26.4499 19.8437C26.7312 20.4218 26.9421 21.0977 27.0828 21.8711C27.2234 22.6446 27.2937 23.5157 27.2937 24.4845C27.2937 25.2033 27.2546 25.9143 27.1765 26.6175C27.0984 27.3206 26.9812 28.0238 26.8249 28.7269C26.6687 29.4301 26.4734 30.1254 26.239 30.813C26.0046 31.5161 25.7233 32.2115 25.3952 32.899C25.0827 33.6022 24.7467 34.2897 24.3873 34.9616C24.0279 35.6179 23.6412 36.2703 23.2271 36.9187C22.813 37.5672 22.3794 38.204 21.9263 38.829C21.4731 39.454 20.9887 40.0634 20.4731 40.6572C20.1918 40.6885 19.8871 40.6885 19.5589 40.6572C19.2308 40.626 18.8714 40.5556 18.4808 40.4463C18.137 40.3525 17.8245 40.2431 17.5432 40.1181C17.262 39.9931 17.0119 39.8447 16.7932 39.6728C17.262 38.9696 17.7073 38.2235 18.1292 37.4344C18.5511 36.6453 18.9574 35.8132 19.348 34.9382C19.723 34.0631 20.0043 33.2467 20.1918 32.4888C20.3793 31.731 20.4731 31.0317 20.4731 30.3911C20.4731 29.7817 20.3871 29.2113 20.2152 28.6801C20.0433 28.1488 19.7855 27.6566 19.4418 27.2034C19.1292 26.7503 18.6956 26.3948 18.1409 26.137C17.5862 25.8791 16.9104 25.719 16.1135 25.6565C16.0822 25.2346 16.0744 24.7814 16.09 24.297C16.1057 23.8126 16.1447 23.297 16.2072 22.7501C16.2697 22.1719 16.3596 21.6485 16.4768 21.1797C16.594 20.7109 16.7307 20.2968 16.8869 19.9374C17.5432 19.8124 18.1956 19.6601 18.8441 19.4804C19.4925 19.3007 20.1293 19.1015 20.7543 18.8827C21.395 18.6483 21.9888 18.3866 22.5357 18.0975C23.0826 17.8084 23.5982 17.4842 24.0826 17.1248Z" fill="white"/>
</g>
<defs>
<clipPath id="clip0_16_1767">
<rect width="25.22" height="24" fill="white" transform="matrix(1 0 0 -1 16.09 40.27)"/>
</clipPath>
</defs>
</svg>
