<svg width="80" height="80" viewBox="0 0 80 80" fill="none" xmlns="http://www.w3.org/2000/svg">
<circle cx="40" cy="40" r="39.5" fill="white" stroke="#5BB286"/>
<path fill-rule="evenodd" clip-rule="evenodd" d="M31.9485 21.1747C31.9485 19.1276 34.2283 17.469 37.0389 17.469C39.8496 17.469 42.1293 19.1276 42.1293 21.1747C42.1293 23.2218 39.8496 24.8804 37.0389 24.8804C34.2283 24.8804 31.9485 23.2218 31.9485 21.1747ZM37.0389 15C32.3527 15 28.555 17.765 28.555 21.1747C28.555 21.8212 28.6916 22.4445 28.9448 23.0302H27.9325C27.1487 23.0302 26.2793 23.2607 25.5263 23.5481C24.7207 23.8556 23.8499 24.3041 23.0435 24.8904C21.4215 26.0692 20 27.854 20 30.2031C20 33.0933 21.3174 35.2046 22.9466 36.6076C23.7525 37.3018 24.6321 37.82 25.4578 38.1715C25.7074 38.2778 25.9688 38.3759 26.2357 38.46V61.7476C26.2357 63.5392 28.2435 65 30.706 65L30.7123 64.9999H30.7324L30.7386 65C33.201 65 35.2088 63.5392 35.2088 61.7476V48.5978H39.0263V61.7476C39.0263 63.5392 41.0341 65 43.4966 65L43.5029 64.9999H43.523L43.5292 65C45.9916 65 47.9994 63.5392 47.9994 61.7476V38.6191L48.4085 39.472C48.9835 40.6711 50.4729 41.4483 52.1098 41.5343C50.73 42.1969 49.8195 43.335 49.8195 44.6277V45.4508C49.8195 46.1326 50.5791 46.6852 51.5163 46.6852C52.4534 46.6852 53.213 46.1326 53.213 45.4508V44.6277C53.213 43.9459 53.9726 43.3932 54.9098 43.3932C55.8469 43.3932 56.6065 43.9459 56.6065 44.6277V61.9106C56.6065 62.5924 57.3661 63.1451 58.3033 63.1451C59.2404 63.1451 60 62.5924 60 61.9106V44.6277C60 42.5946 57.7482 40.9441 54.9601 40.9244C56.3988 40.1394 57.0426 38.7398 56.4187 37.4386L50.899 25.9287C50.0669 24.1937 47.8175 23.0315 45.2917 23.0315H45.1326C45.3861 22.4453 45.5228 21.8216 45.5228 21.1747C45.5228 17.765 41.7252 15 37.0389 15ZM27.9325 25.4992H30.9832C32.5227 26.641 34.667 27.3493 37.0389 27.3493C39.41 27.3493 41.5536 26.6415 43.0929 25.5004H45.2917C46.3743 25.5004 47.3382 25.9986 47.6948 26.7421L53.2145 38.252C53.3689 38.5738 53.1355 38.9257 52.693 39.0381C52.2506 39.1504 51.7669 38.9804 51.6125 38.6586L47.9047 30.927L44.6059 31.3336V61.7476C44.6059 62.1756 44.1176 62.531 43.5292 62.531L43.523 62.5309H43.5029L43.4966 62.531C42.9083 62.531 42.4198 62.1756 42.4198 61.7476V47.3634V46.1289H40.7231H33.5121H31.8153V47.3634V61.7476C31.8153 62.1756 31.327 62.531 30.7386 62.531L30.7324 62.5309H30.7123L30.706 62.531C30.1177 62.531 29.6292 62.1756 29.6292 61.7476V37.5173V36.2828H29.6243V29.8139H26.2308V35.5345C26.0019 35.385 25.7684 35.212 25.5387 35.0143C24.4314 34.0606 23.3935 32.5148 23.3935 30.2031C23.3935 28.6317 24.3272 27.4472 25.4418 26.637C26.0036 26.2288 26.5964 25.9277 27.1029 25.7344C27.5889 25.549 27.8726 25.5082 27.9248 25.5007C27.9326 25.4996 27.9325 25.4992 27.9325 25.4992Z" stroke="#5BB286" stroke-width="1.33333"/>
</svg>
