<svg width="80" height="80" viewBox="0 0 80 80" fill="none" xmlns="http://www.w3.org/2000/svg">
<circle cx="40" cy="40" r="39.5" fill="white" stroke="#5BB286"/>
<path d="M47.4175 39.767C48.1305 39.767 48.7088 38.983 48.7088 38.0163V19.0851C48.7088 18.1185 48.1305 17.3344 47.4175 17.3344H33.4549C32.7419 17.3344 32.1636 18.1185 32.1636 19.0851V38.0163C32.1636 38.983 32.7419 39.767 33.4549 39.767H47.4175ZM47.4175 42.1014H33.4549C31.7911 42.1014 30.4419 40.2722 30.4419 38.0163V19.0851C30.4419 16.8293 31.7911 15 33.4549 15H47.4175C49.0813 15 50.4305 16.8293 50.4305 19.0851V38.0163C50.4305 40.2722 49.0813 42.1014 47.4175 42.1014Z" fill="#5BB286"/>
<path d="M45.8091 28.25L48.8006 31.2409C49.1832 31.6235 49.7222 31.513 50.0044 30.9942C50.2865 30.4754 50.2051 29.7447 49.8224 29.3621L46.831 26.3712C46.2239 25.7641 45.3953 25.7641 44.7877 26.3708L42.3076 28.8509L39.83 26.372C39.2222 25.7639 38.3931 25.7639 37.7854 26.372L35.307 28.851L32.3186 25.8608C31.936 25.4781 31.3971 25.5882 31.1147 26.1069C30.8324 26.6255 30.9136 27.3563 31.2962 27.7391L34.2846 30.7294C34.8924 31.3375 35.7215 31.3375 36.3292 30.7294L38.8075 28.2504L41.2851 30.7294C41.8928 31.3375 42.7219 31.3375 43.3297 30.7294L45.8091 28.25ZM35.6829 44.165H27.9332L24.3593 39.3193C23.1338 37.6578 21.1464 37.6578 19.921 39.3193C18.6929 40.9879 18.6938 43.6795 19.9189 45.3405L24.4147 51.4361C25.0159 52.2513 25.8218 52.6871 26.6561 52.6786C26.6612 52.6791 33.3263 52.6802 33.3263 52.6802V63.8326C33.3263 64.4772 33.7117 64.9998 34.1871 64.9998C34.6626 64.9998 35.048 64.4772 35.048 63.8326V51.513C35.048 50.8684 34.6626 50.3458 34.1871 50.3458H26.6814C26.2694 50.351 25.9049 50.1554 25.6321 49.7854L21.1363 43.6898C20.5828 42.9393 20.5828 41.7235 21.1361 40.9736C21.6939 40.22 22.5895 40.2211 23.1419 40.9699L26.9679 46.1575C27.0479 46.2658 27.1428 46.3518 27.2472 46.4105C27.3517 46.4691 27.4636 46.4993 27.5766 46.4993H35.6449C35.657 46.5006 36.471 46.5045 36.471 46.5045C37.2558 46.5045 37.8922 47.3675 37.8922 48.4315V63.8326C37.8922 64.4772 38.2776 64.9997 38.7531 64.9997C39.2285 64.9997 39.6139 64.4772 39.6139 63.8326V48.4315C39.6139 46.0781 38.2067 44.1702 36.471 44.1702H35.7677C35.7509 44.1686 35.7279 44.1673 35.6829 44.1649V44.165ZM44.5284 44.1703C42.7927 44.1703 41.3855 46.0783 41.3855 48.4317V63.8327C41.3855 64.4773 41.7709 64.9999 42.2463 64.9999C42.7218 64.9999 43.1072 64.4773 43.1072 63.8327V48.4317C43.1072 47.3675 43.7436 46.5047 44.5284 46.5047H45.2795L45.3442 46.4994H53.4228C53.6511 46.4994 53.87 46.3764 54.0315 46.1576L57.8575 40.97C58.4099 40.2211 59.3055 40.2202 59.8588 40.9671C60.4166 41.7236 60.4166 42.9395 59.8631 43.6899L55.3673 49.7855C55.0945 50.1555 54.73 50.351 54.3483 50.3443C54.1947 50.3573 54.1947 50.3573 54.1577 50.3692C54.1783 50.361 54.1783 50.361 54.3275 50.3459H46.8123C46.3369 50.3459 45.9515 50.8685 45.9515 51.5131V63.8327C45.9515 64.4774 46.3369 64.9999 46.8123 64.9999C47.2878 64.9999 47.6732 64.4774 47.6732 63.8327V52.6803H54.3275C55.1707 52.691 55.981 52.2549 56.5848 51.4362L61.0806 45.3406C62.3056 43.6797 62.3065 40.988 61.083 39.3262C59.853 37.6579 57.8656 37.6579 56.6401 39.3195L53.0662 44.1652H45.3166C45.2659 44.1679 45.2432 44.1691 45.2256 44.171L44.5284 44.1704L44.5284 44.1703Z" fill="#5BB286"/>
</svg>
