<svg width="80" height="80" viewBox="0 0 80 80" fill="none" xmlns="http://www.w3.org/2000/svg">
<circle cx="40" cy="40" r="39" fill="white" stroke="#5BB286" stroke-width="1"/>
<path d="M35.3147 19.9133H50.3667V36.0739C41.641 37.6465 35.0713 44.5717 35.0713 52.8797C35.0713 57.0717 36.7463 60.9112 39.5247 63.8884H33.5095V21.6433C33.5095 20.6888 34.3187 19.9133 35.3147 19.9133ZM29.8371 63.2485H22.1922V34.1866C22.1922 33.4112 22.8486 32.7767 23.6635 32.7767H29.8371V63.2485ZM57.3891 29.7289V35.8298C56.4554 35.678 54.9389 35.602 53.9656 35.602C53.3036 35.602 52.6472 35.64 52.0021 35.7105V29.7289H57.3891Z" fill="#5BB286"/>
<path d="M52.268 40.1843C45.2343 40.1843 39.536 45.6453 39.536 52.3861C39.536 59.1268 45.2343 64.5878 52.268 64.5878C59.3017 64.5878 65 59.1268 65 52.3861C65 45.6453 59.2961 40.1843 52.268 40.1843ZM42.2861 48.2537C42.5634 48.026 48.1824 45.1084 49.1331 44.577C49.9875 44.0997 51.9624 44.0618 53.7223 44.577C55.4821 45.0921 56.8685 45.488 57.7343 45.526C58.6057 45.5694 60.7956 45.8622 61.5765 46.3557C62.3574 46.8492 62.5158 49.7234 61.5482 50.6941C61.5482 50.6941 58.5491 53.0639 56.9817 53.0639C55.4142 53.0639 54.5767 52.6192 54.5767 52.6192L49.8121 50.8459C49.8121 50.8459 49.2915 50.5531 49.2915 50.2711C49.2915 50.244 49.3085 50.1898 49.3311 50.1572C49.3311 50.1572 49.5914 49.6258 49.9819 49.68C50.4176 49.7396 53.213 50.1681 53.213 50.1681C53.213 50.1681 53.3545 50.1898 53.5242 50.1681C53.9316 50.1193 54.1863 49.7071 54.0165 49.3492C53.9712 49.257 53.9033 49.1702 53.7845 49.1268C53.4393 48.9913 51.9624 48.4164 51.2834 48.1778C50.6043 47.9446 50.4459 47.8741 50.0328 47.9772C49.8857 48.0151 49.7272 48.0531 49.5801 48.1344L43.8083 50.4826C43.8083 50.4826 42.3483 51.1225 41.9579 50.1409C41.5731 49.1594 42.0088 48.4815 42.2861 48.2537ZM61.7406 56.7136C61.4633 56.9414 55.8443 59.8589 54.8936 60.3904C54.0392 60.8676 52.0643 60.9056 50.3044 60.3904C48.5446 59.8752 47.1582 59.4793 46.2924 59.4414C45.421 59.398 43.2311 59.1051 42.4502 58.6117C41.6693 58.1182 41.5109 55.244 42.4785 54.2733C42.4785 54.2733 45.4776 51.9034 47.045 51.9034C48.6125 51.9034 49.45 52.3481 49.45 52.3481L54.2146 54.1214C54.2146 54.1214 54.7352 54.4143 54.7352 54.6963C54.7352 54.7234 54.7182 54.7776 54.6956 54.8101C54.6956 54.8101 54.4353 55.3416 54.0448 55.2874C53.6091 55.2277 50.8137 54.7993 50.8137 54.7993C50.8137 54.7993 50.6722 54.7776 50.5025 54.7993C50.0951 54.8481 49.8404 55.2602 50.0102 55.6182C50.0554 55.7104 50.1234 55.7971 50.2422 55.8405C50.5874 55.9761 52.0643 56.5509 52.7433 56.7895C53.4224 57.0227 53.5808 57.0932 53.9939 56.9902C54.141 56.9522 54.2994 56.9143 54.4466 56.8329L60.2184 54.4848C60.2184 54.4848 61.6784 53.8448 62.0688 54.8264C62.4536 55.808 62.0179 56.4858 61.7406 56.7136Z" fill="#5BB286"/>
<path d="M38.8966 62.8308H31.048V17.9989C31.048 17.538 31.4271 17.1692 31.8968 17.1692H48.9464C49.416 17.1692 49.7952 17.5434 49.7952 17.9989V35.141C49.7952 35.7375 50.3044 36.2256 50.9269 36.2256C51.5493 36.2256 52.0586 35.7375 52.0586 35.141V30.5477H59.8789C60.3486 30.5477 60.7277 30.9002 60.7277 31.3286V37.8416C60.7277 38.4382 61.237 38.9262 61.8594 38.9262C62.4819 38.9262 62.9912 38.4382 62.9912 37.8416V31.3341C62.9912 29.7072 61.5935 28.3839 59.8789 28.3839H52.053V17.9989C52.053 16.3449 50.6553 15 48.9407 15H31.8968C30.1822 15 28.7845 16.3449 28.7845 17.9989V28.3785H20.9642C19.2497 28.3785 17.852 29.7017 17.852 31.3286V62.8254H15.7866C15.3508 62.8254 15 63.3026 15 63.8883V63.9371C15 64.5228 15.3508 65 15.7866 65H38.8966C39.3323 65 39.6831 64.5228 39.6831 63.9371V63.8937C39.6831 63.308 39.3266 62.8308 38.8966 62.8308ZM20.1154 31.3341C20.1154 30.9002 20.4946 30.5531 20.9642 30.5531H28.7506V62.7928H20.1154V31.3341Z" fill="#5BB286"/>
<path d="M34.2904 35.2549H37.2612V38.102H34.2904V35.2549ZM34.2904 41.9795H37.2612V44.8265H34.2904V41.9795ZM34.2904 22.1367H37.2612V24.9838H34.2904V22.1367ZM34.2904 28.6985H37.2612V31.5456H34.2904V28.6985ZM43.333 22.1367H46.3038V24.9838H43.333V22.1367ZM43.333 28.6985H46.3038V31.5456H43.333V28.6985ZM46.3038 35.2604V36.9523C45.5002 37.2831 44.7193 37.6682 43.978 38.1074H43.333V35.2604H46.3038ZM22.8938 35.1031H25.8646V37.9502H22.8938V35.1031ZM22.8938 41.3938H25.8646V44.2408H22.8938V41.3938ZM22.8882 47.6844H25.859V50.5315H22.8882V47.6844Z" fill="white"/>
</svg>
