<svg width="38" height="36" viewBox="0 0 38 36" fill="none" xmlns="http://www.w3.org/2000/svg">
<path d="M9.02576 1.44172C8.22576 0.641721 6.02572 1.10839 5.02571 1.44172C1.58797 3.73354 0.916287 7.72755 1.00785 9.67938C1.01217 9.77151 1.01819 9.85909 1.02571 9.94172C1.02567 17.1418 9.02572 24.9417 13.0258 27.9417C18.0258 31.4417 21.5258 32.9417 26.5258 34.4417C30.5258 35.6417 33.5258 33.9417 34.5258 32.9417C35.0258 32.6083 36.2258 31.4417 37.0258 29.4417C37.8258 27.4417 37.0258 25.9417 36.5258 25.4417L30.0258 22.4417C29.3591 22.1083 27.8258 21.7416 27.0258 22.9417C26.2258 24.1417 24.3591 26.1083 23.5258 26.9417C17.1258 26.1417 12.1924 18.275 10.5258 14.4417C11.5258 13.6083 13.5258 11.5417 13.5258 9.94172C13.5258 7.94179 10.0258 2.44172 9.02576 1.44172Z" fill="white" stroke="#FFF4F4"/>
</svg>
